<svg width="529" height="533" viewBox="0 0 529 533" fill="none" xmlns="http://www.w3.org/2000/svg">
<path d="M211.738 533C210.289 533 209 532.839 207.873 532.518C204.49 531.553 202.236 529.623 201.43 526.567C195.31 506.302 250.875 440.682 342.999 335.176C422.561 243.983 512.914 140.568 505.183 114.191C504.539 112.1 503.573 111.618 502.767 111.457C496.808 110.17 479.253 119.66 429.487 172.413C392.927 211.174 347.348 263.927 303.218 315.072C260.377 364.769 215.925 416.235 181.298 452.905C129.438 507.749 115.909 512.092 109.306 509.036C107.373 508.232 106.246 506.623 105.763 504.533C100.77 484.589 165.354 402.082 272.456 268.591C316.264 213.908 361.521 157.455 394.054 113.387C438.022 53.5573 444.465 35.0616 442.049 30.2366C441.888 29.7541 441.566 29.7541 441.244 29.5932C435.929 28.9499 418.535 40.0474 365.708 97.143C326.893 138.96 278.415 195.09 231.387 249.613C123.318 374.58 56.3184 450.654 39.4075 450.654C39.2464 450.654 39.2464 450.654 39.0854 450.654C37.4748 450.493 36.0253 449.849 35.0589 448.563C31.5157 443.416 33.6094 431.032 73.2294 376.027C99.9647 339.036 136.525 292.233 175.5 242.697C218.18 188.335 262.31 132.044 293.716 87.6539C338.812 24.1249 340.261 9.16747 337.201 5.78998C336.879 5.46832 336.235 4.82498 334.785 4.98582C314.009 5.14665 236.702 95.213 168.575 174.664C132.659 216.481 95.4552 259.906 66.1429 290.625C22.3355 336.784 10.2562 340.161 4.29714 337.266C2.20341 336.301 0.914955 334.532 0.270729 332.281C-3.75569 315.393 37.4748 261.032 100.931 179.811C148.926 118.212 203.363 48.4107 200.786 31.6841C200.625 30.3974 200.142 29.9149 199.659 29.7541C183.07 18.8174 118.486 88.9406 79.8327 130.757C41.8233 171.93 33.2873 180.454 28.6167 177.077C23.946 173.378 20.7249 163.084 48.1045 115.317C62.7607 89.7447 79.5106 65.2981 79.6716 65.1373C80.4769 64.0115 81.9264 63.6898 83.0538 64.494C84.1812 65.2981 84.5033 66.7456 83.698 67.8715C83.537 68.1931 66.9481 92.4789 52.4531 117.73C27.9725 160.35 29.422 170.483 31.1936 172.734C36.3474 170.644 56.6405 148.77 76.2894 127.38C134.109 64.494 183.714 13.3491 202.236 25.7333C204.007 26.8591 204.974 28.6282 205.457 30.8799C208.517 49.6973 158.106 114.191 104.635 182.706C56.1574 244.788 1.23707 315.232 4.94137 330.994C5.10243 331.959 5.5856 332.441 6.22982 332.763C9.61201 334.371 21.3691 330.511 62.5996 287.247C91.7509 256.528 128.955 213.264 164.871 171.448C240.406 83.4722 311.754 0.482499 334.624 0C337.04 0 339.134 0.804164 340.744 2.41249C355.4 18.3349 289.528 104.863 179.205 245.592C140.39 295.128 103.669 341.931 77.0947 378.761C38.2801 432.801 37.4748 443.577 38.9243 445.668C39.0854 445.829 42.1454 447.115 58.7343 432.479C69.5251 422.83 83.8591 408.515 102.542 388.25C137.491 350.616 181.137 299.953 227.522 246.396C344.61 110.814 422.722 22.3558 441.888 24.7683C443.982 25.0899 445.592 26.2158 446.397 28.1457C455.256 46.3199 387.934 132.205 276.161 271.647C196.277 371.363 105.602 484.428 110.111 503.407C110.272 504.211 110.594 504.533 111.078 504.693C114.782 506.463 128.472 501.477 177.594 449.528C212.221 412.858 256.512 361.552 299.353 311.855C408.871 184.958 482.152 101.968 503.734 106.632C505.827 107.115 508.565 108.562 509.854 112.744C518.39 141.694 434.962 237.228 346.703 338.231C274.711 420.739 200.303 505.98 206.101 525.119C206.423 526.084 207.067 527.21 209.161 527.853C236.058 535.091 324.155 435.374 394.859 355.28C464.275 276.632 507.599 228.704 522.577 231.438C524.188 231.76 526.443 232.886 527.57 236.103C536.428 261.193 473.455 339.518 417.729 408.837C384.23 450.493 352.663 489.736 352.018 499.868C351.857 502.12 352.663 502.442 352.824 502.603C364.903 507.267 443.015 442.451 463.308 416.557C464.114 415.431 465.724 415.27 466.691 416.075C467.818 416.879 467.979 418.487 467.174 419.452C450.746 440.36 368.446 513.7 351.052 506.945C349.441 506.302 346.864 504.533 347.187 499.386C347.992 488.288 373.117 456.444 414.025 405.62C463.308 344.182 530.952 260.067 523.06 237.55C522.577 236.424 522.094 236.103 521.611 236.103C517.746 235.298 507.116 240.767 477.642 271.003C455.417 293.681 427.715 325.204 398.403 358.336C322.545 444.22 244.271 533 211.738 533Z" fill="#EBEBEB"/>
</svg>
