<svg width="282" height="533" viewBox="0 0 282 533" fill="none" xmlns="http://www.w3.org/2000/svg">
<g clip-path="url(#clip0_262_2828)">
<path d="M223.683 530C222.179 530 220.842 529.833 219.673 529.499C216.164 528.498 213.824 526.496 212.989 523.325C206.639 502.3 264.288 434.218 359.87 324.753C442.417 230.139 536.16 122.842 528.139 95.4762C527.471 93.3069 526.468 92.8063 525.633 92.6394C519.45 91.3045 501.236 101.15 449.602 155.882C411.671 196.097 364.381 250.83 318.596 303.894C274.147 355.456 228.028 408.854 192.101 446.9C138.295 503.802 124.259 508.307 117.408 505.137C115.402 504.302 114.233 502.634 113.731 500.464C108.551 479.773 175.558 394.17 286.68 255.669C332.131 198.934 379.086 140.364 412.84 94.6418C458.459 32.567 465.143 13.3772 462.636 8.37115C462.469 7.87055 462.135 7.87055 461.801 7.70368C456.286 7.03621 438.24 18.5501 383.431 77.7882C343.16 121.174 292.863 179.411 244.069 235.979C131.945 365.635 62.4317 444.564 44.8862 444.564C44.7191 444.564 44.7191 444.564 44.552 444.564C42.881 444.397 41.3771 443.729 40.3745 442.394C36.6983 437.055 38.8706 424.206 79.9772 367.137C107.716 328.757 145.647 280.199 186.086 228.804C230.367 172.402 276.153 113.999 308.737 67.943C355.525 2.03018 357.029 -13.4885 353.854 -16.9928C353.52 -17.3265 352.851 -17.994 351.348 -17.8271C329.792 -17.6602 249.584 75.7858 178.9 158.218C141.637 201.604 103.037 246.658 72.6248 278.53C27.1736 326.421 14.6411 329.925 8.45839 326.922C6.28609 325.921 4.94929 324.085 4.28089 321.749C0.103388 304.228 42.881 247.827 108.718 163.558C158.514 99.6479 214.994 27.2272 212.32 9.87297C212.153 8.53802 211.652 8.03742 211.151 7.87055C193.939 -3.47646 126.932 69.2779 86.8283 112.664C47.3927 155.382 38.5364 164.226 33.6905 160.721C28.8446 156.884 25.5026 146.204 53.9096 96.6442C69.1157 70.1123 86.4941 44.7483 86.6612 44.5815C87.4967 43.4134 89.0006 43.0797 90.1703 43.914C91.34 44.7483 91.6742 46.2502 90.8387 47.4182C90.6716 47.752 73.4603 72.949 58.4213 99.1473C33.0221 143.367 34.526 153.88 36.3641 156.216C41.7113 154.047 62.7659 131.353 83.1521 109.159C143.141 43.914 194.608 -9.14997 213.824 3.69885C215.662 4.86693 216.665 6.70248 217.166 9.03863C220.341 28.5622 168.039 95.4762 112.562 166.562C62.2646 230.973 5.28349 304.061 9.12679 320.414C9.29389 321.415 9.79519 321.916 10.4636 322.25C13.9727 323.918 26.171 319.913 68.9486 275.026C99.1937 243.154 137.794 198.267 175.057 154.881C253.427 63.6044 327.452 -22.4994 351.18 -23C353.687 -23 355.859 -22.1657 357.53 -20.497C372.736 -3.97707 304.392 85.7978 189.929 231.807C149.658 283.202 111.559 331.761 83.9876 369.974C43.7165 426.041 42.881 437.222 44.3849 439.391C44.552 439.558 47.7269 440.893 64.9382 425.708C76.1339 415.696 91.0058 400.844 110.389 379.819C146.65 340.772 191.934 288.209 240.059 232.642C361.541 91.9719 442.584 0.19463 462.469 2.69765C464.641 3.03138 466.312 4.19946 467.148 6.20187C476.338 25.0579 406.491 114.165 290.523 258.84C207.642 362.298 113.564 479.606 118.243 499.296C118.41 500.131 118.744 500.464 119.246 500.631C123.089 502.467 137.292 497.294 188.258 443.396C224.184 405.35 270.137 352.119 314.586 300.557C428.214 168.898 504.244 82.7942 526.635 87.6334C528.808 88.134 531.648 89.6358 532.985 93.9743C541.842 124.011 455.284 223.13 363.713 327.923C289.019 413.526 211.819 501.966 217.835 521.823C218.169 522.825 218.837 523.993 221.01 524.66C248.915 532.169 340.319 428.711 413.676 345.611C485.696 264.013 530.646 214.286 546.186 217.123C547.857 217.457 550.197 218.625 551.366 221.962C560.557 247.993 495.221 329.258 437.404 401.178C402.647 444.397 369.896 485.113 369.227 495.625C369.06 497.961 369.896 498.295 370.063 498.462C382.595 503.301 463.639 436.053 484.693 409.188C485.529 408.02 487.2 407.853 488.202 408.687C489.372 409.521 489.539 411.19 488.704 412.191C471.66 433.884 386.271 509.976 368.225 502.967C366.554 502.3 363.88 500.464 364.214 495.125C365.05 483.611 391.117 450.571 433.561 397.841C484.693 334.097 554.875 246.825 546.687 223.464C546.186 222.296 545.685 221.962 545.184 221.962C541.173 221.128 530.145 226.801 499.565 258.172C476.505 281.701 447.764 314.407 417.352 348.782C338.648 437.889 257.437 530 223.683 530Z" fill="#EBEBEB"/>
</g>
<defs>
<clipPath id="clip0_262_2828">
<rect width="282" height="533" fill="white"/>
</clipPath>
</defs>
</svg>
