<svg width="251" height="511" viewBox="0 0 251 511" fill="none" xmlns="http://www.w3.org/2000/svg">
<g clip-path="url(#clip0_262_3161)">
<path d="M-68.262 533C-69.7115 533 -70.9999 532.839 -72.1273 532.518C-75.5095 531.553 -77.7643 529.622 -78.5696 526.567C-84.6898 506.302 -29.1252 440.682 62.9991 335.176C142.561 243.983 232.914 140.568 225.183 114.191C224.539 112.1 223.573 111.618 222.767 111.457C216.808 110.17 199.253 119.66 149.487 172.413C112.927 211.174 67.3477 263.927 23.2181 315.072C-19.6229 364.769 -64.0745 416.235 -98.7017 452.905C-150.562 507.749 -164.091 512.092 -170.694 509.036C-172.627 508.232 -173.754 506.623 -174.237 504.533C-179.23 484.589 -114.646 402.082 -7.54367 268.591C36.2637 213.908 81.5206 157.455 114.054 113.387C158.022 53.5573 164.465 35.0616 162.049 30.2366C161.888 29.7541 161.566 29.7541 161.244 29.5932C155.929 28.9499 138.535 40.0474 85.7081 97.143C46.8935 138.96 -1.58456 195.09 -48.6131 249.613C-156.682 374.58 -223.682 450.654 -240.593 450.654C-240.754 450.654 -240.754 450.654 -240.915 450.654C-242.525 450.493 -243.975 449.849 -244.941 448.563C-248.484 443.416 -246.391 431.032 -206.771 376.027C-180.035 339.036 -143.475 292.233 -104.5 242.697C-61.8197 188.335 -17.6902 132.044 13.7158 87.6539C58.8116 24.1249 60.2611 9.16747 57.2011 5.78998C56.879 5.46832 56.2347 4.82499 54.7852 4.98582C34.0089 5.14665 -43.2982 95.213 -111.425 174.664C-147.341 216.481 -184.545 259.906 -213.857 290.625C-257.665 336.784 -269.744 340.161 -275.703 337.266C-277.797 336.301 -279.085 334.532 -279.729 332.281C-283.756 315.393 -242.525 261.032 -179.069 179.811C-131.074 118.212 -76.6369 48.4107 -79.2138 31.6841C-79.3749 30.3974 -79.8581 29.9149 -80.3412 29.7541C-96.9301 18.8174 -161.514 88.9406 -200.167 130.757C-238.177 171.93 -246.713 180.454 -251.383 177.077C-256.054 173.378 -259.275 163.084 -231.895 115.317C-217.239 89.7447 -200.489 65.2981 -200.328 65.1373C-199.523 64.0115 -198.074 63.6898 -196.946 64.494C-195.819 65.2981 -195.497 66.7456 -196.302 67.8715C-196.463 68.1931 -213.052 92.4789 -227.547 117.73C-252.028 160.35 -250.578 170.483 -248.806 172.734C-243.653 170.644 -223.359 148.77 -203.711 127.38C-145.891 64.494 -96.2858 13.3491 -77.7643 25.7333C-75.9927 26.8591 -75.0264 28.6282 -74.5432 30.8799C-71.4831 49.6973 -121.894 114.191 -175.365 182.706C-223.843 244.788 -278.763 315.232 -275.059 330.994C-274.898 331.959 -274.414 332.441 -273.77 332.763C-270.388 334.371 -258.631 330.511 -217.4 287.247C-188.249 256.528 -151.045 213.264 -115.129 171.448C-39.5939 83.4722 31.7542 0.482499 54.6242 0C57.04 0 59.1338 0.804164 60.7444 2.41249C75.4005 18.3349 9.52835 104.863 -100.795 245.592C-139.61 295.128 -176.331 341.931 -202.905 378.761C-241.72 432.801 -242.525 443.577 -241.076 445.668C-240.915 445.829 -237.855 447.115 -221.266 432.479C-210.475 422.829 -196.141 408.515 -177.458 388.25C-142.509 350.616 -98.8627 299.953 -52.4784 246.396C64.6097 110.814 142.722 22.3558 161.888 24.7683C163.982 25.0899 165.592 26.2158 166.397 28.1457C175.256 46.3199 107.934 132.205 -3.83936 271.647C-83.7234 371.363 -174.398 484.428 -169.889 503.407C-169.728 504.211 -169.406 504.533 -168.922 504.693C-165.218 506.463 -151.528 501.477 -102.406 449.528C-67.7788 412.858 -23.4883 361.552 19.3528 311.855C128.871 184.958 202.152 101.968 223.734 106.632C225.827 107.115 228.565 108.562 229.854 112.744C238.39 141.694 154.962 237.228 66.7034 338.231C-5.28885 420.739 -79.697 505.98 -73.899 525.119C-73.5769 526.084 -72.9326 527.21 -70.8389 527.853C-43.9425 535.091 44.1555 435.374 114.859 355.28C184.275 276.632 227.599 228.704 242.577 231.438C244.188 231.76 246.443 232.886 247.57 236.103C256.428 261.193 193.455 339.518 137.729 408.837C104.23 450.493 72.6625 489.736 72.0183 499.868C71.8572 502.12 72.6625 502.442 72.8236 502.603C84.9028 507.267 163.015 442.451 183.308 416.557C184.114 415.431 185.724 415.27 186.691 416.075C187.818 416.879 187.979 418.487 187.174 419.452C170.746 440.36 88.4461 513.7 71.0519 506.945C69.4414 506.302 66.8645 504.533 67.1866 499.386C67.9919 488.288 93.1167 456.444 134.025 405.62C183.308 344.182 250.952 260.067 243.06 237.55C242.577 236.424 242.094 236.103 241.611 236.103C237.746 235.298 227.116 240.767 197.642 271.003C175.417 293.681 147.715 325.204 118.403 358.336C42.5449 444.22 -35.7286 533 -68.262 533Z" fill="#EBEBEB"/>
</g>
<defs>
<clipPath id="clip0_262_3161">
<rect width="251" height="511" fill="white"/>
</clipPath>
</defs>
</svg>
