<svg width="940" height="560" viewBox="0 0 940 560" fill="none" xmlns="http://www.w3.org/2000/svg">
<g filter="url(#filter0_f_463_506)">
<ellipse cx="38.9556" cy="454.887" rx="32.9556" ry="2.91606" fill="#9795FF" fill-opacity="0.3"/>
</g>
<path d="M56.2745 456.307H27.6382C21.9738 456.307 16.6242 452.53 14.7361 447.181L6.55428 424.523C4.98083 420.432 6.86897 415.712 10.9599 414.139C13.1626 413.195 15.3654 413.195 17.2536 414.139C19.1416 415.083 20.7151 416.656 21.6591 418.859L30.1556 440.887L26.0647 442.46L17.5683 420.432C17.2536 419.488 16.6242 418.859 15.6801 418.23C14.736 417.915 13.792 417.915 12.8479 418.23C10.9599 418.859 10.0158 421.062 10.6452 422.95L19.1416 445.607C20.4004 449.383 23.862 451.586 27.6382 451.586H51.5543L47.4633 448.125L50.6102 444.663L58.1627 451.586C59.1067 452.216 59.1067 453.474 58.792 454.418C58.4773 455.362 57.5333 456.307 56.2745 456.307Z" fill="#9795FF"/>
<path d="M40.8548 453.155C38.3373 453.155 35.8198 452.526 33.3023 451.582C30.1555 450.323 27.3233 446.861 26.0645 443.085C25.1205 439.623 25.4352 436.162 27.3233 433.644C29.8408 430.498 33.617 428.295 37.7079 428.609C40.8548 428.924 43.3722 430.498 44.9457 433.015C46.8338 436.477 46.8338 440.253 44.3163 442.77C42.1135 445.288 38.3373 446.232 35.5051 444.973C32.6729 443.714 31.0996 441.197 31.4142 437.735L35.8198 438.05C35.8198 439.623 36.1345 440.568 37.0785 441.197C38.3373 441.512 39.9107 441.197 40.8548 440.253C42.1135 438.994 41.4842 437.106 40.8548 435.847C39.9107 434.274 38.3373 433.959 37.3932 433.644C34.8758 433.33 32.3582 434.903 30.7849 436.791C29.5261 438.679 29.8408 440.882 30.1555 442.456C31.0996 445.288 32.9876 447.491 34.5611 448.12C39.2813 450.008 44.9457 449.693 47.4632 446.232C53.4422 437.106 48.4072 429.868 46.5191 427.665C41.7989 422.316 30.4702 421.686 22.2883 426.721L20.4002 422.316C30.4702 416.337 44.3163 417.281 50.2953 424.204C52.4981 426.721 59.1065 436.162 51.5541 448.12C49.3512 451.896 44.9457 453.155 40.8548 453.155Z" fill="#9795FF"/>
<path d="M18.1982 416.335L13.7927 415.706C14.4221 412.244 17.5689 405.95 25.1213 405.006L25.436 409.412C19.457 410.041 18.1982 416.335 18.1982 416.335Z" fill="#9795FF"/>
<path d="M7.18555 420.737C5.29741 416.646 4.66803 407.52 13.794 401.856L15.9967 405.632C7.81493 410.667 10.9617 418.219 11.2764 418.849L7.18555 420.737Z" fill="#9795FF"/>
<path d="M14.7365 405.953C15.9531 405.953 16.9393 404.966 16.9393 403.75C16.9393 402.533 15.9531 401.547 14.7365 401.547C13.5199 401.547 12.5338 402.533 12.5338 403.75C12.5338 404.966 13.5199 405.953 14.7365 405.953Z" fill="#9795FF"/>
<path d="M25.4354 409.412C26.6519 409.412 27.6382 408.426 27.6382 407.209C27.6382 405.992 26.6519 405.006 25.4354 405.006C24.2188 405.006 23.2326 405.992 23.2326 407.209C23.2326 408.426 24.2188 409.412 25.4354 409.412Z" fill="#9795FF"/>
<g filter="url(#filter1_i_463_506)">
<path d="M243.61 301.419C248.268 311.755 246.523 322.623 246.523 322.623C246.523 322.623 237.223 316.733 232.565 306.397C227.906 296.061 229.652 285.193 229.652 285.193C229.652 285.193 238.951 291.083 243.61 301.419Z" fill="url(#paint0_linear_463_506)"/>
</g>
<path opacity="0.3" d="M243.47 317C243.304 317 243.138 316.918 243.138 316.753C243.138 316.671 240.898 312.307 238.161 306.544L232.603 303.744C232.437 303.662 232.354 303.415 232.437 303.168C232.52 303.003 232.769 302.921 233.017 303.003L237.663 305.309C236.253 302.262 234.925 299.381 233.764 296.746C232.188 293.206 230.944 290.077 230.031 287.525C229.948 287.278 230.031 287.113 230.28 287.031C230.529 286.949 230.695 287.031 230.778 287.278C231.607 289.501 232.686 292.135 233.93 295.099L234.511 291.559C234.511 291.312 234.76 291.148 235.008 291.23C235.257 291.23 235.423 291.477 235.34 291.724L234.594 296.581C235.838 299.463 237.331 302.674 238.907 306.05C241.645 311.813 243.967 316.341 243.967 316.341C244.05 316.506 243.967 316.753 243.802 316.918C243.553 317 243.47 317 243.47 317Z" fill="white"/>
<g filter="url(#filter2_i_463_506)">
<path d="M238.273 309.897C243.681 315.199 245.233 322.388 245.233 322.388C245.233 322.388 238.016 320.979 232.607 315.677C227.198 310.375 225.646 303.186 225.646 303.186C225.646 303.186 232.864 304.595 238.273 309.897Z" fill="url(#paint1_linear_463_506)"/>
</g>
<path opacity="0.3" d="M244.203 320.954C244.116 320.956 244.03 320.959 243.941 320.874C243.941 320.874 241.28 318.608 237.994 315.665L233.741 315.348C233.481 315.355 233.301 315.1 233.383 314.924C233.376 314.664 233.631 314.484 233.806 314.566L237.019 314.825C235.418 313.309 233.909 311.964 232.486 310.617C230.529 308.764 228.838 307.078 227.586 305.639C227.408 305.47 227.401 305.211 227.569 305.033C227.737 304.855 227.997 304.848 228.175 305.016C229.244 306.114 230.494 307.466 232.006 308.897L231.521 307.005C231.428 306.747 231.596 306.569 231.853 306.476C232.111 306.382 232.289 306.551 232.382 306.808L233.251 310.076C234.851 311.592 236.63 313.276 238.584 315.043C241.958 318.07 244.619 320.336 244.619 320.336C244.797 320.505 244.804 320.764 244.636 320.942C244.46 320.86 244.289 320.952 244.203 320.954Z" fill="white"/>
<g filter="url(#filter3_ii_463_506)">
<path d="M241.409 292.206C241.409 289.584 242.874 287.183 245.204 285.983L261.171 277.758C263.182 276.722 265.57 276.722 267.582 277.758L283.548 285.983C285.879 287.183 287.343 289.584 287.343 292.206V317.337C287.343 321.203 284.209 324.337 280.343 324.337H248.409C244.543 324.337 241.409 321.203 241.409 317.337V292.206Z" fill="url(#paint2_linear_463_506)"/>
</g>
<g filter="url(#filter4_f_463_506)">
<ellipse cx="259.303" cy="324.712" rx="28.6968" ry="2.58271" fill="#9795FF" fill-opacity="0.2"/>
</g>
<g filter="url(#filter5_i_463_506)">
<path d="M615.689 319.854C582.853 362.322 578.924 414.293 578.924 414.293C578.924 414.293 628.234 397.41 661.07 354.942C693.907 312.474 697.835 260.503 697.835 260.503C697.835 260.503 648.526 277.386 615.689 319.854Z" fill="url(#paint3_linear_463_506)"/>
</g>
<path opacity="0.3" d="M578.42 415.034C578.12 415.034 577.82 414.934 577.52 414.734C576.92 414.234 576.82 413.334 577.32 412.734C577.52 412.534 596.12 390.534 619.22 361.734C632.82 344.734 645.32 328.734 656.22 314.234L658.62 286.034C658.72 285.234 659.42 284.634 660.12 284.734C660.92 284.834 661.52 285.534 661.42 286.234L659.42 309.934C671.42 293.834 681.52 279.634 689.42 267.634C689.82 266.934 690.72 266.834 691.42 267.234C692.12 267.634 692.22 268.534 691.82 269.234C683.22 282.234 672.12 297.834 658.72 315.634C648.42 329.334 636.72 344.334 624.02 360.334L655.42 352.734C656.22 352.534 656.92 353.034 657.12 353.734C657.32 354.534 656.82 355.234 656.12 355.434L621.12 363.934C598.22 392.534 579.62 414.434 579.52 414.634C579.22 414.934 578.82 415.034 578.42 415.034Z" fill="white"/>
<g filter="url(#filter6_i_463_506)">
<path d="M569.682 291.078C544.806 357.888 560.336 425.338 560.336 425.338C560.336 425.338 616.198 384.47 641.073 317.66C665.949 250.851 650.42 183.401 650.42 183.401C650.42 183.401 594.558 224.269 569.682 291.078Z" fill="url(#paint4_linear_463_506)"/>
</g>
<path opacity="0.3" d="M560.501 423.351C560.301 423.351 560.101 423.351 559.901 423.251C559.201 422.951 558.801 422.151 559.101 421.351C559.201 420.951 574.201 385.751 592.101 340.151C602.701 313.151 612.201 287.951 620.301 265.151L612.101 228.351C611.901 227.551 612.401 226.851 613.201 226.651C614.001 226.451 614.701 226.951 614.901 227.751L622.101 260.151C631.301 234.351 638.701 211.851 644.101 193.051C644.301 192.251 645.101 191.851 645.901 192.051C646.701 192.251 647.101 193.051 646.901 193.851C641.101 213.751 633.201 237.951 623.201 265.651C615.401 287.451 606.401 311.551 596.301 337.251L634.301 314.551C635.001 314.151 635.801 314.351 636.201 315.051C636.601 315.751 636.401 316.551 635.701 316.951L594.601 341.551C576.801 387.051 561.901 422.051 561.801 422.451C561.601 423.051 561.101 423.351 560.501 423.351Z" fill="white"/>
<g filter="url(#filter7_ii_463_506)">
<path d="M328.119 246.933C328.119 237.572 333.349 228.995 341.671 224.708L443.973 172.013C451.156 168.313 459.685 168.313 466.869 172.013L569.171 224.708C577.493 228.995 582.723 237.572 582.723 246.933V408.451C582.723 422.258 571.53 433.451 557.723 433.451H353.119C339.312 433.451 328.119 422.258 328.119 408.451V246.933Z" fill="url(#paint5_linear_463_506)"/>
</g>
<g filter="url(#filter8_f_463_506)">
<ellipse cx="487.523" cy="432.376" rx="158.931" ry="11.6939" fill="#9795FF" fill-opacity="0.2"/>
</g>
<g filter="url(#filter9_i_463_506)">
<path d="M270.073 395.616C284.166 435.181 274.45 474.784 274.45 474.784C274.45 474.784 241.886 450.24 227.794 410.674C213.702 371.109 223.417 331.506 223.417 331.506C223.417 331.506 255.981 356.05 270.073 395.616Z" fill="url(#paint6_linear_463_506)"/>
</g>
<path opacity="0.3" d="M272.726 471.326C272.526 471.326 272.326 471.226 272.226 471.026C272.126 470.826 263.626 450.026 253.526 423.026L229.426 408.126C229.226 408.026 229.126 407.626 229.226 407.426C229.326 407.226 229.726 407.126 229.926 407.226L252.926 421.426C247.126 405.826 241.826 391.326 237.326 378.126C231.726 361.726 227.226 347.426 224.026 335.626C223.926 335.326 224.126 335.126 224.426 335.026C224.726 334.926 224.926 335.126 225.026 335.426C228.126 346.726 232.426 360.526 237.726 376.226L242.526 356.026C242.626 355.726 242.826 355.626 243.126 355.626C243.426 355.726 243.526 355.926 243.526 356.226L238.326 377.926C242.926 391.426 248.326 406.426 254.326 422.426C264.426 449.426 273.026 470.326 273.026 470.526C273.126 470.826 273.026 471.026 272.726 471.226C272.926 471.326 272.826 471.326 272.726 471.326Z" fill="white"/>
<g filter="url(#filter10_i_463_506)">
<path d="M249.62 425.332C269.657 444.975 275.405 471.603 275.405 471.603C275.405 471.603 248.667 466.386 228.631 446.743C208.594 427.101 202.845 400.472 202.845 400.472C202.845 400.472 229.583 405.69 249.62 425.332Z" fill="url(#paint7_linear_463_506)"/>
</g>
<path opacity="0.3" d="M274.95 470.95C274.85 470.95 274.75 470.95 274.65 470.85C274.55 470.75 263.35 460.75 249.45 447.55L230.65 445.65C230.35 445.65 230.15 445.35 230.25 445.15C230.25 444.85 230.55 444.65 230.75 444.75L248.25 446.55C240.25 438.95 233.05 431.85 226.55 425.45C218.35 417.25 211.55 409.95 206.15 403.85C205.95 403.65 205.95 403.35 206.15 403.15C206.35 402.95 206.65 402.95 206.85 403.15C211.95 408.95 218.35 415.85 226.05 423.55L223.15 410.55C223.05 410.25 223.25 410.05 223.55 409.95C223.85 409.85 224.05 410.05 224.15 410.35L227.35 424.85C234.05 431.55 241.65 438.95 249.95 446.85C263.95 460.15 275.15 470.15 275.25 470.25C275.45 470.45 275.45 470.75 275.25 470.95C275.15 470.95 275.05 470.95 274.95 470.95Z" fill="white"/>
<g filter="url(#filter11_ii_463_506)">
<path d="M261.239 359.537C261.239 350.176 266.469 341.599 274.791 337.312L334.872 306.365C342.056 302.665 350.585 302.665 357.768 306.365L417.85 337.312C426.172 341.599 431.402 350.176 431.402 359.537V454.139C431.402 467.946 420.209 479.139 406.402 479.139H286.239C272.432 479.139 261.239 467.946 261.239 454.139V359.537Z" fill="url(#paint8_linear_463_506)"/>
</g>
<path d="M320.802 388C320.802 385.239 323.04 383 325.802 383H367.802C370.563 383 372.802 385.239 372.802 388V479H320.802V388Z" fill="#FCF0FF"/>
<g filter="url(#filter12_f_463_506)">
<ellipse cx="327.529" cy="480.527" rx="106.308" ry="9.56776" fill="#9795FF" fill-opacity="0.2"/>
</g>
<circle cx="358.802" cy="431" r="9" fill="url(#paint9_linear_463_506)"/>
<g filter="url(#filter13_i_463_506)">
<path d="M78.0438 353.878C86.4879 378.18 80.349 402.392 80.349 402.392C80.349 402.392 60.5195 387.203 52.0754 362.902C43.6313 338.6 49.7702 314.388 49.7702 314.388C49.7702 314.388 69.5997 329.577 78.0438 353.878Z" fill="url(#paint10_linear_463_506)"/>
</g>
<path opacity="0.3" d="M79.226 400.126C79.026 400.126 78.826 400.026 78.726 399.826C78.626 399.726 73.626 386.926 67.526 370.426L52.926 361.226C52.726 361.126 52.626 360.726 52.726 360.526C52.826 360.326 53.226 360.226 53.426 360.326L67.026 368.826C63.626 359.426 60.526 350.726 57.926 342.726C54.526 332.626 51.926 323.826 50.026 316.626C49.926 316.326 50.126 316.126 50.426 316.026C50.726 315.926 50.926 316.126 51.026 316.426C52.826 323.226 55.326 331.426 58.426 340.826L61.326 329.126C61.426 328.826 61.626 328.726 61.926 328.726C62.226 328.826 62.326 329.026 62.326 329.326L59.126 342.526C61.926 350.826 65.126 360.026 68.726 369.826C74.826 386.426 79.926 399.226 80.026 399.426C80.126 399.726 80.026 399.926 79.726 400.126C79.426 400.126 79.326 400.126 79.226 400.126Z" fill="white"/>
<g filter="url(#filter14_i_463_506)">
<path d="M65.48 371.981C77.7534 384.013 81.2745 400.324 81.2745 400.324C81.2745 400.324 64.8964 397.128 52.623 385.096C40.3495 373.064 36.8284 356.753 36.8284 356.753C36.8284 356.753 53.2065 359.949 65.48 371.981Z" fill="url(#paint11_linear_463_506)"/>
</g>
<path opacity="0.3" d="M81.35 401.25C81.25 401.25 81.15 401.25 81.05 401.15C80.95 401.05 74.15 394.95 65.65 386.85L54.25 385.65C53.95 385.65 53.75 385.35 53.85 385.15C53.85 384.85 54.15 384.65 54.35 384.75L64.55 385.75C59.85 381.25 55.55 377.05 51.65 373.15C46.65 368.15 42.45 363.65 39.15 359.85C38.95 359.65 38.95 359.35 39.15 359.15C39.35 358.95 39.65 358.95 39.85 359.15C42.85 362.55 46.65 366.65 51.15 371.15L49.55 363.85C49.45 363.55 49.65 363.35 49.95 363.25C50.25 363.15 50.45 363.35 50.55 363.65L52.55 372.45C56.65 376.55 61.25 381.05 66.35 385.85C74.95 393.95 81.75 400.15 81.85 400.15C82.05 400.35 82.05 400.65 81.85 400.85C81.65 401.25 81.45 401.25 81.35 401.25Z" fill="white"/>
<g filter="url(#filter15_ii_463_506)">
<path d="M72.5973 331.296C72.5973 325.679 75.7353 320.533 80.7285 317.961L117.845 298.843C122.155 296.623 127.272 296.623 131.582 298.843L168.698 317.961C173.691 320.533 176.829 325.679 176.829 331.296V389.749C176.829 398.033 170.114 404.749 161.829 404.749H87.5973C79.313 404.749 72.5973 398.033 72.5973 389.749V331.296Z" fill="url(#paint12_linear_463_506)"/>
</g>
<rect x="96.8019" y="333" width="25" height="25" rx="5" fill="#FCF0FF"/>
<rect x="126.802" y="333" width="25" height="25" rx="5" fill="#FCF0FF"/>
<rect x="96.8019" y="363" width="25" height="25" rx="5" fill="#FCF0FF"/>
<rect x="126.802" y="363" width="25" height="25" rx="5" fill="#FCF0FF"/>
<g filter="url(#filter16_f_463_506)">
<ellipse cx="113.203" cy="405.599" rx="65.1186" ry="5.86067" fill="#9795FF" fill-opacity="0.2"/>
</g>
<g filter="url(#filter17_i_463_506)">
<path d="M903.5 355.223C897.449 368.648 899.716 382.765 899.716 382.765C899.716 382.765 911.795 375.115 917.846 361.689C923.898 348.263 921.63 334.147 921.63 334.147C921.63 334.147 909.551 341.797 903.5 355.223Z" fill="url(#paint13_linear_463_506)"/>
</g>
<path opacity="0.3" d="M899.439 382.937C899.339 382.937 899.239 382.938 899.239 382.838C899.039 382.738 898.939 382.438 899.039 382.138C899.039 382.038 902.639 375.038 906.939 365.838C909.439 360.438 911.739 355.438 913.739 350.838L912.539 343.238C912.539 342.938 912.639 342.738 912.939 342.638C913.239 342.638 913.439 342.737 913.539 343.037L914.439 349.138C916.539 344.238 918.239 339.938 919.639 336.338C919.739 336.038 920.039 335.937 920.239 336.037C920.539 336.137 920.639 336.438 920.539 336.638C919.139 340.638 917.139 345.538 914.639 351.138C912.839 355.338 910.739 360.037 908.339 364.937L915.939 361.037C916.139 360.937 916.439 361.038 916.639 361.238C916.839 361.438 916.639 361.737 916.439 361.937L907.639 366.437C903.339 375.537 899.839 382.538 899.739 382.638C899.839 382.838 899.639 382.937 899.439 382.937Z" fill="white"/>
<g filter="url(#filter18_i_463_506)">
<path d="M910.432 366.235C903.407 373.122 901.391 382.459 901.391 382.459C901.391 382.459 910.766 380.63 917.792 373.743C924.817 366.855 926.833 357.519 926.833 357.519C926.833 357.519 917.458 359.348 910.432 366.235Z" fill="url(#paint14_linear_463_506)"/>
</g>
<path opacity="0.3" d="M900.55 383.55C900.45 383.55 900.25 383.45 900.15 383.35C899.95 383.15 899.95 382.85 900.15 382.65C900.15 382.65 904.15 379.05 909.05 374.45C911.95 371.75 914.55 369.15 916.95 366.85L918.05 361.85C918.15 361.55 918.35 361.45 918.65 361.45C918.95 361.55 919.05 361.75 919.05 362.05L918.25 365.45C920.55 363.05 922.55 360.95 924.15 359.15C924.35 358.95 924.65 358.95 924.85 359.15C925.05 359.35 925.05 359.65 924.85 359.85C922.95 362.05 920.55 364.55 917.65 367.45C915.55 369.55 913.25 371.85 910.75 374.25L915.95 373.75C916.25 373.75 916.45 373.95 916.45 374.15C916.45 374.45 916.25 374.65 916.05 374.65L909.55 375.35C904.65 379.95 900.85 383.45 900.75 383.45C900.85 383.55 900.65 383.55 900.55 383.55Z" fill="white"/>
<g filter="url(#filter19_ii_463_506)">
<path d="M906.358 343.809C906.358 340.065 904.266 336.634 900.938 334.919L881.106 324.704C878.232 323.224 874.821 323.224 871.948 324.704L852.116 334.919C848.787 336.634 846.695 340.065 846.695 343.809V374.992C846.695 380.515 851.172 384.992 856.695 384.992H896.358C901.881 384.992 906.358 380.515 906.358 374.992V343.809Z" fill="url(#paint15_linear_463_506)"/>
</g>
<g filter="url(#filter20_f_463_506)">
<ellipse cx="37.2744" cy="3.3547" rx="37.2744" ry="3.3547" transform="matrix(-1 0 0 1 920.39 382.124)" fill="#9795FF" fill-opacity="0.2"/>
</g>
<g filter="url(#filter21_i_463_506)">
<path d="M802.744 365.803C794.524 387.585 799.499 409.634 799.499 409.634C799.499 409.634 817.8 396.368 826.019 374.586C834.239 352.804 829.264 330.755 829.264 330.755C829.264 330.755 810.963 344.021 802.744 365.803Z" fill="url(#paint16_linear_463_506)"/>
</g>
<path opacity="0.3" d="M799.538 408.338C799.438 408.338 799.437 408.338 799.337 408.338C799.037 408.238 798.938 407.938 799.038 407.638C799.038 407.538 804.037 396.038 809.937 381.138C813.437 372.338 816.537 364.138 819.237 356.738L816.637 344.738C816.537 344.438 816.738 344.238 817.038 344.138C817.338 344.038 817.537 344.237 817.637 344.537L819.937 355.037C822.937 346.737 825.337 339.438 827.137 333.338C827.237 333.038 827.537 332.937 827.737 333.037C828.037 333.137 828.138 333.438 828.038 333.638C826.138 340.138 823.537 348.037 820.237 357.037C817.637 364.137 814.737 371.938 811.437 380.238L823.737 372.938C823.937 372.838 824.237 372.838 824.437 373.138C824.537 373.338 824.537 373.638 824.237 373.838L810.737 381.838C804.837 396.638 799.937 408.038 799.937 408.238C799.937 408.238 799.738 408.338 799.538 408.338Z" fill="white"/>
<g filter="url(#filter22_i_463_506)">
<path d="M814.001 382.493C802.895 393.381 799.708 408.142 799.708 408.142C799.708 408.142 814.529 405.25 825.636 394.362C836.743 383.474 839.929 368.713 839.929 368.713C839.929 368.713 825.108 371.605 814.001 382.493Z" fill="url(#paint17_linear_463_506)"/>
</g>
<path opacity="0.3" d="M800.038 408.537C799.938 408.537 799.737 408.438 799.637 408.338C799.437 408.138 799.437 407.837 799.637 407.637C799.737 407.537 805.937 402.037 813.637 394.637C818.237 390.237 822.437 386.238 826.137 382.438L827.937 374.438C828.037 374.138 828.238 374.037 828.538 374.037C828.838 374.137 828.937 374.337 828.937 374.637L827.538 381.037C831.538 377.037 834.937 373.438 837.637 370.338C837.837 370.138 838.138 370.138 838.338 370.338C838.538 370.538 838.538 370.837 838.338 371.037C835.338 374.437 831.538 378.537 827.038 383.037C823.638 386.537 819.738 390.238 815.538 394.337L824.637 393.438C824.937 393.438 825.137 393.638 825.137 393.838C825.137 394.138 824.937 394.338 824.737 394.338L814.437 395.337C806.737 402.637 800.538 408.137 800.538 408.237C800.238 408.537 800.138 408.537 800.038 408.537Z" fill="white"/>
<g filter="url(#filter23_ii_463_506)">
<path d="M807.561 346.546C807.561 340.929 804.423 335.783 799.43 333.211L767.268 316.645C762.958 314.425 757.841 314.425 753.531 316.645L721.369 333.211C716.376 335.783 713.238 340.929 713.238 346.546V397.146C713.238 405.43 719.954 412.146 728.238 412.146H792.561C800.845 412.146 807.561 405.43 807.561 397.146V346.546Z" fill="url(#paint18_linear_463_506)"/>
</g>
<rect x="735.802" y="348" width="22" height="22" rx="5" fill="#FCF0FF"/>
<rect x="762.802" y="348" width="22" height="22" rx="5" fill="#FCF0FF"/>
<rect x="735.802" y="375" width="22" height="22" rx="5" fill="#FCF0FF"/>
<rect x="762.802" y="375" width="22" height="22" rx="5" fill="#FCF0FF"/>
<g filter="url(#filter24_f_463_506)">
<ellipse cx="58.9277" cy="5.30349" rx="58.9277" ry="5.30349" transform="matrix(-1 0 0 1 829.743 407.612)" fill="#9795FF" fill-opacity="0.2"/>
</g>
<g filter="url(#filter25_di_463_506)">
<rect x="416.828" y="272.828" width="109.328" height="135.994" rx="6" transform="rotate(-22.2375 416.828 272.828)" fill="#F0F9FF"/>
</g>
<rect x="439.059" y="308.737" width="96.0439" height="88.2264" rx="2" transform="rotate(-22.2375 439.059 308.737)" fill="url(#paint19_linear_463_506)"/>
<path d="M450.925 296.337C448.532 297.316 446.169 297.355 443.837 296.454C441.504 295.554 439.872 293.964 438.941 291.685C438.493 290.591 438.286 289.455 438.319 288.277C438.352 287.098 438.617 285.961 439.115 284.866L442.852 276.591L451.317 279.878C452.439 280.31 453.425 280.936 454.274 281.753C455.123 282.571 455.771 283.527 456.218 284.621C457.15 286.9 457.099 289.178 456.066 291.454C455.033 293.731 453.319 295.358 450.925 296.337Z" fill="#FF4C00"/>
<rect x="459.905" y="272.498" width="55.9974" height="13.3327" rx="2" transform="rotate(-22.2375 459.905 272.498)" fill="#FFD25F"/>
<path d="M481.066 342.709L475.145 345.13C474.557 345.371 473.896 345.368 473.31 345.122C472.723 344.875 472.258 344.406 472.017 343.818C471.777 343.229 471.78 342.568 472.026 341.982C472.272 341.395 472.741 340.93 473.33 340.69L479.25 338.269C479.839 338.028 480.5 338.031 481.086 338.277C481.673 338.524 482.138 338.993 482.378 339.582C482.619 340.17 482.616 340.831 482.37 341.417C482.124 342.004 481.655 342.469 481.066 342.709Z" fill="#7D7BDD"/>
<path d="M480.93 325.489C480.341 325.729 479.681 325.726 479.095 325.479L472.892 322.729C472.508 322.707 472.136 322.594 471.806 322.398C471.476 322.202 472.009 322.723 471.806 322.398C471.603 322.072 471.468 321.115 471.437 320.733C471.407 320.35 471.468 319.966 471.616 319.612C471.765 319.258 471.996 318.945 472.291 318.699C472.585 318.453 473.269 318.096 473.643 318.013C473.273 317.915 474.018 317.93 473.643 318.013C474.014 318.112 474.357 318.301 474.641 318.559L480.897 321.184C481.301 321.378 481.642 321.682 481.882 322.061C482.122 322.439 482.251 322.878 482.255 323.326C482.258 323.774 482.136 324.215 481.902 324.597C481.667 324.979 481.331 325.288 480.93 325.489Z" fill="#7D7BDD"/>
<path d="M493.314 313.526C492.725 313.766 492.065 313.763 491.478 313.517C490.892 313.271 490.427 312.802 490.186 312.213L487.766 306.293C487.525 305.704 487.528 305.044 487.774 304.457C488.02 303.87 488.489 303.406 489.078 303.165C489.667 302.924 490.327 302.927 490.914 303.173C491.501 303.419 491.965 303.889 492.206 304.477L494.627 310.398C494.867 310.987 494.864 311.647 494.618 312.234C494.372 312.82 493.903 313.285 493.314 313.526Z" fill="#7D7BDD"/>
<path d="M510.533 313.382C510.094 313.561 509.612 313.606 509.148 313.511C508.683 313.416 508.257 313.186 507.923 312.849C507.59 312.512 507.363 312.084 507.273 311.619C507.183 311.153 507.232 310.671 507.415 310.234L510.165 304.031C510.187 303.648 510.487 303.514 510.683 303.184C511.009 302.98 511.622 302.671 512.004 302.641C512.387 302.61 512.771 302.671 513.125 302.82C513.479 302.968 513.792 303.199 514.038 303.494C514.284 303.788 514.795 304.409 514.878 304.784C514.961 305.159 514.977 304.413 514.878 304.784C514.78 305.155 514.594 305.497 514.336 305.781L511.711 312.037C511.506 312.62 511.084 313.102 510.533 313.382Z" fill="#7D7BDD"/>
<path d="M528.426 323.347L522.506 325.768C521.917 326.008 521.257 326.005 520.67 325.759C520.083 325.513 519.619 325.044 519.378 324.455C519.137 323.866 519.14 323.206 519.386 322.619C519.632 322.033 520.102 321.568 520.69 321.327L526.611 318.907C527.2 318.666 527.86 318.669 528.447 318.915C529.033 319.161 529.498 319.63 529.739 320.219C529.98 320.808 529.976 321.468 529.73 322.055C529.484 322.641 529.015 323.106 528.426 323.347Z" fill="#7D7BDD"/>
<path d="M503.297 337.944C506.567 336.607 508.134 332.873 506.797 329.603C505.46 326.333 501.726 324.766 498.456 326.103C495.186 327.44 493.619 331.174 494.956 334.444C496.293 337.714 500.028 339.281 503.297 337.944Z" fill="#7D7BDD"/>
<path d="M501.578 333.735C501.139 333.914 500.657 333.959 500.193 333.864C499.728 333.769 499.302 333.539 498.968 333.202C498.635 332.865 498.408 332.437 498.318 331.972C498.227 331.506 498.277 331.025 498.46 330.587L503.412 318.785C503.673 318.22 504.142 317.779 504.722 317.554C505.301 317.329 505.945 317.338 506.518 317.578C507.091 317.819 507.549 318.272 507.794 318.843C508.039 319.414 508.053 320.058 507.833 320.64L502.881 332.442C502.635 333.029 502.167 333.494 501.578 333.735Z" fill="#7D7BDD"/>
<path d="M501.2 367.6C494 367.6 487.1 365.4 481 361.3C473.1 355.9 467.9 347.7 466.1 338.4C464.4 329 466.4 319.5 471.8 311.7C477.2 303.8 485.4 298.6 494.7 296.8C504.1 295.1 513.6 297.1 521.4 302.5C529.3 307.9 534.5 316.1 536.3 325.4C538 334.8 536 344.3 530.6 352.1C525.2 359.9 517 365.2 507.7 367C505.6 367.4 503.4 367.6 501.2 367.6ZM501.3 297.6C499.2 297.6 497.2 297.8 495.1 298.2C486.1 299.9 478.3 304.9 473.1 312.5C467.9 320 466 329.1 467.6 338.1C469.3 347.1 474.3 354.9 481.9 360.1C489.5 365.3 498.5 367.2 507.5 365.6C526.1 362.2 538.4 344.3 534.9 325.7C531.9 309.2 517.5 297.6 501.3 297.6Z" fill="#7D7BDD"/>
<g filter="url(#filter26_di_463_506)">
<rect x="461.052" y="268.799" width="109.328" height="135.994" rx="6" transform="rotate(-10.4864 461.052 268.799)" fill="#F0F9FF"/>
</g>
<rect x="475.504" y="308.483" width="96.0439" height="88.2264" rx="2" transform="rotate(-10.4864 475.504 308.483)" fill="url(#paint20_linear_463_506)"/>
<path d="M489.647 298.759C487.104 299.23 484.783 298.787 482.683 297.43C480.583 296.074 479.309 294.185 478.861 291.764C478.646 290.602 478.674 289.447 478.946 288.3C479.218 287.153 479.71 286.094 480.42 285.124L485.764 277.783L493.382 282.724C494.393 283.377 495.23 284.19 495.895 285.163C496.56 286.137 497 287.205 497.215 288.366C497.663 290.788 497.149 293.007 495.674 295.026C494.199 297.044 492.19 298.288 489.647 298.759Z" fill="#0067C6"/>
<rect x="503.294" y="277.249" width="55.9974" height="13.3327" rx="2" transform="rotate(-10.4864 503.294 277.249)" fill="#FFD25F"/>
<path d="M509.712 350.298L503.422 351.462C502.797 351.578 502.151 351.44 501.627 351.08C501.102 350.72 500.743 350.166 500.627 349.54C500.511 348.915 500.649 348.269 501.009 347.745C501.37 347.22 501.924 346.861 502.549 346.745L508.838 345.581C509.464 345.465 510.11 345.603 510.634 345.963C511.158 346.324 511.518 346.877 511.633 347.503C511.749 348.128 511.612 348.774 511.251 349.299C510.891 349.823 510.337 350.182 509.712 350.298Z" fill="#7D7BDD"/>
<path d="M513.085 333.411C512.46 333.526 511.814 333.388 511.291 333.027L505.777 329.072C505.407 328.972 505.066 328.785 504.782 328.526C504.499 328.267 504.915 328.886 504.782 328.526C504.65 328.166 504.713 327.202 504.76 326.821C504.808 326.44 504.947 326.076 505.164 325.76C505.381 325.444 505.671 325.185 506.01 325.004C506.348 324.823 507.09 324.613 507.474 324.608C507.131 324.436 507.858 324.603 507.474 324.608C507.817 324.78 508.114 325.035 508.34 325.345L513.93 329.189C514.286 329.462 514.558 329.829 514.716 330.248C514.874 330.668 514.911 331.123 514.823 331.563C514.735 332.003 514.525 332.409 514.218 332.735C513.911 333.062 513.519 333.296 513.085 333.411Z" fill="#7D7BDD"/>
<path d="M527.647 324.22C527.021 324.336 526.375 324.199 525.851 323.838C525.327 323.478 524.967 322.924 524.852 322.299L523.687 316.009C523.572 315.384 523.709 314.738 524.07 314.214C524.43 313.689 524.984 313.33 525.609 313.214C526.235 313.098 526.881 313.236 527.405 313.596C527.929 313.957 528.289 314.511 528.404 315.136L529.569 321.425C529.684 322.051 529.547 322.697 529.187 323.221C528.826 323.745 528.272 324.105 527.647 324.22Z" fill="#7D7BDD"/>
<path d="M544.534 327.586C544.068 327.672 543.587 327.618 543.151 327.43C542.716 327.243 542.346 326.931 542.088 326.533C541.83 326.135 541.695 325.67 541.701 325.196C541.708 324.722 541.854 324.26 542.123 323.87L546.078 318.356C546.178 317.986 546.499 317.916 546.758 317.632C547.118 317.5 547.781 317.322 548.162 317.37C548.543 317.417 548.907 317.556 549.223 317.773C549.539 317.991 549.798 318.281 549.979 318.619C550.16 318.958 550.534 319.67 550.539 320.053C550.544 320.437 550.711 319.71 550.539 320.053C550.367 320.397 550.115 320.693 549.805 320.919L545.961 326.509C545.642 327.039 545.131 327.424 544.534 327.586Z" fill="#7D7BDD"/>
<path d="M560.023 340.987L553.733 342.151C553.108 342.267 552.462 342.129 551.938 341.769C551.414 341.408 551.054 340.855 550.938 340.229C550.823 339.603 550.96 338.958 551.32 338.433C551.681 337.909 552.235 337.55 552.86 337.434L559.15 336.27C559.775 336.154 560.421 336.291 560.945 336.652C561.469 337.012 561.829 337.566 561.945 338.192C562.06 338.817 561.923 339.463 561.563 339.987C561.202 340.512 560.648 340.871 560.023 340.987Z" fill="#7D7BDD"/>
<path d="M532.448 350.16C535.921 349.517 538.216 346.18 537.573 342.707C536.93 339.233 533.593 336.939 530.12 337.581C526.646 338.224 524.351 341.561 524.994 345.035C525.637 348.508 528.974 350.803 532.448 350.16Z" fill="#7D7BDD"/>
<path d="M531.622 345.689C531.155 345.775 530.674 345.721 530.239 345.533C529.803 345.346 529.433 345.034 529.175 344.636C528.917 344.238 528.783 343.773 528.789 343.299C528.795 342.825 528.942 342.363 529.21 341.972L536.462 331.426C536.832 330.926 537.381 330.59 537.994 330.488C538.607 330.385 539.236 330.525 539.748 330.877C540.26 331.229 540.616 331.767 540.74 332.376C540.864 332.985 540.746 333.618 540.412 334.142L533.16 344.689C532.8 345.213 532.247 345.573 531.622 345.689Z" fill="#7D7BDD"/>
<path d="M531.2 379.6C524 379.6 517.1 377.4 511 373.3C503.1 367.9 497.9 359.7 496.1 350.4C494.4 341 496.4 331.5 501.8 323.7C507.2 315.8 515.4 310.6 524.7 308.8C534.1 307.1 543.6 309.1 551.4 314.5C559.3 319.9 564.5 328.1 566.3 337.4C568 346.8 566 356.3 560.6 364.1C555.2 371.9 547 377.2 537.7 379C535.6 379.4 533.4 379.6 531.2 379.6ZM531.3 309.6C529.2 309.6 527.2 309.8 525.1 310.2C516.1 311.9 508.3 316.9 503.1 324.5C497.9 332 496 341.1 497.6 350.1C499.3 359.1 504.3 366.9 511.9 372.1C519.5 377.3 528.5 379.2 537.5 377.6C556.1 374.2 568.4 356.3 564.9 337.7C561.9 321.2 547.5 309.6 531.3 309.6Z" fill="#7D7BDD"/>
<path d="M562.984 287.195C563.766 283.975 567.01 281.998 570.23 282.78L588.75 287.277C589.801 287.533 590.901 287.499 591.934 287.18L603.633 283.571C604.666 283.252 605.766 283.219 606.817 283.474L629.562 288.997C630.612 289.252 631.575 289.787 632.347 290.544L641.087 299.116C641.859 299.874 642.822 300.408 643.873 300.663L662.392 305.16C665.612 305.942 667.589 309.187 666.807 312.407L652.831 369.961C652.049 373.181 648.804 375.158 645.584 374.376L553.422 351.995C550.202 351.214 548.226 347.969 549.008 344.749L562.984 287.195Z" fill="url(#paint21_linear_463_506)"/>
<path d="M562.984 287.195C563.766 283.975 567.01 281.998 570.23 282.78L588.75 287.277C589.801 287.533 590.901 287.499 591.934 287.18L603.633 283.571C604.666 283.252 605.766 283.219 606.817 283.474L629.562 288.997C630.612 289.252 631.575 289.787 632.347 290.544L641.087 299.116C641.859 299.874 642.822 300.408 643.873 300.663L662.392 305.16C665.612 305.942 667.589 309.187 666.807 312.407L664.1 323.553C663.318 326.773 660.074 328.749 656.854 327.967L564.692 305.587C561.472 304.805 559.495 301.561 560.277 298.341L562.984 287.195Z" fill="url(#paint22_linear_463_506)"/>
<g filter="url(#filter27_f_463_506)">
<circle cx="608.624" cy="326.917" r="21.8746" transform="rotate(13.6493 608.624 326.917)" fill="#391800" fill-opacity="0.5"/>
</g>
<circle cx="608.624" cy="326.917" r="20.0101" transform="rotate(13.6493 608.624 326.917)" fill="#3E8AFC"/>
<g filter="url(#filter28_f_463_506)">
<circle cx="608.624" cy="326.917" r="18.5101" transform="rotate(13.6493 608.624 326.917)" stroke="#003078" stroke-opacity="0.4" stroke-width="3"/>
</g>
<circle cx="608.624" cy="326.918" r="20.3886" transform="rotate(13.6493 608.624 326.918)" stroke="#FFE58A" stroke-width="3"/>
<g clip-path="url(#clip0_463_506)">
<g filter="url(#filter29_f_463_506)">
<path d="M702.308 514.983C702.852 520.144 658.262 524.651 593.796 531.454C529.331 538.257 499.398 553.012 494.185 540.851C488.546 527.698 527.451 534.5 591.916 527.697C656.382 520.894 701.763 509.821 702.308 514.983Z" fill="#9795FF" fill-opacity="0.2"/>
</g>
<g filter="url(#filter30_i_463_506)">
<path d="M710.986 438.176C721.16 466.289 708.701 498.038 682.176 511.449C658.511 523.639 631.345 518.479 613.445 501.514L612.438 500.373L520.478 539.607C519.158 540.171 517.555 540.069 516.202 539.338L497.206 528.337C495.445 527.256 494.5 525.042 494.939 523.023L500.143 501.697C500.551 500.214 501.587 498.987 502.907 498.424L521.953 490.298C522.833 489.922 523.807 489.768 524.971 490.057L533.02 491.857C535.033 492.307 537.233 491.369 538.3 489.605L542.131 482.736C542.508 481.79 543.513 481.099 544.393 480.724L554.419 476.447C555.519 475.977 556.808 475.951 557.751 476.333L568.474 480.134C570.895 480.933 573.536 479.806 574.54 477.284L578.431 467.51C578.934 466.249 579.845 465.337 580.945 464.868L594.773 458.968L594.646 457.452C594.599 434.179 608.416 412.318 630.857 402.744C662.537 389.228 699.488 405.132 710.986 438.176ZM673.394 450.027C676.039 456.226 682.957 459.033 689.117 456.404C695.277 453.776 698.039 446.84 695.394 440.64C692.749 434.441 685.831 431.634 679.671 434.263C673.511 436.891 670.749 443.827 673.394 450.027Z" fill="#FFC700"/>
</g>
</g>
<g filter="url(#filter31_i_463_506)">
<path d="M315.835 128.019C315.835 125.257 318.073 123.019 320.835 123.019H381.877C384.639 123.019 386.877 125.257 386.877 128.019V179.374C386.877 182.135 384.639 184.374 381.877 184.374H370.742C369.686 184.374 368.656 184.708 367.802 185.33L354.297 195.152C352.544 196.427 350.168 196.427 348.415 195.152L334.91 185.33C334.056 184.708 333.026 184.374 331.969 184.374H320.835C318.073 184.374 315.835 182.135 315.835 179.374V128.019Z" fill="#FEFCFF"/>
</g>
<g clip-path="url(#clip1_463_506)">
<path d="M358.4 157.051C359.167 157.051 359.85 156.751 360.449 156.153C361.047 155.554 361.347 154.864 361.347 154.081C361.347 153.298 361.047 152.615 360.449 152.032C359.85 151.449 359.167 151.158 358.4 151.158C357.633 151.158 356.95 151.449 356.351 152.032C355.753 152.615 355.454 153.298 355.454 154.081C355.454 154.864 355.753 155.554 356.351 156.153C356.95 156.751 357.633 157.051 358.4 157.051ZM336.67 165.476V167.916V140.292V165.476ZM336.67 170.678C335.964 170.678 335.327 170.402 334.759 169.849C334.191 169.297 333.907 168.652 333.907 167.916V140.292C333.907 139.586 334.191 138.95 334.759 138.382C335.327 137.814 335.964 137.53 336.67 137.53H364.293C365.03 137.53 365.674 137.814 366.227 138.382C366.779 138.95 367.055 139.586 367.055 140.292V146.462H364.293V140.292H336.67V167.916H364.293V161.793H367.055V167.916C367.055 168.652 366.779 169.297 366.227 169.849C365.674 170.402 365.03 170.678 364.293 170.678H336.67ZM353.152 162.713C352.108 162.713 351.279 162.406 350.666 161.793C350.052 161.179 349.745 160.365 349.745 159.353V148.902C349.745 147.858 350.052 147.037 350.666 146.439C351.279 145.84 352.108 145.541 353.152 145.541H365.582C366.626 145.541 367.454 145.84 368.068 146.439C368.682 147.037 368.989 147.858 368.989 148.902V159.353C368.989 160.365 368.682 161.179 368.068 161.793C367.454 162.406 366.626 162.713 365.582 162.713H353.152ZM366.227 159.951V148.303H352.507V159.951H366.227Z" fill="#00D809"/>
</g>
<g filter="url(#filter32_i_463_506)">
<path d="M250 42.6072C250 39.8458 252.239 37.6072 255 37.6072H316.042C318.804 37.6072 321.042 39.8458 321.042 42.6072V93.9619C321.042 96.7233 318.804 98.9619 316.042 98.9619H304.908C303.851 98.9619 302.821 99.2967 301.967 99.9182L288.462 109.74C286.709 111.015 284.334 111.015 282.58 109.74L269.076 99.9182C268.221 99.2967 267.191 98.9619 266.135 98.9619H255C252.239 98.9619 250 96.7233 250 93.9619V42.6072Z" fill="#FEFCFF"/>
</g>
<path d="M267.009 83.3862V80.0973H271.614V63.3238C271.614 60.2542 272.518 57.5225 274.327 55.1289C276.136 52.7353 278.52 51.2279 281.481 50.6067V49.017C281.481 48.1765 281.782 47.4822 282.385 46.934C282.988 46.3859 283.71 46.1118 284.55 46.1118C285.391 46.1118 286.112 46.3859 286.715 46.934C287.318 47.4822 287.62 48.1765 287.62 49.017V50.6067C290.58 51.2279 292.973 52.7353 294.801 55.1289C296.628 57.5225 297.541 60.2542 297.541 63.3238V80.0973H302.091V83.3862H267.009ZM284.55 89.964C283.381 89.964 282.358 89.5347 281.481 88.6759C280.603 87.8171 280.165 86.7848 280.165 85.5788H288.935C288.935 86.7848 288.506 87.8171 287.647 88.6759C286.788 89.5347 285.756 89.964 284.55 89.964ZM274.903 80.0973H294.252V63.3238C294.252 60.6196 293.321 58.3174 291.457 56.4171C289.593 54.5168 287.309 53.5667 284.605 53.5667C281.901 53.5667 279.608 54.5168 277.726 56.4171C275.844 58.3174 274.903 60.6196 274.903 63.3238V80.0973Z" fill="#FFC700"/>
<g filter="url(#filter33_i_463_506)">
<path d="M368 5C368 2.23858 370.239 0 373 0H434.042C436.804 0 439.042 2.23858 439.042 5V56.3547C439.042 59.1161 436.804 61.3547 434.042 61.3547H422.908C421.851 61.3547 420.821 61.6895 419.967 62.311L406.462 72.1327C404.709 73.4078 402.334 73.4078 400.58 72.1327L387.076 62.311C386.221 61.6895 385.191 61.3547 384.135 61.3547H373C370.239 61.3547 368 59.1161 368 56.3547V5Z" fill="#FEFCFF"/>
</g>
<path d="M407.673 41.6994C406.48 41.6994 405.474 41.2875 404.655 40.4635C403.837 39.6396 403.427 38.631 403.427 37.4377C403.427 36.2445 403.839 35.2385 404.663 34.42C405.487 33.6014 406.496 33.1921 407.689 33.1921C408.882 33.1921 409.888 33.6041 410.707 34.428C411.525 35.2519 411.935 36.2605 411.935 37.4538C411.935 38.6471 411.523 39.653 410.699 40.4716C409.875 41.2901 408.866 41.6994 407.673 41.6994ZM389.395 47.8387C388.693 47.8387 388.079 47.5756 387.553 47.0494C387.027 46.5232 386.763 45.9092 386.763 45.2076V18.0192C386.763 17.3176 387.027 16.7037 387.553 16.1774C388.079 15.6512 388.693 15.3881 389.395 15.3881H392.245V12.757H395.095V15.3881H410.005V12.757H412.856V15.3881H415.706C416.408 15.3881 417.022 15.6512 417.548 16.1774C418.074 16.7037 418.337 17.3176 418.337 18.0192V45.2076C418.337 45.9092 418.074 46.5232 417.548 47.0494C417.022 47.5756 416.408 47.8387 415.706 47.8387H389.395ZM389.395 45.2076H415.706V26.3511H389.395V45.2076ZM389.395 23.72H415.706V18.0192H389.395V23.72Z" fill="#9795FF"/>
<path d="M220.731 211.305C220.731 208.543 218.493 206.305 215.731 206.305H146C143.239 206.305 141 208.543 141 211.305V254.459C141 257.22 143.239 259.459 146 259.459H179.41C180.361 259.459 181.292 259.73 182.094 260.241L192.799 267.053C194.437 268.095 196.53 268.095 198.167 267.053L208.872 260.241C209.674 259.73 210.606 259.459 211.556 259.459H215.731C218.493 259.459 220.731 257.22 220.731 254.459V211.305Z" fill="#FFAD61"/>
<rect x="146.315" y="216.937" width="29.2348" height="5.31542" rx="0.5" fill="white"/>
<rect x="146.315" y="227.567" width="58.4696" height="5.31542" rx="0.5" fill="white"/>
<rect x="146.315" y="238.197" width="63.7851" height="5.31542" rx="0.5" fill="white"/>
<rect x="180.865" y="216.937" width="10.6308" height="5.31542" rx="0.5" fill="white"/>
<path d="M771.802 261.107C771.802 258.346 774.04 256.107 776.802 256.107H822.533C825.295 256.107 827.533 258.346 827.533 261.107V288.261C827.533 291.023 825.295 293.261 822.533 293.261H801.123C800.173 293.261 799.241 293.533 798.439 294.043L792.134 298.055C790.497 299.097 788.403 299.097 786.766 298.055L780.461 294.043C779.659 293.533 778.728 293.261 777.777 293.261H776.802C774.04 293.261 771.802 291.023 771.802 288.261V261.107Z" fill="#3E8AFC"/>
<rect x="775.517" y="263.539" width="20.4348" height="3.71542" rx="0.5" fill="white"/>
<rect x="775.517" y="270.969" width="40.8696" height="3.71542" rx="0.5" fill="white"/>
<rect x="775.517" y="278.4" width="44.5851" height="3.71542" rx="0.5" fill="white"/>
<rect x="799.667" y="263.539" width="7.43084" height="3.71542" rx="0.5" fill="white"/>
<defs>
<filter id="filter0_f_463_506" x="0" y="445.97" width="77.9111" height="17.8322" filterUnits="userSpaceOnUse" color-interpolation-filters="sRGB">
<feFlood flood-opacity="0" result="BackgroundImageFix"/>
<feBlend mode="normal" in="SourceGraphic" in2="BackgroundImageFix" result="shape"/>
<feGaussianBlur stdDeviation="3" result="effect1_foregroundBlur_463_506"/>
</filter>
<filter id="filter1_i_463_506" x="228.331" y="284.193" width="18.5117" height="38.4302" filterUnits="userSpaceOnUse" color-interpolation-filters="sRGB">
<feFlood flood-opacity="0" result="BackgroundImageFix"/>
<feBlend mode="normal" in="SourceGraphic" in2="BackgroundImageFix" result="shape"/>
<feColorMatrix in="SourceAlpha" type="matrix" values="0 0 0 0 0 0 0 0 0 0 0 0 0 0 0 0 0 0 127 0" result="hardAlpha"/>
<feOffset dx="-1" dy="-1"/>
<feGaussianBlur stdDeviation="2"/>
<feComposite in2="hardAlpha" operator="arithmetic" k2="-1" k3="1"/>
<feColorMatrix type="matrix" values="0 0 0 0 1 0 0 0 0 1 0 0 0 0 1 0 0 0 0.4 0"/>
<feBlend mode="normal" in2="shape" result="effect1_innerShadow_463_506"/>
</filter>
<filter id="filter2_i_463_506" x="224.646" y="302.186" width="20.5867" height="20.2012" filterUnits="userSpaceOnUse" color-interpolation-filters="sRGB">
<feFlood flood-opacity="0" result="BackgroundImageFix"/>
<feBlend mode="normal" in="SourceGraphic" in2="BackgroundImageFix" result="shape"/>
<feColorMatrix in="SourceAlpha" type="matrix" values="0 0 0 0 0 0 0 0 0 0 0 0 0 0 0 0 0 0 127 0" result="hardAlpha"/>
<feOffset dx="-1" dy="-1"/>
<feGaussianBlur stdDeviation="2"/>
<feComposite in2="hardAlpha" operator="arithmetic" k2="-1" k3="1"/>
<feColorMatrix type="matrix" values="0 0 0 0 1 0 0 0 0 1 0 0 0 0 1 0 0 0 0.4 0"/>
<feBlend mode="normal" in2="shape" result="effect1_innerShadow_463_506"/>
</filter>
<filter id="filter3_ii_463_506" x="241.409" y="276.981" width="45.9336" height="49.3563" filterUnits="userSpaceOnUse" color-interpolation-filters="sRGB">
<feFlood flood-opacity="0" result="BackgroundImageFix"/>
<feBlend mode="normal" in="SourceGraphic" in2="BackgroundImageFix" result="shape"/>
<feColorMatrix in="SourceAlpha" type="matrix" values="0 0 0 0 0 0 0 0 0 0 0 0 0 0 0 0 0 0 127 0" result="hardAlpha"/>
<feOffset dy="2"/>
<feGaussianBlur stdDeviation="2"/>
<feComposite in2="hardAlpha" operator="arithmetic" k2="-1" k3="1"/>
<feColorMatrix type="matrix" values="0 0 0 0 1 0 0 0 0 1 0 0 0 0 1 0 0 0 0.25 0"/>
<feBlend mode="normal" in2="shape" result="effect1_innerShadow_463_506"/>
<feColorMatrix in="SourceAlpha" type="matrix" values="0 0 0 0 0 0 0 0 0 0 0 0 0 0 0 0 0 0 127 0" result="hardAlpha"/>
<feOffset/>
<feGaussianBlur stdDeviation="2"/>
<feComposite in2="hardAlpha" operator="arithmetic" k2="-1" k3="1"/>
<feColorMatrix type="matrix" values="0 0 0 0 1 0 0 0 0 1 0 0 0 0 1 0 0 0 0.25 0"/>
<feBlend mode="normal" in2="effect1_innerShadow_463_506" result="effect2_innerShadow_463_506"/>
</filter>
<filter id="filter4_f_463_506" x="220.606" y="312.13" width="77.3937" height="25.1654" filterUnits="userSpaceOnUse" color-interpolation-filters="sRGB">
<feFlood flood-opacity="0" result="BackgroundImageFix"/>
<feBlend mode="normal" in="SourceGraphic" in2="BackgroundImageFix" result="shape"/>
<feGaussianBlur stdDeviation="5" result="effect1_foregroundBlur_463_506"/>
</filter>
<filter id="filter5_i_463_506" x="577.924" y="259.503" width="119.911" height="154.79" filterUnits="userSpaceOnUse" color-interpolation-filters="sRGB">
<feFlood flood-opacity="0" result="BackgroundImageFix"/>
<feBlend mode="normal" in="SourceGraphic" in2="BackgroundImageFix" result="shape"/>
<feColorMatrix in="SourceAlpha" type="matrix" values="0 0 0 0 0 0 0 0 0 0 0 0 0 0 0 0 0 0 127 0" result="hardAlpha"/>
<feOffset dx="-1" dy="-1"/>
<feGaussianBlur stdDeviation="2"/>
<feComposite in2="hardAlpha" operator="arithmetic" k2="-1" k3="1"/>
<feColorMatrix type="matrix" values="0 0 0 0 1 0 0 0 0 1 0 0 0 0 1 0 0 0 0.4 0"/>
<feBlend mode="normal" in2="shape" result="effect1_innerShadow_463_506"/>
</filter>
<filter id="filter6_i_463_506" x="554.548" y="182.401" width="100.66" height="242.937" filterUnits="userSpaceOnUse" color-interpolation-filters="sRGB">
<feFlood flood-opacity="0" result="BackgroundImageFix"/>
<feBlend mode="normal" in="SourceGraphic" in2="BackgroundImageFix" result="shape"/>
<feColorMatrix in="SourceAlpha" type="matrix" values="0 0 0 0 0 0 0 0 0 0 0 0 0 0 0 0 0 0 127 0" result="hardAlpha"/>
<feOffset dx="-1" dy="-1"/>
<feGaussianBlur stdDeviation="2"/>
<feComposite in2="hardAlpha" operator="arithmetic" k2="-1" k3="1"/>
<feColorMatrix type="matrix" values="0 0 0 0 1 0 0 0 0 1 0 0 0 0 1 0 0 0 0.4 0"/>
<feBlend mode="normal" in2="shape" result="effect1_innerShadow_463_506"/>
</filter>
<filter id="filter7_ii_463_506" x="328.119" y="169.238" width="254.604" height="266.213" filterUnits="userSpaceOnUse" color-interpolation-filters="sRGB">
<feFlood flood-opacity="0" result="BackgroundImageFix"/>
<feBlend mode="normal" in="SourceGraphic" in2="BackgroundImageFix" result="shape"/>
<feColorMatrix in="SourceAlpha" type="matrix" values="0 0 0 0 0 0 0 0 0 0 0 0 0 0 0 0 0 0 127 0" result="hardAlpha"/>
<feOffset dy="2"/>
<feGaussianBlur stdDeviation="2"/>
<feComposite in2="hardAlpha" operator="arithmetic" k2="-1" k3="1"/>
<feColorMatrix type="matrix" values="0 0 0 0 1 0 0 0 0 1 0 0 0 0 1 0 0 0 0.25 0"/>
<feBlend mode="normal" in2="shape" result="effect1_innerShadow_463_506"/>
<feColorMatrix in="SourceAlpha" type="matrix" values="0 0 0 0 0 0 0 0 0 0 0 0 0 0 0 0 0 0 127 0" result="hardAlpha"/>
<feOffset/>
<feGaussianBlur stdDeviation="2"/>
<feComposite in2="hardAlpha" operator="arithmetic" k2="-1" k3="1"/>
<feColorMatrix type="matrix" values="0 0 0 0 1 0 0 0 0 1 0 0 0 0 1 0 0 0 0.25 0"/>
<feBlend mode="normal" in2="effect1_innerShadow_463_506" result="effect2_innerShadow_463_506"/>
</filter>
<filter id="filter8_f_463_506" x="318.592" y="410.682" width="337.862" height="43.3878" filterUnits="userSpaceOnUse" color-interpolation-filters="sRGB">
<feFlood flood-opacity="0" result="BackgroundImageFix"/>
<feBlend mode="normal" in="SourceGraphic" in2="BackgroundImageFix" result="shape"/>
<feGaussianBlur stdDeviation="5" result="effect1_foregroundBlur_463_506"/>
</filter>
<filter id="filter9_i_463_506" x="219.153" y="330.505" width="58.5607" height="144.279" filterUnits="userSpaceOnUse" color-interpolation-filters="sRGB">
<feFlood flood-opacity="0" result="BackgroundImageFix"/>
<feBlend mode="normal" in="SourceGraphic" in2="BackgroundImageFix" result="shape"/>
<feColorMatrix in="SourceAlpha" type="matrix" values="0 0 0 0 0 0 0 0 0 0 0 0 0 0 0 0 0 0 127 0" result="hardAlpha"/>
<feOffset dx="-1" dy="-1"/>
<feGaussianBlur stdDeviation="2"/>
<feComposite in2="hardAlpha" operator="arithmetic" k2="-1" k3="1"/>
<feColorMatrix type="matrix" values="0 0 0 0 1 0 0 0 0 1 0 0 0 0 1 0 0 0 0.4 0"/>
<feBlend mode="normal" in2="shape" result="effect1_innerShadow_463_506"/>
</filter>
<filter id="filter10_i_463_506" x="201.845" y="399.472" width="73.5599" height="72.1311" filterUnits="userSpaceOnUse" color-interpolation-filters="sRGB">
<feFlood flood-opacity="0" result="BackgroundImageFix"/>
<feBlend mode="normal" in="SourceGraphic" in2="BackgroundImageFix" result="shape"/>
<feColorMatrix in="SourceAlpha" type="matrix" values="0 0 0 0 0 0 0 0 0 0 0 0 0 0 0 0 0 0 127 0" result="hardAlpha"/>
<feOffset dx="-1" dy="-1"/>
<feGaussianBlur stdDeviation="2"/>
<feComposite in2="hardAlpha" operator="arithmetic" k2="-1" k3="1"/>
<feColorMatrix type="matrix" values="0 0 0 0 1 0 0 0 0 1 0 0 0 0 1 0 0 0 0.4 0"/>
<feBlend mode="normal" in2="shape" result="effect1_innerShadow_463_506"/>
</filter>
<filter id="filter11_ii_463_506" x="261.239" y="303.59" width="170.163" height="177.549" filterUnits="userSpaceOnUse" color-interpolation-filters="sRGB">
<feFlood flood-opacity="0" result="BackgroundImageFix"/>
<feBlend mode="normal" in="SourceGraphic" in2="BackgroundImageFix" result="shape"/>
<feColorMatrix in="SourceAlpha" type="matrix" values="0 0 0 0 0 0 0 0 0 0 0 0 0 0 0 0 0 0 127 0" result="hardAlpha"/>
<feOffset dy="2"/>
<feGaussianBlur stdDeviation="2"/>
<feComposite in2="hardAlpha" operator="arithmetic" k2="-1" k3="1"/>
<feColorMatrix type="matrix" values="0 0 0 0 1 0 0 0 0 1 0 0 0 0 1 0 0 0 0.25 0"/>
<feBlend mode="normal" in2="shape" result="effect1_innerShadow_463_506"/>
<feColorMatrix in="SourceAlpha" type="matrix" values="0 0 0 0 0 0 0 0 0 0 0 0 0 0 0 0 0 0 127 0" result="hardAlpha"/>
<feOffset/>
<feGaussianBlur stdDeviation="2"/>
<feComposite in2="hardAlpha" operator="arithmetic" k2="-1" k3="1"/>
<feColorMatrix type="matrix" values="0 0 0 0 1 0 0 0 0 1 0 0 0 0 1 0 0 0 0.25 0"/>
<feBlend mode="normal" in2="effect1_innerShadow_463_506" result="effect2_innerShadow_463_506"/>
</filter>
<filter id="filter12_f_463_506" x="211.22" y="460.959" width="232.617" height="39.1355" filterUnits="userSpaceOnUse" color-interpolation-filters="sRGB">
<feFlood flood-opacity="0" result="BackgroundImageFix"/>
<feBlend mode="normal" in="SourceGraphic" in2="BackgroundImageFix" result="shape"/>
<feGaussianBlur stdDeviation="5" result="effect1_foregroundBlur_463_506"/>
</filter>
<filter id="filter13_i_463_506" x="46.6151" y="313.388" width="35.889" height="89.0042" filterUnits="userSpaceOnUse" color-interpolation-filters="sRGB">
<feFlood flood-opacity="0" result="BackgroundImageFix"/>
<feBlend mode="normal" in="SourceGraphic" in2="BackgroundImageFix" result="shape"/>
<feColorMatrix in="SourceAlpha" type="matrix" values="0 0 0 0 0 0 0 0 0 0 0 0 0 0 0 0 0 0 127 0" result="hardAlpha"/>
<feOffset dx="-1" dy="-1"/>
<feGaussianBlur stdDeviation="2"/>
<feComposite in2="hardAlpha" operator="arithmetic" k2="-1" k3="1"/>
<feColorMatrix type="matrix" values="0 0 0 0 1 0 0 0 0 1 0 0 0 0 1 0 0 0 0.4 0"/>
<feBlend mode="normal" in2="shape" result="effect1_innerShadow_463_506"/>
</filter>
<filter id="filter14_i_463_506" x="35.8284" y="355.753" width="45.4462" height="44.5709" filterUnits="userSpaceOnUse" color-interpolation-filters="sRGB">
<feFlood flood-opacity="0" result="BackgroundImageFix"/>
<feBlend mode="normal" in="SourceGraphic" in2="BackgroundImageFix" result="shape"/>
<feColorMatrix in="SourceAlpha" type="matrix" values="0 0 0 0 0 0 0 0 0 0 0 0 0 0 0 0 0 0 127 0" result="hardAlpha"/>
<feOffset dx="-1" dy="-1"/>
<feGaussianBlur stdDeviation="2"/>
<feComposite in2="hardAlpha" operator="arithmetic" k2="-1" k3="1"/>
<feColorMatrix type="matrix" values="0 0 0 0 1 0 0 0 0 1 0 0 0 0 1 0 0 0 0.4 0"/>
<feBlend mode="normal" in2="shape" result="effect1_innerShadow_463_506"/>
</filter>
<filter id="filter15_ii_463_506" x="72.5973" y="297.178" width="104.232" height="109.571" filterUnits="userSpaceOnUse" color-interpolation-filters="sRGB">
<feFlood flood-opacity="0" result="BackgroundImageFix"/>
<feBlend mode="normal" in="SourceGraphic" in2="BackgroundImageFix" result="shape"/>
<feColorMatrix in="SourceAlpha" type="matrix" values="0 0 0 0 0 0 0 0 0 0 0 0 0 0 0 0 0 0 127 0" result="hardAlpha"/>
<feOffset dy="2"/>
<feGaussianBlur stdDeviation="2"/>
<feComposite in2="hardAlpha" operator="arithmetic" k2="-1" k3="1"/>
<feColorMatrix type="matrix" values="0 0 0 0 1 0 0 0 0 1 0 0 0 0 1 0 0 0 0.25 0"/>
<feBlend mode="normal" in2="shape" result="effect1_innerShadow_463_506"/>
<feColorMatrix in="SourceAlpha" type="matrix" values="0 0 0 0 0 0 0 0 0 0 0 0 0 0 0 0 0 0 127 0" result="hardAlpha"/>
<feOffset/>
<feGaussianBlur stdDeviation="2"/>
<feComposite in2="hardAlpha" operator="arithmetic" k2="-1" k3="1"/>
<feColorMatrix type="matrix" values="0 0 0 0 1 0 0 0 0 1 0 0 0 0 1 0 0 0 0.25 0"/>
<feBlend mode="normal" in2="effect1_innerShadow_463_506" result="effect2_innerShadow_463_506"/>
</filter>
<filter id="filter16_f_463_506" x="38.0841" y="389.738" width="150.237" height="31.7213" filterUnits="userSpaceOnUse" color-interpolation-filters="sRGB">
<feFlood flood-opacity="0" result="BackgroundImageFix"/>
<feBlend mode="normal" in="SourceGraphic" in2="BackgroundImageFix" result="shape"/>
<feGaussianBlur stdDeviation="5" result="effect1_foregroundBlur_463_506"/>
</filter>
<filter id="filter17_i_463_506" x="898.3" y="333.147" width="23.7461" height="49.6183" filterUnits="userSpaceOnUse" color-interpolation-filters="sRGB">
<feFlood flood-opacity="0" result="BackgroundImageFix"/>
<feBlend mode="normal" in="SourceGraphic" in2="BackgroundImageFix" result="shape"/>
<feColorMatrix in="SourceAlpha" type="matrix" values="0 0 0 0 0 0 0 0 0 0 0 0 0 0 0 0 0 0 127 0" result="hardAlpha"/>
<feOffset dx="-1" dy="-1"/>
<feGaussianBlur stdDeviation="2"/>
<feComposite in2="hardAlpha" operator="arithmetic" k2="-1" k3="1"/>
<feColorMatrix type="matrix" values="0 0 0 0 1 0 0 0 0 1 0 0 0 0 1 0 0 0 0.4 0"/>
<feBlend mode="normal" in2="shape" result="effect1_innerShadow_463_506"/>
</filter>
<filter id="filter18_i_463_506" x="900.391" y="356.519" width="26.4413" height="25.9404" filterUnits="userSpaceOnUse" color-interpolation-filters="sRGB">
<feFlood flood-opacity="0" result="BackgroundImageFix"/>
<feBlend mode="normal" in="SourceGraphic" in2="BackgroundImageFix" result="shape"/>
<feColorMatrix in="SourceAlpha" type="matrix" values="0 0 0 0 0 0 0 0 0 0 0 0 0 0 0 0 0 0 127 0" result="hardAlpha"/>
<feOffset dx="-1" dy="-1"/>
<feGaussianBlur stdDeviation="2"/>
<feComposite in2="hardAlpha" operator="arithmetic" k2="-1" k3="1"/>
<feColorMatrix type="matrix" values="0 0 0 0 1 0 0 0 0 1 0 0 0 0 1 0 0 0 0.4 0"/>
<feBlend mode="normal" in2="shape" result="effect1_innerShadow_463_506"/>
</filter>
<filter id="filter19_ii_463_506" x="846.695" y="323.594" width="59.6634" height="63.3978" filterUnits="userSpaceOnUse" color-interpolation-filters="sRGB">
<feFlood flood-opacity="0" result="BackgroundImageFix"/>
<feBlend mode="normal" in="SourceGraphic" in2="BackgroundImageFix" result="shape"/>
<feColorMatrix in="SourceAlpha" type="matrix" values="0 0 0 0 0 0 0 0 0 0 0 0 0 0 0 0 0 0 127 0" result="hardAlpha"/>
<feOffset dy="2"/>
<feGaussianBlur stdDeviation="2"/>
<feComposite in2="hardAlpha" operator="arithmetic" k2="-1" k3="1"/>
<feColorMatrix type="matrix" values="0 0 0 0 1 0 0 0 0 1 0 0 0 0 1 0 0 0 0.25 0"/>
<feBlend mode="normal" in2="shape" result="effect1_innerShadow_463_506"/>
<feColorMatrix in="SourceAlpha" type="matrix" values="0 0 0 0 0 0 0 0 0 0 0 0 0 0 0 0 0 0 127 0" result="hardAlpha"/>
<feOffset/>
<feGaussianBlur stdDeviation="2"/>
<feComposite in2="hardAlpha" operator="arithmetic" k2="-1" k3="1"/>
<feColorMatrix type="matrix" values="0 0 0 0 1 0 0 0 0 1 0 0 0 0 1 0 0 0 0.25 0"/>
<feBlend mode="normal" in2="effect1_innerShadow_463_506" result="effect2_innerShadow_463_506"/>
</filter>
<filter id="filter20_f_463_506" x="835.841" y="372.124" width="94.5489" height="26.7094" filterUnits="userSpaceOnUse" color-interpolation-filters="sRGB">
<feFlood flood-opacity="0" result="BackgroundImageFix"/>
<feBlend mode="normal" in="SourceGraphic" in2="BackgroundImageFix" result="shape"/>
<feGaussianBlur stdDeviation="5" result="effect1_foregroundBlur_463_506"/>
</filter>
<filter id="filter21_i_463_506" x="797.007" y="329.755" width="33.7488" height="79.8789" filterUnits="userSpaceOnUse" color-interpolation-filters="sRGB">
<feFlood flood-opacity="0" result="BackgroundImageFix"/>
<feBlend mode="normal" in="SourceGraphic" in2="BackgroundImageFix" result="shape"/>
<feColorMatrix in="SourceAlpha" type="matrix" values="0 0 0 0 0 0 0 0 0 0 0 0 0 0 0 0 0 0 127 0" result="hardAlpha"/>
<feOffset dx="-1" dy="-1"/>
<feGaussianBlur stdDeviation="2"/>
<feComposite in2="hardAlpha" operator="arithmetic" k2="-1" k3="1"/>
<feColorMatrix type="matrix" values="0 0 0 0 1 0 0 0 0 1 0 0 0 0 1 0 0 0 0.4 0"/>
<feBlend mode="normal" in2="shape" result="effect1_innerShadow_463_506"/>
</filter>
<filter id="filter22_i_463_506" x="798.708" y="367.713" width="41.2206" height="40.4286" filterUnits="userSpaceOnUse" color-interpolation-filters="sRGB">
<feFlood flood-opacity="0" result="BackgroundImageFix"/>
<feBlend mode="normal" in="SourceGraphic" in2="BackgroundImageFix" result="shape"/>
<feColorMatrix in="SourceAlpha" type="matrix" values="0 0 0 0 0 0 0 0 0 0 0 0 0 0 0 0 0 0 127 0" result="hardAlpha"/>
<feOffset dx="-1" dy="-1"/>
<feGaussianBlur stdDeviation="2"/>
<feComposite in2="hardAlpha" operator="arithmetic" k2="-1" k3="1"/>
<feColorMatrix type="matrix" values="0 0 0 0 1 0 0 0 0 1 0 0 0 0 1 0 0 0 0.4 0"/>
<feBlend mode="normal" in2="shape" result="effect1_innerShadow_463_506"/>
</filter>
<filter id="filter23_ii_463_506" x="713.238" y="314.98" width="94.3226" height="99.1659" filterUnits="userSpaceOnUse" color-interpolation-filters="sRGB">
<feFlood flood-opacity="0" result="BackgroundImageFix"/>
<feBlend mode="normal" in="SourceGraphic" in2="BackgroundImageFix" result="shape"/>
<feColorMatrix in="SourceAlpha" type="matrix" values="0 0 0 0 0 0 0 0 0 0 0 0 0 0 0 0 0 0 127 0" result="hardAlpha"/>
<feOffset dy="2"/>
<feGaussianBlur stdDeviation="2"/>
<feComposite in2="hardAlpha" operator="arithmetic" k2="-1" k3="1"/>
<feColorMatrix type="matrix" values="0 0 0 0 1 0 0 0 0 1 0 0 0 0 1 0 0 0 0.25 0"/>
<feBlend mode="normal" in2="shape" result="effect1_innerShadow_463_506"/>
<feColorMatrix in="SourceAlpha" type="matrix" values="0 0 0 0 0 0 0 0 0 0 0 0 0 0 0 0 0 0 127 0" result="hardAlpha"/>
<feOffset/>
<feGaussianBlur stdDeviation="2"/>
<feComposite in2="hardAlpha" operator="arithmetic" k2="-1" k3="1"/>
<feColorMatrix type="matrix" values="0 0 0 0 1 0 0 0 0 1 0 0 0 0 1 0 0 0 0.25 0"/>
<feBlend mode="normal" in2="effect1_innerShadow_463_506" result="effect2_innerShadow_463_506"/>
</filter>
<filter id="filter24_f_463_506" x="701.888" y="397.612" width="137.855" height="30.6069" filterUnits="userSpaceOnUse" color-interpolation-filters="sRGB">
<feFlood flood-opacity="0" result="BackgroundImageFix"/>
<feBlend mode="normal" in="SourceGraphic" in2="BackgroundImageFix" result="shape"/>
<feGaussianBlur stdDeviation="5" result="effect1_foregroundBlur_463_506"/>
</filter>
<filter id="filter25_di_463_506" x="408.651" y="228.276" width="159.017" height="171.608" filterUnits="userSpaceOnUse" color-interpolation-filters="sRGB">
<feFlood flood-opacity="0" result="BackgroundImageFix"/>
<feColorMatrix in="SourceAlpha" type="matrix" values="0 0 0 0 0 0 0 0 0 0 0 0 0 0 0 0 0 0 127 0" result="hardAlpha"/>
<feOffset dx="-6" dy="-1"/>
<feGaussianBlur stdDeviation="2"/>
<feComposite in2="hardAlpha" operator="out"/>
<feColorMatrix type="matrix" values="0 0 0 0 0.165208 0 0 0 0 0.0494792 0 0 0 0 0.3125 0 0 0 0.15 0"/>
<feBlend mode="normal" in2="BackgroundImageFix" result="effect1_dropShadow_463_506"/>
<feBlend mode="normal" in="SourceGraphic" in2="effect1_dropShadow_463_506" result="shape"/>
<feColorMatrix in="SourceAlpha" type="matrix" values="0 0 0 0 0 0 0 0 0 0 0 0 0 0 0 0 0 0 127 0" result="hardAlpha"/>
<feOffset/>
<feGaussianBlur stdDeviation="2"/>
<feComposite in2="hardAlpha" operator="arithmetic" k2="-1" k3="1"/>
<feColorMatrix type="matrix" values="0 0 0 0 1 0 0 0 0 1 0 0 0 0 1 0 0 0 0.25 0"/>
<feBlend mode="normal" in2="shape" result="effect2_innerShadow_463_506"/>
</filter>
<filter id="filter26_di_463_506" x="454.042" y="244.892" width="138.272" height="159.639" filterUnits="userSpaceOnUse" color-interpolation-filters="sRGB">
<feFlood flood-opacity="0" result="BackgroundImageFix"/>
<feColorMatrix in="SourceAlpha" type="matrix" values="0 0 0 0 0 0 0 0 0 0 0 0 0 0 0 0 0 0 127 0" result="hardAlpha"/>
<feOffset dx="-4" dy="-1"/>
<feGaussianBlur stdDeviation="2"/>
<feComposite in2="hardAlpha" operator="out"/>
<feColorMatrix type="matrix" values="0 0 0 0 0.165208 0 0 0 0 0.0494792 0 0 0 0 0.3125 0 0 0 0.15 0"/>
<feBlend mode="normal" in2="BackgroundImageFix" result="effect1_dropShadow_463_506"/>
<feBlend mode="normal" in="SourceGraphic" in2="effect1_dropShadow_463_506" result="shape"/>
<feColorMatrix in="SourceAlpha" type="matrix" values="0 0 0 0 0 0 0 0 0 0 0 0 0 0 0 0 0 0 127 0" result="hardAlpha"/>
<feOffset/>
<feGaussianBlur stdDeviation="2"/>
<feComposite in2="hardAlpha" operator="arithmetic" k2="-1" k3="1"/>
<feColorMatrix type="matrix" values="0 0 0 0 1 0 0 0 0 1 0 0 0 0 1 0 0 0 0.25 0"/>
<feBlend mode="normal" in2="shape" result="effect2_innerShadow_463_506"/>
</filter>
<filter id="filter27_f_463_506" x="582.745" y="301.038" width="51.7593" height="51.7593" filterUnits="userSpaceOnUse" color-interpolation-filters="sRGB">
<feFlood flood-opacity="0" result="BackgroundImageFix"/>
<feBlend mode="normal" in="SourceGraphic" in2="BackgroundImageFix" result="shape"/>
<feGaussianBlur stdDeviation="2" result="effect1_foregroundBlur_463_506"/>
</filter>
<filter id="filter28_f_463_506" x="585.61" y="303.903" width="46.0294" height="46.0293" filterUnits="userSpaceOnUse" color-interpolation-filters="sRGB">
<feFlood flood-opacity="0" result="BackgroundImageFix"/>
<feBlend mode="normal" in="SourceGraphic" in2="BackgroundImageFix" result="shape"/>
<feGaussianBlur stdDeviation="1.5" result="effect1_foregroundBlur_463_506"/>
</filter>
<filter id="filter29_f_463_506" x="484.545" y="504.554" width="226.868" height="50.0488" filterUnits="userSpaceOnUse" color-interpolation-filters="sRGB">
<feFlood flood-opacity="0" result="BackgroundImageFix"/>
<feBlend mode="normal" in="SourceGraphic" in2="BackgroundImageFix" result="shape"/>
<feGaussianBlur stdDeviation="4.55" result="effect1_foregroundBlur_463_506"/>
</filter>
<filter id="filter30_i_463_506" x="492.832" y="396.926" width="221.688" height="143.042" filterUnits="userSpaceOnUse" color-interpolation-filters="sRGB">
<feFlood flood-opacity="0" result="BackgroundImageFix"/>
<feBlend mode="normal" in="SourceGraphic" in2="BackgroundImageFix" result="shape"/>
<feColorMatrix in="SourceAlpha" type="matrix" values="0 0 0 0 0 0 0 0 0 0 0 0 0 0 0 0 0 0 127 0" result="hardAlpha"/>
<feOffset dx="-2" dy="-1"/>
<feGaussianBlur stdDeviation="1"/>
<feComposite in2="hardAlpha" operator="arithmetic" k2="-1" k3="1"/>
<feColorMatrix type="matrix" values="0 0 0 0 1 0 0 0 0 1 0 0 0 0 1 0 0 0 0.5 0"/>
<feBlend mode="normal" in2="shape" result="effect1_innerShadow_463_506"/>
</filter>
<filter id="filter31_i_463_506" x="314.835" y="122.019" width="72.0423" height="74.089" filterUnits="userSpaceOnUse" color-interpolation-filters="sRGB">
<feFlood flood-opacity="0" result="BackgroundImageFix"/>
<feBlend mode="normal" in="SourceGraphic" in2="BackgroundImageFix" result="shape"/>
<feColorMatrix in="SourceAlpha" type="matrix" values="0 0 0 0 0 0 0 0 0 0 0 0 0 0 0 0 0 0 127 0" result="hardAlpha"/>
<feOffset dx="-1" dy="-1"/>
<feGaussianBlur stdDeviation="1"/>
<feComposite in2="hardAlpha" operator="arithmetic" k2="-1" k3="1"/>
<feColorMatrix type="matrix" values="0 0 0 0 0.932833 0 0 0 0 0.741667 0 0 0 0 1 0 0 0 0.25 0"/>
<feBlend mode="normal" in2="shape" result="effect1_innerShadow_463_506"/>
</filter>
<filter id="filter32_i_463_506" x="249" y="36.6072" width="72.0424" height="74.089" filterUnits="userSpaceOnUse" color-interpolation-filters="sRGB">
<feFlood flood-opacity="0" result="BackgroundImageFix"/>
<feBlend mode="normal" in="SourceGraphic" in2="BackgroundImageFix" result="shape"/>
<feColorMatrix in="SourceAlpha" type="matrix" values="0 0 0 0 0 0 0 0 0 0 0 0 0 0 0 0 0 0 127 0" result="hardAlpha"/>
<feOffset dx="-1" dy="-1"/>
<feGaussianBlur stdDeviation="1"/>
<feComposite in2="hardAlpha" operator="arithmetic" k2="-1" k3="1"/>
<feColorMatrix type="matrix" values="0 0 0 0 0.932833 0 0 0 0 0.741667 0 0 0 0 1 0 0 0 0.25 0"/>
<feBlend mode="normal" in2="shape" result="effect1_innerShadow_463_506"/>
</filter>
<filter id="filter33_i_463_506" x="367" y="-1" width="72.0423" height="74.089" filterUnits="userSpaceOnUse" color-interpolation-filters="sRGB">
<feFlood flood-opacity="0" result="BackgroundImageFix"/>
<feBlend mode="normal" in="SourceGraphic" in2="BackgroundImageFix" result="shape"/>
<feColorMatrix in="SourceAlpha" type="matrix" values="0 0 0 0 0 0 0 0 0 0 0 0 0 0 0 0 0 0 127 0" result="hardAlpha"/>
<feOffset dx="-1" dy="-1"/>
<feGaussianBlur stdDeviation="1"/>
<feComposite in2="hardAlpha" operator="arithmetic" k2="-1" k3="1"/>
<feColorMatrix type="matrix" values="0 0 0 0 0.932833 0 0 0 0 0.741667 0 0 0 0 1 0 0 0 0.25 0"/>
<feBlend mode="normal" in2="shape" result="effect1_innerShadow_463_506"/>
</filter>
<linearGradient id="paint0_linear_463_506" x1="229.652" y1="285.193" x2="246.523" y2="322.623" gradientUnits="userSpaceOnUse">
<stop stop-color="#81BE65"/>
<stop offset="1" stop-color="#638BC7"/>
</linearGradient>
<linearGradient id="paint1_linear_463_506" x1="225.646" y1="303.186" x2="245.233" y2="322.388" gradientUnits="userSpaceOnUse">
<stop stop-color="#FFAD61"/>
<stop offset="1" stop-color="#04B05E"/>
</linearGradient>
<linearGradient id="paint2_linear_463_506" x1="264.376" y1="276.107" x2="264.376" y2="324.337" gradientUnits="userSpaceOnUse">
<stop stop-color="#EEA5F9"/>
<stop offset="1" stop-color="#9795FF"/>
</linearGradient>
<linearGradient id="paint3_linear_463_506" x1="697.835" y1="260.503" x2="578.924" y2="414.293" gradientUnits="userSpaceOnUse">
<stop stop-color="#81BE65"/>
<stop offset="1" stop-color="#638BC7"/>
</linearGradient>
<linearGradient id="paint4_linear_463_506" x1="650.42" y1="183.401" x2="560.336" y2="425.338" gradientUnits="userSpaceOnUse">
<stop stop-color="#FFAD61"/>
<stop offset="1" stop-color="#04B05E"/>
</linearGradient>
<linearGradient id="paint5_linear_463_506" x1="455.421" y1="166.116" x2="455.421" y2="433.451" gradientUnits="userSpaceOnUse">
<stop stop-color="#EEA5F9"/>
<stop offset="1" stop-color="#6A67FC"/>
</linearGradient>
<linearGradient id="paint6_linear_463_506" x1="223.417" y1="331.506" x2="274.45" y2="474.784" gradientUnits="userSpaceOnUse">
<stop stop-color="#81BE65"/>
<stop offset="1" stop-color="#638BC7"/>
</linearGradient>
<linearGradient id="paint7_linear_463_506" x1="202.845" y1="400.472" x2="275.405" y2="471.603" gradientUnits="userSpaceOnUse">
<stop stop-color="#FFAD61"/>
<stop offset="1" stop-color="#04B05E"/>
</linearGradient>
<linearGradient id="paint8_linear_463_506" x1="346.32" y1="300.468" x2="346.32" y2="479.139" gradientUnits="userSpaceOnUse">
<stop stop-color="#EEA5F9"/>
<stop offset="1" stop-color="#9795FF"/>
</linearGradient>
<linearGradient id="paint9_linear_463_506" x1="358.802" y1="422" x2="358.802" y2="440" gradientUnits="userSpaceOnUse">
<stop stop-color="#EEA5F9"/>
<stop offset="1" stop-color="#9795FF"/>
</linearGradient>
<linearGradient id="paint10_linear_463_506" x1="49.7702" y1="314.388" x2="80.349" y2="402.392" gradientUnits="userSpaceOnUse">
<stop stop-color="#81BE65"/>
<stop offset="1" stop-color="#638BC7"/>
</linearGradient>
<linearGradient id="paint11_linear_463_506" x1="36.8284" y1="356.753" x2="81.2745" y2="400.324" gradientUnits="userSpaceOnUse">
<stop stop-color="#FFAD61"/>
<stop offset="1" stop-color="#04B05E"/>
</linearGradient>
<linearGradient id="paint12_linear_463_506" x1="124.713" y1="295.305" x2="124.713" y2="404.749" gradientUnits="userSpaceOnUse">
<stop stop-color="#EEA5F9"/>
<stop offset="1" stop-color="#9795FF"/>
</linearGradient>
<linearGradient id="paint13_linear_463_506" x1="921.63" y1="334.147" x2="899.716" y2="382.765" gradientUnits="userSpaceOnUse">
<stop stop-color="#81BE65"/>
<stop offset="1" stop-color="#638BC7"/>
</linearGradient>
<linearGradient id="paint14_linear_463_506" x1="926.833" y1="357.519" x2="901.391" y2="382.459" gradientUnits="userSpaceOnUse">
<stop stop-color="#FFAD61"/>
<stop offset="1" stop-color="#04B05E"/>
</linearGradient>
<linearGradient id="paint15_linear_463_506" x1="876.527" y1="322.345" x2="876.527" y2="384.992" gradientUnits="userSpaceOnUse">
<stop stop-color="#EEA5F9"/>
<stop offset="1" stop-color="#9795FF"/>
</linearGradient>
<linearGradient id="paint16_linear_463_506" x1="829.264" y1="330.755" x2="799.499" y2="409.634" gradientUnits="userSpaceOnUse">
<stop stop-color="#81BE65"/>
<stop offset="1" stop-color="#638BC7"/>
</linearGradient>
<linearGradient id="paint17_linear_463_506" x1="839.929" y1="368.713" x2="799.708" y2="408.142" gradientUnits="userSpaceOnUse">
<stop stop-color="#FFAD61"/>
<stop offset="1" stop-color="#04B05E"/>
</linearGradient>
<linearGradient id="paint18_linear_463_506" x1="760.399" y1="313.107" x2="760.399" y2="412.146" gradientUnits="userSpaceOnUse">
<stop stop-color="#EEA5F9"/>
<stop offset="1" stop-color="#9795FF"/>
</linearGradient>
<linearGradient id="paint19_linear_463_506" x1="510.318" y1="324.912" x2="428.196" y2="452.407" gradientUnits="userSpaceOnUse">
<stop stop-color="#D9FFE8"/>
<stop offset="1" stop-color="#A4BDFF"/>
</linearGradient>
<linearGradient id="paint20_linear_463_506" x1="546.762" y1="324.658" x2="464.64" y2="452.153" gradientUnits="userSpaceOnUse">
<stop stop-color="#D9FFE8"/>
<stop offset="1" stop-color="#A4BDFF"/>
</linearGradient>
<linearGradient id="paint21_linear_463_506" x1="612" y1="317" x2="597.5" y2="375" gradientUnits="userSpaceOnUse">
<stop offset="0.671399" stop-color="#FFC09C"/>
<stop offset="1" stop-color="#B68A72"/>
</linearGradient>
<linearGradient id="paint22_linear_463_506" x1="614" y1="323.5" x2="625" y2="274" gradientUnits="userSpaceOnUse">
<stop offset="0.372193" stop-color="#FF570F"/>
<stop offset="0.717647" stop-color="#D7490D"/>
<stop offset="1" stop-color="#993409"/>
</linearGradient>
<clipPath id="clip0_463_506">
<rect width="263" height="171" fill="white" transform="translate(469.802 388.107)"/>
</clipPath>
<clipPath id="clip1_463_506">
<rect width="35.0818" height="35.0818" fill="white" transform="translate(333.907 135.776)"/>
</clipPath>
</defs>
</svg>
