<svg width="340" height="489" viewBox="0 0 340 489" fill="none" xmlns="http://www.w3.org/2000/svg">
<g clip-path="url(#clip0_463_1203)">
<g filter="url(#filter0_f_463_1203)">
<ellipse cx="28.6464" cy="2.53477" rx="28.6464" ry="2.53477" transform="matrix(-1 0 0 1 313.048 386.83)" fill="#9795FF" fill-opacity="0.3"/>
</g>
<path d="M269.347 390.599H294.239C299.163 390.599 303.813 387.317 305.454 382.667L312.566 362.972C313.934 359.416 312.292 355.313 308.736 353.945C306.822 353.125 304.907 353.125 303.266 353.945C301.625 354.766 300.257 356.134 299.436 358.048L292.051 377.196L295.607 378.564L302.992 359.416C303.266 358.595 303.813 358.048 304.633 357.501C305.454 357.228 306.275 357.228 307.095 357.501C308.736 358.048 309.557 359.963 309.01 361.604L301.625 381.299C300.53 384.582 297.521 386.496 294.239 386.496H273.45L277.006 383.487L274.271 380.478L267.706 386.496C266.885 387.043 266.885 388.138 267.159 388.958C267.432 389.779 268.253 390.599 269.347 390.599Z" fill="#9795FF"/>
<path d="M282.75 387.86C284.938 387.86 287.127 387.313 289.315 386.492C292.05 385.398 294.512 382.389 295.606 379.107C296.427 376.098 296.153 373.089 294.512 370.9C292.324 368.165 289.041 366.25 285.485 366.524C282.75 366.797 280.562 368.165 279.194 370.353C277.553 373.362 277.553 376.645 279.741 378.833C281.656 381.021 284.938 381.842 287.4 380.748C289.862 379.654 291.23 377.465 290.956 374.456L287.127 374.73C287.127 376.098 286.853 376.918 286.033 377.465C284.938 377.739 283.571 377.465 282.75 376.645C281.656 375.551 282.203 373.909 282.75 372.815C283.571 371.448 284.938 371.174 285.759 370.9C287.947 370.627 290.136 371.995 291.503 373.636C292.597 375.277 292.324 377.192 292.05 378.56C291.23 381.021 289.589 382.936 288.221 383.483C284.118 385.124 279.194 384.851 277.006 381.842C271.809 373.909 276.185 367.618 277.826 365.703C281.929 361.053 291.777 360.506 298.889 364.883L300.53 361.053C291.777 355.856 279.741 356.677 274.544 362.694C272.629 364.883 266.885 373.089 273.45 383.483C275.365 386.766 279.194 387.86 282.75 387.86Z" fill="#9795FF"/>
<path d="M302.445 355.854L306.274 355.307C305.727 352.298 302.992 346.828 296.427 346.007L296.153 349.836C301.351 350.384 302.445 355.854 302.445 355.854Z" fill="#9795FF"/>
<path d="M312.017 359.681C313.659 356.125 314.206 348.192 306.273 343.268L304.358 346.551C311.47 350.927 308.735 357.492 308.461 358.039L312.017 359.681Z" fill="#9795FF"/>
<path d="M305.454 346.83C304.396 346.83 303.539 345.972 303.539 344.915C303.539 343.857 304.396 343 305.454 343C306.511 343 307.369 343.857 307.369 344.915C307.369 345.972 306.511 346.83 305.454 346.83Z" fill="#9795FF"/>
<path d="M296.153 349.836C295.096 349.836 294.238 348.979 294.238 347.922C294.238 346.864 295.096 346.007 296.153 346.007C297.211 346.007 298.068 346.864 298.068 347.922C298.068 348.979 297.211 349.836 296.153 349.836Z" fill="#9795FF"/>
<g filter="url(#filter1_i_463_1203)">
<path d="M269.744 263.399C243.024 297.956 239.827 340.247 239.827 340.247C239.827 340.247 279.952 326.509 306.672 291.951C333.392 257.394 336.589 215.103 336.589 215.103C336.589 215.103 296.464 228.841 269.744 263.399Z" fill="url(#paint0_linear_463_1203)"/>
</g>
<path d="M241.427 337.706C241.427 337.706 256.543 319.878 275.536 296.153M332.743 219.482C325.106 231.075 315.709 244.108 305.877 257.175M305.877 257.175L307.818 233.892M305.877 257.175C295.741 270.647 285.143 284.155 275.536 296.153M275.536 296.153L304.367 289.176" stroke="white" stroke-opacity="0.3" stroke-linecap="round"/>
<g filter="url(#filter2_i_463_1203)">
<path d="M232.308 239.983C212.065 294.348 224.702 349.234 224.702 349.234C224.702 349.234 270.159 315.978 290.401 261.614C310.643 207.249 298.006 152.363 298.006 152.363C298.006 152.363 252.55 185.618 232.308 239.983Z" fill="url(#paint1_linear_463_1203)"/>
</g>
<path d="M225.731 345.365C225.731 345.365 237.862 316.793 252.583 279.214M294.861 159.418C289.753 177.13 282.981 197.366 275.672 217.816M275.672 217.816L268.944 187.526M275.672 217.816C268.135 238.898 260.028 260.208 252.583 279.214M252.583 279.214L286.386 258.989" stroke="white" stroke-opacity="0.3" stroke-linecap="round"/>
<g filter="url(#filter3_ii_463_1203)">
<path d="M35.7383 206.9C35.7383 197.539 40.9682 188.962 49.2904 184.676L127.88 144.194C135.064 140.494 143.592 140.494 150.776 144.194L229.366 184.676C237.688 188.962 242.918 197.539 242.918 206.9V330.836C242.918 344.643 231.725 355.836 217.918 355.836H60.7383C46.9312 355.836 35.7383 344.643 35.7383 330.836V206.9Z" fill="url(#paint2_linear_463_1203)"/>
</g>
<g filter="url(#filter4_f_463_1203)">
<ellipse cx="156" cy="354.5" rx="120" ry="9.5" fill="#9795FF" fill-opacity="0.2"/>
</g>
<g filter="url(#filter5_ii_463_1203)">
<path d="M1.75488 316.713C1.75488 311.096 4.89285 305.95 9.88614 303.378L58.1109 278.538C62.421 276.318 67.5383 276.318 71.8484 278.538L120.073 303.378C125.066 305.95 128.204 311.097 128.204 316.713V392.772C128.204 401.056 121.489 407.772 113.204 407.772H16.7549C8.47062 407.772 1.75488 401.056 1.75488 392.772V316.713Z" fill="url(#paint3_linear_463_1203)"/>
</g>
<path d="M41 332C41 329.239 43.2386 327 46 327H84C86.7614 327 89 329.239 89 332V408H41V332Z" fill="#FCF0FF"/>
<circle cx="76" cy="368" r="8" fill="url(#paint4_linear_463_1203)"/>
<g filter="url(#filter6_f_463_1203)">
<ellipse cx="64.7549" cy="409" rx="67" ry="7" fill="#9795FF" fill-opacity="0.2"/>
</g>
<g filter="url(#filter7_di_463_1203)">
<rect x="97.7549" y="220.861" width="89.4731" height="111.296" rx="6" transform="rotate(-22.2375 97.7549 220.861)" fill="#F0F9FF"/>
</g>
<rect x="115.948" y="250.248" width="78.6012" height="72.2035" rx="2" transform="rotate(-22.2375 115.948 250.248)" fill="url(#paint5_linear_463_1203)"/>
<path d="M125.659 240.1C123.7 240.901 121.767 240.933 119.858 240.196C117.949 239.459 116.614 238.158 115.851 236.293C115.485 235.398 115.315 234.468 115.342 233.503C115.369 232.539 115.586 231.609 115.993 230.713L119.052 223.94L125.98 226.63C126.898 226.984 127.705 227.496 128.4 228.165C129.094 228.834 129.625 229.616 129.991 230.512C130.753 232.377 130.712 234.241 129.866 236.104C129.02 237.967 127.618 239.299 125.659 240.1Z" fill="#FF4C00"/>
<rect x="133.009" y="220.59" width="45.8277" height="10.9113" rx="2" transform="rotate(-22.2375 133.009 220.59)" fill="#FFD25F"/>
<path d="M150.327 278.051L145.481 280.032C145 280.229 144.459 280.226 143.979 280.025C143.499 279.823 143.119 279.439 142.922 278.957C142.725 278.476 142.727 277.935 142.928 277.455C143.13 276.975 143.514 276.595 143.996 276.398L148.841 274.417C149.323 274.22 149.863 274.222 150.343 274.424C150.823 274.625 151.204 275.009 151.401 275.491C151.598 275.973 151.595 276.513 151.394 276.993C151.192 277.473 150.809 277.854 150.327 278.051Z" fill="#7D7BDD"/>
<path d="M150.216 263.958C149.734 264.154 149.194 264.151 148.714 263.95L143.637 261.699C143.324 261.681 143.019 261.588 142.749 261.428C142.479 261.268 142.915 261.694 142.749 261.428C142.582 261.161 142.472 260.378 142.447 260.065C142.422 259.752 142.472 259.437 142.594 259.148C142.715 258.858 142.904 258.602 143.145 258.401C143.386 258.2 143.946 257.908 144.252 257.84C143.949 257.759 144.559 257.772 144.252 257.84C144.556 257.92 144.837 258.075 145.069 258.286L150.189 260.434C150.519 260.593 150.799 260.842 150.995 261.152C151.191 261.462 151.297 261.821 151.3 262.188C151.302 262.554 151.202 262.915 151.011 263.228C150.819 263.54 150.544 263.793 150.216 263.958Z" fill="#7D7BDD"/>
<path d="M160.351 254.167C159.869 254.364 159.329 254.362 158.849 254.16C158.369 253.959 157.988 253.575 157.791 253.093L155.81 248.248C155.613 247.766 155.616 247.225 155.817 246.745C156.019 246.265 156.402 245.885 156.884 245.688C157.366 245.491 157.907 245.493 158.387 245.695C158.867 245.896 159.247 246.28 159.444 246.762L161.425 251.607C161.622 252.089 161.62 252.629 161.418 253.11C161.217 253.59 160.833 253.97 160.351 254.167Z" fill="#7D7BDD"/>
<path d="M174.443 254.049C174.083 254.196 173.689 254.232 173.309 254.155C172.928 254.077 172.58 253.889 172.307 253.613C172.034 253.337 171.848 252.987 171.774 252.606C171.7 252.225 171.741 251.831 171.891 251.473L174.141 246.396C174.159 246.083 174.405 245.973 174.565 245.703C174.832 245.537 175.334 245.284 175.647 245.259C175.96 245.233 176.274 245.284 176.564 245.405C176.853 245.527 177.109 245.716 177.311 245.957C177.512 246.198 177.93 246.706 177.998 247.013C178.066 247.319 178.079 246.709 177.998 247.013C177.918 247.316 177.766 247.596 177.554 247.828L175.406 252.948C175.239 253.426 174.894 253.82 174.443 254.049Z" fill="#7D7BDD"/>
<path d="M189.085 262.205L184.24 264.186C183.758 264.383 183.218 264.38 182.738 264.179C182.258 263.977 181.877 263.593 181.68 263.112C181.483 262.63 181.486 262.089 181.687 261.609C181.889 261.129 182.273 260.749 182.754 260.552L187.6 258.571C188.082 258.374 188.622 258.376 189.102 258.578C189.582 258.779 189.963 259.163 190.16 259.645C190.357 260.127 190.354 260.667 190.153 261.147C189.951 261.627 189.567 262.008 189.085 262.205Z" fill="#7D7BDD"/>
<path d="M168.521 274.151C171.197 273.057 172.479 270 171.385 267.324C170.291 264.648 167.235 263.366 164.559 264.46C161.883 265.554 160.601 268.61 161.695 271.286C162.789 273.962 165.845 275.245 168.521 274.151Z" fill="#7D7BDD"/>
<path d="M167.113 270.706C166.754 270.852 166.359 270.889 165.979 270.812C165.599 270.734 165.25 270.545 164.977 270.27C164.704 269.994 164.519 269.644 164.445 269.263C164.371 268.882 164.411 268.488 164.561 268.13L168.614 258.471C168.827 258.009 169.211 257.648 169.686 257.464C170.16 257.28 170.687 257.287 171.156 257.484C171.625 257.68 171.999 258.052 172.2 258.519C172.401 258.986 172.412 259.513 172.232 259.989L168.179 269.648C167.978 270.128 167.595 270.509 167.113 270.706Z" fill="#7D7BDD"/>
<circle cx="166.542" cy="269.302" r="28.4854" transform="rotate(-22.2375 166.542 269.302)" stroke="#7D7BDD" stroke-width="1.5"/>
<g filter="url(#filter8_di_463_1203)">
<rect x="133.946" y="217.563" width="89.4731" height="111.296" rx="6" transform="rotate(-10.4864 133.946 217.563)" fill="#F0F9FF"/>
</g>
<rect x="145.775" y="250.04" width="78.6012" height="72.2035" rx="2" transform="rotate(-10.4864 145.775 250.04)" fill="url(#paint6_linear_463_1203)"/>
<path d="M157.349 242.082C155.268 242.467 153.368 242.105 151.65 240.995C149.931 239.884 148.888 238.339 148.522 236.357C148.346 235.406 148.369 234.462 148.592 233.523C148.814 232.584 149.216 231.717 149.798 230.923L154.172 224.916L160.406 228.96C161.233 229.493 161.918 230.159 162.462 230.955C163.006 231.752 163.366 232.626 163.542 233.577C163.909 235.558 163.489 237.375 162.281 239.027C161.074 240.679 159.43 241.697 157.349 242.082Z" fill="#0067C6"/>
<rect x="168.517" y="224.478" width="45.8277" height="10.9113" rx="2" transform="rotate(-10.4864 168.517 224.478)" fill="#FFD25F"/>
<path d="M173.77 284.261L168.623 285.214C168.111 285.308 167.583 285.196 167.154 284.901C166.725 284.606 166.431 284.153 166.336 283.641C166.241 283.129 166.354 282.6 166.648 282.171C166.943 281.742 167.397 281.448 167.909 281.353L173.056 280.401C173.568 280.306 174.096 280.418 174.525 280.713C174.954 281.008 175.249 281.462 175.343 281.974C175.438 282.485 175.326 283.014 175.031 283.443C174.736 283.872 174.282 284.166 173.77 284.261Z" fill="#7D7BDD"/>
<path d="M176.532 270.441C176.02 270.535 175.492 270.422 175.063 270.127L170.551 266.89C170.248 266.808 169.969 266.655 169.737 266.443C169.505 266.232 169.845 266.738 169.737 266.443C169.628 266.149 169.68 265.359 169.719 265.048C169.758 264.736 169.871 264.438 170.049 264.18C170.227 263.921 170.465 263.709 170.742 263.561C171.019 263.413 171.626 263.241 171.94 263.236C171.659 263.096 172.254 263.232 171.94 263.236C172.221 263.377 172.464 263.586 172.649 263.84L177.223 266.986C177.515 267.209 177.737 267.509 177.866 267.853C177.996 268.196 178.026 268.569 177.954 268.929C177.882 269.288 177.711 269.621 177.459 269.888C177.208 270.155 176.887 270.347 176.532 270.441Z" fill="#7D7BDD"/>
<path d="M188.449 262.92C187.937 263.014 187.408 262.902 186.979 262.607C186.551 262.312 186.256 261.859 186.162 261.347L185.209 256.2C185.114 255.688 185.227 255.159 185.522 254.73C185.817 254.301 186.27 254.007 186.782 253.912C187.294 253.817 187.822 253.93 188.251 254.225C188.68 254.52 188.974 254.973 189.069 255.485L190.022 260.632C190.117 261.144 190.004 261.673 189.709 262.102C189.414 262.531 188.961 262.825 188.449 262.92Z" fill="#7D7BDD"/>
<path d="M202.269 265.674C201.888 265.744 201.494 265.7 201.137 265.547C200.781 265.393 200.478 265.138 200.267 264.812C200.056 264.487 199.946 264.106 199.951 263.718C199.956 263.33 200.076 262.952 200.296 262.632L203.533 258.12C203.614 257.817 203.877 257.76 204.089 257.528C204.384 257.419 204.927 257.274 205.238 257.313C205.55 257.352 205.847 257.465 206.106 257.643C206.365 257.821 206.577 258.059 206.725 258.336C206.873 258.613 207.179 259.195 207.183 259.509C207.188 259.823 207.324 259.229 207.183 259.509C207.043 259.79 206.837 260.033 206.583 260.218L203.437 264.793C203.176 265.226 202.758 265.542 202.269 265.674Z" fill="#7D7BDD"/>
<path d="M214.946 276.641L209.799 277.594C209.287 277.688 208.759 277.576 208.33 277.281C207.901 276.986 207.606 276.533 207.512 276.021C207.417 275.509 207.529 274.98 207.824 274.551C208.119 274.122 208.573 273.828 209.084 273.733L214.232 272.781C214.744 272.686 215.272 272.798 215.701 273.093C216.13 273.388 216.424 273.842 216.519 274.353C216.614 274.865 216.501 275.394 216.206 275.823C215.911 276.252 215.458 276.546 214.946 276.641Z" fill="#7D7BDD"/>
<path d="M192.378 284.148C195.22 283.622 197.098 280.891 196.572 278.049C196.046 275.206 193.315 273.328 190.472 273.854C187.63 274.38 185.752 277.111 186.278 279.954C186.804 282.797 189.535 284.675 192.378 284.148Z" fill="#7D7BDD"/>
<path d="M191.702 280.489C191.32 280.56 190.927 280.515 190.57 280.362C190.214 280.208 189.911 279.953 189.7 279.627C189.488 279.302 189.378 278.921 189.384 278.533C189.389 278.145 189.509 277.767 189.728 277.448L195.663 268.816C195.966 268.408 196.416 268.132 196.917 268.049C197.419 267.965 197.934 268.079 198.353 268.367C198.772 268.656 199.063 269.095 199.164 269.594C199.266 270.092 199.169 270.61 198.896 271.039L192.961 279.671C192.666 280.1 192.214 280.394 191.702 280.489Z" fill="#7D7BDD"/>
<circle cx="191.427" cy="278.998" r="28.4854" transform="rotate(-10.4864 191.427 278.998)" stroke="#7D7BDD" stroke-width="1.5"/>
<g filter="url(#filter9_di_463_1203)">
<path d="M217.109 233.677C217.891 230.457 221.136 228.48 224.356 229.262L238.162 232.615C239.212 232.87 240.313 232.836 241.346 232.518L250.346 229.741C251.38 229.422 252.48 229.389 253.531 229.644L271.561 234.022C272.612 234.277 273.575 234.812 274.347 235.569L281.071 242.164C281.843 242.922 282.806 243.456 283.857 243.711L297.662 247.064C300.882 247.846 302.859 251.09 302.077 254.31L291.153 299.294C290.371 302.514 287.127 304.491 283.907 303.709L210.6 285.907C207.38 285.125 205.404 281.881 206.186 278.661L217.109 233.677Z" fill="#FFC09C"/>
</g>
<g filter="url(#filter10_i_463_1203)">
<path d="M217.109 233.677C217.891 230.457 221.136 228.48 224.356 229.262L238.162 232.615C239.212 232.87 240.313 232.836 241.346 232.518L250.346 229.741C251.38 229.422 252.48 229.389 253.531 229.644L271.561 234.022C272.612 234.277 273.575 234.812 274.347 235.569L281.071 242.164C281.843 242.922 282.806 243.456 283.857 243.711L297.662 247.064C300.882 247.846 302.859 251.09 302.077 254.31L300.376 261.314C299.594 264.534 296.35 266.511 293.13 265.729L219.823 247.927C216.603 247.145 214.627 243.901 215.409 240.681L217.109 233.677Z" fill="#FF570F"/>
</g>
<g filter="url(#filter11_di_463_1203)">
<circle cx="254.718" cy="265.127" r="17.9134" transform="rotate(13.6493 254.718 265.127)" fill="#3E8AFC"/>
</g>
<g filter="url(#filter12_d_463_1203)">
<circle cx="254.718" cy="265.127" r="16.4134" transform="rotate(13.6493 254.718 265.127)" stroke="#FFE58A" stroke-width="3" shape-rendering="crispEdges"/>
</g>
<g clip-path="url(#clip1_463_1203)">
<g filter="url(#filter13_f_463_1203)">
<path d="M265.556 447.398C265.991 451.525 230.34 455.128 178.797 460.567C127.255 466.007 103.323 477.804 99.1548 468.081C94.6466 457.565 125.752 463.003 177.294 457.564C228.837 452.124 265.12 443.271 265.556 447.398Z" fill="#9795FF" fill-opacity="0.2"/>
</g>
<g filter="url(#filter14_i_463_1203)">
<path d="M247.582 399.157C254.443 418.77 245.547 440.741 227.014 449.862C210.477 458.157 191.636 454.368 179.323 442.445L178.632 441.644L114.432 468.223C113.51 468.605 112.396 468.523 111.462 468.004L98.3429 460.217C97.127 459.453 96.487 457.907 96.807 456.507L100.583 441.725C100.877 440.698 101.607 439.853 102.528 439.471L115.825 433.967C116.439 433.712 117.118 433.613 117.924 433.822L123.504 435.133C124.9 435.461 126.435 434.825 127.191 433.607L129.904 428.862C130.173 428.208 130.877 427.735 131.491 427.481L138.49 424.583C139.258 424.265 140.154 424.256 140.807 424.529L148.231 427.251C149.907 427.824 151.75 427.061 152.467 425.315L155.245 418.552C155.603 417.68 156.243 417.053 157.011 416.735L166.665 412.738L166.588 411.683C166.729 395.509 176.495 380.421 192.161 373.935C214.279 364.778 239.839 376.107 247.582 399.157ZM221.369 407.112C223.161 411.44 227.948 413.442 232.249 411.661C236.549 409.881 238.52 405.081 236.729 400.753C234.937 396.425 230.15 394.423 225.849 396.203C221.549 397.984 219.577 402.783 221.369 407.112Z" fill="#FFC700"/>
</g>
</g>
<g filter="url(#filter15_i_463_1203)">
<path d="M169.008 96.5596C169.008 93.7981 171.246 91.5596 174.008 91.5596H219.239C222 91.5596 224.239 93.7981 224.239 96.5596V134.259C224.239 137.021 222 139.259 219.239 139.259H212.057C211 139.259 209.971 139.594 209.116 140.216L199.564 147.162C197.811 148.437 195.436 148.437 193.683 147.162L184.131 140.215C183.276 139.594 182.246 139.259 181.19 139.259H174.008C171.246 139.259 169.008 137.021 169.008 134.259V96.5596Z" fill="#FEFCFF"/>
</g>
<g clip-path="url(#clip2_463_1203)">
<path d="M202.099 118.017C202.696 118.017 203.227 117.785 203.692 117.319C204.157 116.854 204.39 116.317 204.39 115.709C204.39 115.1 204.157 114.569 203.692 114.116C203.227 113.662 202.696 113.436 202.099 113.436C201.503 113.436 200.972 113.662 200.507 114.116C200.041 114.569 199.809 115.1 199.809 115.709C199.809 116.317 200.041 116.854 200.507 117.319C200.972 117.785 201.503 118.017 202.099 118.017ZM185.205 124.567V126.464V104.989V124.567ZM185.205 128.612C184.656 128.612 184.161 128.397 183.72 127.968C183.278 127.538 183.058 127.037 183.058 126.464V104.989C183.058 104.44 183.278 103.945 183.72 103.503C184.161 103.062 184.656 102.841 185.205 102.841H206.681C207.253 102.841 207.755 103.062 208.184 103.503C208.614 103.945 208.828 104.44 208.828 104.989V109.785H206.681V104.989H185.205V126.464H206.681V121.704H208.828V126.464C208.828 127.037 208.614 127.538 208.184 127.968C207.755 128.397 207.253 128.612 206.681 128.612H185.205ZM198.019 122.42C197.208 122.42 196.563 122.181 196.086 121.704C195.609 121.227 195.37 120.594 195.37 119.807V111.682C195.37 110.871 195.609 110.232 196.086 109.767C196.563 109.302 197.208 109.069 198.019 109.069H207.683C208.494 109.069 209.139 109.302 209.616 109.767C210.093 110.232 210.332 110.871 210.332 111.682V119.807C210.332 120.594 210.093 121.227 209.616 121.704C209.139 122.181 208.494 122.42 207.683 122.42H198.019ZM208.184 120.272V111.217H197.518V120.272H208.184Z" fill="#00D809"/>
</g>
<g filter="url(#filter16_i_463_1203)">
<path d="M208.86 32.6095C208.86 29.8481 211.099 27.6095 213.86 27.6095H259.091C261.853 27.6095 264.091 29.8481 264.091 32.6095V70.3091C264.091 73.0705 261.853 75.3091 259.091 75.3091H251.91C250.853 75.3091 249.823 75.6439 248.969 76.2654L239.417 83.2123C237.664 84.4874 235.288 84.4874 233.535 83.2123L223.983 76.2654C223.128 75.6439 222.099 75.3091 221.042 75.3091H213.86C211.099 75.3091 208.86 73.0705 208.86 70.3091V32.6095Z" fill="#FEFCFF"/>
</g>
<path d="M222.084 63.2V60.643H225.664V47.6027C225.664 45.2162 226.367 43.0925 227.773 41.2316C229.179 39.3708 231.033 38.1988 233.334 37.7159V36.48C233.334 35.8266 233.569 35.2868 234.038 34.8606C234.506 34.4345 235.068 34.2214 235.721 34.2214C236.374 34.2214 236.936 34.4345 237.404 34.8606C237.873 35.2868 238.107 35.8266 238.107 36.48V37.7159C240.409 38.1988 242.27 39.3708 243.69 41.2316C245.111 43.0925 245.821 45.2162 245.821 47.6027V60.643H249.358V63.2H222.084ZM235.721 68.3138C234.812 68.3138 234.016 67.98 233.334 67.3124C232.653 66.6447 232.312 65.8421 232.312 64.9046H239.13C239.13 65.8421 238.796 66.6447 238.129 67.3124C237.461 67.98 236.659 68.3138 235.721 68.3138ZM228.221 60.643H243.264V47.6027C243.264 45.5003 242.539 43.7104 241.091 42.2331C239.642 40.7558 237.866 40.0171 235.764 40.0171C233.661 40.0171 231.878 40.7558 230.415 42.2331C228.952 43.7104 228.221 45.5003 228.221 47.6027V60.643Z" fill="#FFC700"/>
<g filter="url(#filter17_i_463_1203)">
<path d="M128 15C128 12.2386 130.239 10 133 10H178.231C180.993 10 183.231 12.2386 183.231 15V52.6996C183.231 55.461 180.993 57.6996 178.231 57.6996H171.049C169.993 57.6996 168.963 58.0344 168.108 58.6559L158.556 65.6028C156.803 66.8779 154.428 66.8779 152.675 65.6028L143.123 58.6559C142.268 58.0344 141.239 57.6996 140.182 57.6996H133C130.239 57.6996 128 55.461 128 52.6996V15Z" fill="#FEFCFF"/>
</g>
<path d="M158.844 42.4189C157.916 42.4189 157.134 42.0986 156.498 41.458C155.861 40.8175 155.543 40.0334 155.543 39.1057C155.543 38.178 155.863 37.3959 156.504 36.7595C157.144 36.1231 157.929 35.8049 158.856 35.8049C159.784 35.8049 160.566 36.1252 161.202 36.7658C161.839 37.4063 162.157 38.1904 162.157 39.1181C162.157 40.0458 161.837 40.8279 161.196 41.4643C160.556 42.1007 159.771 42.4189 158.844 42.4189ZM144.633 47.1918C144.088 47.1918 143.611 46.9873 143.202 46.5782C142.792 46.169 142.588 45.6918 142.588 45.1463V24.0089C142.588 23.4635 142.792 22.9862 143.202 22.5771C143.611 22.1679 144.088 21.9634 144.633 21.9634H146.849V19.9178H149.065V21.9634H160.657V19.9178H162.873V21.9634H165.089C165.634 21.9634 166.112 22.1679 166.521 22.5771C166.93 22.9862 167.134 23.4635 167.134 24.0089V45.1463C167.134 45.6918 166.93 46.169 166.521 46.5782C166.112 46.9873 165.634 47.1918 165.089 47.1918H144.633ZM144.633 45.1463H165.089V30.4865H144.633V45.1463ZM144.633 28.441H165.089V24.0089H144.633V28.441Z" fill="#9795FF"/>
</g>
<defs>
<filter id="filter0_f_463_1203" x="249.755" y="380.83" width="69.293" height="17.0695" filterUnits="userSpaceOnUse" color-interpolation-filters="sRGB">
<feFlood flood-opacity="0" result="BackgroundImageFix"/>
<feBlend mode="normal" in="SourceGraphic" in2="BackgroundImageFix" result="shape"/>
<feGaussianBlur stdDeviation="3" result="effect1_foregroundBlur_463_1203"/>
</filter>
<filter id="filter1_i_463_1203" x="238.827" y="214.103" width="97.7617" height="126.144" filterUnits="userSpaceOnUse" color-interpolation-filters="sRGB">
<feFlood flood-opacity="0" result="BackgroundImageFix"/>
<feBlend mode="normal" in="SourceGraphic" in2="BackgroundImageFix" result="shape"/>
<feColorMatrix in="SourceAlpha" type="matrix" values="0 0 0 0 0 0 0 0 0 0 0 0 0 0 0 0 0 0 127 0" result="hardAlpha"/>
<feOffset dx="-1" dy="-1"/>
<feGaussianBlur stdDeviation="2"/>
<feComposite in2="hardAlpha" operator="arithmetic" k2="-1" k3="1"/>
<feColorMatrix type="matrix" values="0 0 0 0 1 0 0 0 0 1 0 0 0 0 1 0 0 0 0.4 0"/>
<feBlend mode="normal" in2="shape" result="effect1_innerShadow_463_1203"/>
</filter>
<filter id="filter2_i_463_1203" x="219.806" y="151.363" width="82.0967" height="197.872" filterUnits="userSpaceOnUse" color-interpolation-filters="sRGB">
<feFlood flood-opacity="0" result="BackgroundImageFix"/>
<feBlend mode="normal" in="SourceGraphic" in2="BackgroundImageFix" result="shape"/>
<feColorMatrix in="SourceAlpha" type="matrix" values="0 0 0 0 0 0 0 0 0 0 0 0 0 0 0 0 0 0 127 0" result="hardAlpha"/>
<feOffset dx="-1" dy="-1"/>
<feGaussianBlur stdDeviation="2"/>
<feComposite in2="hardAlpha" operator="arithmetic" k2="-1" k3="1"/>
<feColorMatrix type="matrix" values="0 0 0 0 1 0 0 0 0 1 0 0 0 0 1 0 0 0 0.4 0"/>
<feBlend mode="normal" in2="shape" result="effect1_innerShadow_463_1203"/>
</filter>
<filter id="filter3_ii_463_1203" x="35.7383" y="141.419" width="207.18" height="216.417" filterUnits="userSpaceOnUse" color-interpolation-filters="sRGB">
<feFlood flood-opacity="0" result="BackgroundImageFix"/>
<feBlend mode="normal" in="SourceGraphic" in2="BackgroundImageFix" result="shape"/>
<feColorMatrix in="SourceAlpha" type="matrix" values="0 0 0 0 0 0 0 0 0 0 0 0 0 0 0 0 0 0 127 0" result="hardAlpha"/>
<feOffset dy="2"/>
<feGaussianBlur stdDeviation="2"/>
<feComposite in2="hardAlpha" operator="arithmetic" k2="-1" k3="1"/>
<feColorMatrix type="matrix" values="0 0 0 0 1 0 0 0 0 1 0 0 0 0 1 0 0 0 0.25 0"/>
<feBlend mode="normal" in2="shape" result="effect1_innerShadow_463_1203"/>
<feColorMatrix in="SourceAlpha" type="matrix" values="0 0 0 0 0 0 0 0 0 0 0 0 0 0 0 0 0 0 127 0" result="hardAlpha"/>
<feOffset/>
<feGaussianBlur stdDeviation="2"/>
<feComposite in2="hardAlpha" operator="arithmetic" k2="-1" k3="1"/>
<feColorMatrix type="matrix" values="0 0 0 0 1 0 0 0 0 1 0 0 0 0 1 0 0 0 0.25 0"/>
<feBlend mode="normal" in2="effect1_innerShadow_463_1203" result="effect2_innerShadow_463_1203"/>
</filter>
<filter id="filter4_f_463_1203" x="26" y="335" width="260" height="39" filterUnits="userSpaceOnUse" color-interpolation-filters="sRGB">
<feFlood flood-opacity="0" result="BackgroundImageFix"/>
<feBlend mode="normal" in="SourceGraphic" in2="BackgroundImageFix" result="shape"/>
<feGaussianBlur stdDeviation="5" result="effect1_foregroundBlur_463_1203"/>
</filter>
<filter id="filter5_ii_463_1203" x="1.75488" y="276.873" width="126.449" height="132.899" filterUnits="userSpaceOnUse" color-interpolation-filters="sRGB">
<feFlood flood-opacity="0" result="BackgroundImageFix"/>
<feBlend mode="normal" in="SourceGraphic" in2="BackgroundImageFix" result="shape"/>
<feColorMatrix in="SourceAlpha" type="matrix" values="0 0 0 0 0 0 0 0 0 0 0 0 0 0 0 0 0 0 127 0" result="hardAlpha"/>
<feOffset dy="2"/>
<feGaussianBlur stdDeviation="2"/>
<feComposite in2="hardAlpha" operator="arithmetic" k2="-1" k3="1"/>
<feColorMatrix type="matrix" values="0 0 0 0 1 0 0 0 0 1 0 0 0 0 1 0 0 0 0.25 0"/>
<feBlend mode="normal" in2="shape" result="effect1_innerShadow_463_1203"/>
<feColorMatrix in="SourceAlpha" type="matrix" values="0 0 0 0 0 0 0 0 0 0 0 0 0 0 0 0 0 0 127 0" result="hardAlpha"/>
<feOffset/>
<feGaussianBlur stdDeviation="2"/>
<feComposite in2="hardAlpha" operator="arithmetic" k2="-1" k3="1"/>
<feColorMatrix type="matrix" values="0 0 0 0 1 0 0 0 0 1 0 0 0 0 1 0 0 0 0.25 0"/>
<feBlend mode="normal" in2="effect1_innerShadow_463_1203" result="effect2_innerShadow_463_1203"/>
</filter>
<filter id="filter6_f_463_1203" x="-12.2451" y="392" width="154" height="34" filterUnits="userSpaceOnUse" color-interpolation-filters="sRGB">
<feFlood flood-opacity="0" result="BackgroundImageFix"/>
<feBlend mode="normal" in="SourceGraphic" in2="BackgroundImageFix" result="shape"/>
<feGaussianBlur stdDeviation="5" result="effect1_foregroundBlur_463_1203"/>
</filter>
<filter id="filter7_di_463_1203" x="89.5781" y="183.823" width="131.292" height="141.233" filterUnits="userSpaceOnUse" color-interpolation-filters="sRGB">
<feFlood flood-opacity="0" result="BackgroundImageFix"/>
<feColorMatrix in="SourceAlpha" type="matrix" values="0 0 0 0 0 0 0 0 0 0 0 0 0 0 0 0 0 0 127 0" result="hardAlpha"/>
<feOffset dx="-6" dy="-1"/>
<feGaussianBlur stdDeviation="2"/>
<feComposite in2="hardAlpha" operator="out"/>
<feColorMatrix type="matrix" values="0 0 0 0 0.165208 0 0 0 0 0.0494792 0 0 0 0 0.3125 0 0 0 0.15 0"/>
<feBlend mode="normal" in2="BackgroundImageFix" result="effect1_dropShadow_463_1203"/>
<feBlend mode="normal" in="SourceGraphic" in2="effect1_dropShadow_463_1203" result="shape"/>
<feColorMatrix in="SourceAlpha" type="matrix" values="0 0 0 0 0 0 0 0 0 0 0 0 0 0 0 0 0 0 127 0" result="hardAlpha"/>
<feOffset/>
<feGaussianBlur stdDeviation="2"/>
<feComposite in2="hardAlpha" operator="arithmetic" k2="-1" k3="1"/>
<feColorMatrix type="matrix" values="0 0 0 0 1 0 0 0 0 1 0 0 0 0 1 0 0 0 0.25 0"/>
<feBlend mode="normal" in2="shape" result="effect2_innerShadow_463_1203"/>
</filter>
<filter id="filter8_di_463_1203" x="126.938" y="197.27" width="114.253" height="131.74" filterUnits="userSpaceOnUse" color-interpolation-filters="sRGB">
<feFlood flood-opacity="0" result="BackgroundImageFix"/>
<feColorMatrix in="SourceAlpha" type="matrix" values="0 0 0 0 0 0 0 0 0 0 0 0 0 0 0 0 0 0 127 0" result="hardAlpha"/>
<feOffset dx="-4" dy="-1"/>
<feGaussianBlur stdDeviation="2"/>
<feComposite in2="hardAlpha" operator="out"/>
<feColorMatrix type="matrix" values="0 0 0 0 0.165208 0 0 0 0 0.0494792 0 0 0 0 0.3125 0 0 0 0.15 0"/>
<feBlend mode="normal" in2="BackgroundImageFix" result="effect1_dropShadow_463_1203"/>
<feBlend mode="normal" in="SourceGraphic" in2="effect1_dropShadow_463_1203" result="shape"/>
<feColorMatrix in="SourceAlpha" type="matrix" values="0 0 0 0 0 0 0 0 0 0 0 0 0 0 0 0 0 0 127 0" result="hardAlpha"/>
<feOffset/>
<feGaussianBlur stdDeviation="2"/>
<feComposite in2="hardAlpha" operator="arithmetic" k2="-1" k3="1"/>
<feColorMatrix type="matrix" values="0 0 0 0 1 0 0 0 0 1 0 0 0 0 1 0 0 0 0.25 0"/>
<feBlend mode="normal" in2="shape" result="effect2_innerShadow_463_1203"/>
</filter>
<filter id="filter9_di_463_1203" x="198.015" y="229.091" width="104.233" height="82.7881" filterUnits="userSpaceOnUse" color-interpolation-filters="sRGB">
<feFlood flood-opacity="0" result="BackgroundImageFix"/>
<feColorMatrix in="SourceAlpha" type="matrix" values="0 0 0 0 0 0 0 0 0 0 0 0 0 0 0 0 0 0 127 0" result="hardAlpha"/>
<feOffset dx="-4" dy="4"/>
<feGaussianBlur stdDeviation="2"/>
<feComposite in2="hardAlpha" operator="out"/>
<feColorMatrix type="matrix" values="0 0 0 0 0 0 0 0 0 0 0 0 0 0 0 0 0 0 0.15 0"/>
<feBlend mode="normal" in2="BackgroundImageFix" result="effect1_dropShadow_463_1203"/>
<feBlend mode="normal" in="SourceGraphic" in2="effect1_dropShadow_463_1203" result="shape"/>
<feColorMatrix in="SourceAlpha" type="matrix" values="0 0 0 0 0 0 0 0 0 0 0 0 0 0 0 0 0 0 127 0" result="hardAlpha"/>
<feOffset/>
<feGaussianBlur stdDeviation="1.5"/>
<feComposite in2="hardAlpha" operator="arithmetic" k2="-1" k3="1"/>
<feColorMatrix type="matrix" values="0 0 0 0 0 0 0 0 0 0.541667 0 0 0 0 0.376812 0 0 0 0.25 0"/>
<feBlend mode="normal" in2="shape" result="effect2_innerShadow_463_1203"/>
</filter>
<filter id="filter10_i_463_1203" x="215.238" y="229.091" width="87.0098" height="37.8081" filterUnits="userSpaceOnUse" color-interpolation-filters="sRGB">
<feFlood flood-opacity="0" result="BackgroundImageFix"/>
<feBlend mode="normal" in="SourceGraphic" in2="BackgroundImageFix" result="shape"/>
<feColorMatrix in="SourceAlpha" type="matrix" values="0 0 0 0 0 0 0 0 0 0 0 0 0 0 0 0 0 0 127 0" result="hardAlpha"/>
<feOffset dy="1"/>
<feGaussianBlur stdDeviation="1"/>
<feComposite in2="hardAlpha" operator="arithmetic" k2="-1" k3="1"/>
<feColorMatrix type="matrix" values="0 0 0 0 0.00583168 0 0 0 0 0 0 0 0 0 0.287695 0 0 0 0.25 0"/>
<feBlend mode="normal" in2="shape" result="effect1_innerShadow_463_1203"/>
</filter>
<filter id="filter11_di_463_1203" x="226.801" y="237.209" width="55.835" height="55.8351" filterUnits="userSpaceOnUse" color-interpolation-filters="sRGB">
<feFlood flood-opacity="0" result="BackgroundImageFix"/>
<feColorMatrix in="SourceAlpha" type="matrix" values="0 0 0 0 0 0 0 0 0 0 0 0 0 0 0 0 0 0 127 0" result="hardAlpha"/>
<feOffset/>
<feGaussianBlur stdDeviation="5"/>
<feComposite in2="hardAlpha" operator="out"/>
<feColorMatrix type="matrix" values="0 0 0 0 0.279167 0 0 0 0 0.1675 0 0 0 0 0 0 0 0 0.15 0"/>
<feBlend mode="normal" in2="BackgroundImageFix" result="effect1_dropShadow_463_1203"/>
<feBlend mode="normal" in="SourceGraphic" in2="effect1_dropShadow_463_1203" result="shape"/>
<feColorMatrix in="SourceAlpha" type="matrix" values="0 0 0 0 0 0 0 0 0 0 0 0 0 0 0 0 0 0 127 0" result="hardAlpha"/>
<feOffset dx="1" dy="1"/>
<feGaussianBlur stdDeviation="1"/>
<feComposite in2="hardAlpha" operator="arithmetic" k2="-1" k3="1"/>
<feColorMatrix type="matrix" values="0 0 0 0 0 0 0 0 0 0.485167 0 0 0 0 0.591667 0 0 0 0.25 0"/>
<feBlend mode="normal" in2="shape" result="effect2_innerShadow_463_1203"/>
</filter>
<filter id="filter12_d_463_1203" x="234.801" y="245.209" width="39.835" height="39.8351" filterUnits="userSpaceOnUse" color-interpolation-filters="sRGB">
<feFlood flood-opacity="0" result="BackgroundImageFix"/>
<feColorMatrix in="SourceAlpha" type="matrix" values="0 0 0 0 0 0 0 0 0 0 0 0 0 0 0 0 0 0 127 0" result="hardAlpha"/>
<feOffset/>
<feGaussianBlur stdDeviation="1"/>
<feComposite in2="hardAlpha" operator="out"/>
<feColorMatrix type="matrix" values="0 0 0 0 0.279167 0 0 0 0 0.1675 0 0 0 0 0 0 0 0 0.3 0"/>
<feBlend mode="normal" in2="BackgroundImageFix" result="effect1_dropShadow_463_1203"/>
<feBlend mode="normal" in="SourceGraphic" in2="effect1_dropShadow_463_1203" result="shape"/>
</filter>
<filter id="filter13_f_463_1203" x="89.6227" y="437.236" width="185.037" height="43.6641" filterUnits="userSpaceOnUse" color-interpolation-filters="sRGB">
<feFlood flood-opacity="0" result="BackgroundImageFix"/>
<feBlend mode="normal" in="SourceGraphic" in2="BackgroundImageFix" result="shape"/>
<feGaussianBlur stdDeviation="4.55" result="effect1_foregroundBlur_463_1203"/>
</filter>
<filter id="filter14_i_463_1203" x="94.7256" y="369.76" width="155.165" height="98.7009" filterUnits="userSpaceOnUse" color-interpolation-filters="sRGB">
<feFlood flood-opacity="0" result="BackgroundImageFix"/>
<feBlend mode="normal" in="SourceGraphic" in2="BackgroundImageFix" result="shape"/>
<feColorMatrix in="SourceAlpha" type="matrix" values="0 0 0 0 0 0 0 0 0 0 0 0 0 0 0 0 0 0 127 0" result="hardAlpha"/>
<feOffset dx="-2" dy="-1"/>
<feGaussianBlur stdDeviation="1"/>
<feComposite in2="hardAlpha" operator="arithmetic" k2="-1" k3="1"/>
<feColorMatrix type="matrix" values="0 0 0 0 1 0 0 0 0 1 0 0 0 0 1 0 0 0 0.5 0"/>
<feBlend mode="normal" in2="shape" result="effect1_innerShadow_463_1203"/>
</filter>
<filter id="filter15_i_463_1203" x="168.008" y="90.5596" width="56.2314" height="57.5591" filterUnits="userSpaceOnUse" color-interpolation-filters="sRGB">
<feFlood flood-opacity="0" result="BackgroundImageFix"/>
<feBlend mode="normal" in="SourceGraphic" in2="BackgroundImageFix" result="shape"/>
<feColorMatrix in="SourceAlpha" type="matrix" values="0 0 0 0 0 0 0 0 0 0 0 0 0 0 0 0 0 0 127 0" result="hardAlpha"/>
<feOffset dx="-1" dy="-1"/>
<feGaussianBlur stdDeviation="1"/>
<feComposite in2="hardAlpha" operator="arithmetic" k2="-1" k3="1"/>
<feColorMatrix type="matrix" values="0 0 0 0 0.932833 0 0 0 0 0.741667 0 0 0 0 1 0 0 0 0.25 0"/>
<feBlend mode="normal" in2="shape" result="effect1_innerShadow_463_1203"/>
</filter>
<filter id="filter16_i_463_1203" x="207.86" y="26.6095" width="56.2314" height="57.5591" filterUnits="userSpaceOnUse" color-interpolation-filters="sRGB">
<feFlood flood-opacity="0" result="BackgroundImageFix"/>
<feBlend mode="normal" in="SourceGraphic" in2="BackgroundImageFix" result="shape"/>
<feColorMatrix in="SourceAlpha" type="matrix" values="0 0 0 0 0 0 0 0 0 0 0 0 0 0 0 0 0 0 127 0" result="hardAlpha"/>
<feOffset dx="-1" dy="-1"/>
<feGaussianBlur stdDeviation="1"/>
<feComposite in2="hardAlpha" operator="arithmetic" k2="-1" k3="1"/>
<feColorMatrix type="matrix" values="0 0 0 0 0.932833 0 0 0 0 0.741667 0 0 0 0 1 0 0 0 0.25 0"/>
<feBlend mode="normal" in2="shape" result="effect1_innerShadow_463_1203"/>
</filter>
<filter id="filter17_i_463_1203" x="127" y="9" width="56.2314" height="57.5591" filterUnits="userSpaceOnUse" color-interpolation-filters="sRGB">
<feFlood flood-opacity="0" result="BackgroundImageFix"/>
<feBlend mode="normal" in="SourceGraphic" in2="BackgroundImageFix" result="shape"/>
<feColorMatrix in="SourceAlpha" type="matrix" values="0 0 0 0 0 0 0 0 0 0 0 0 0 0 0 0 0 0 127 0" result="hardAlpha"/>
<feOffset dx="-1" dy="-1"/>
<feGaussianBlur stdDeviation="1"/>
<feComposite in2="hardAlpha" operator="arithmetic" k2="-1" k3="1"/>
<feColorMatrix type="matrix" values="0 0 0 0 0.932833 0 0 0 0 0.741667 0 0 0 0 1 0 0 0 0.25 0"/>
<feBlend mode="normal" in2="shape" result="effect1_innerShadow_463_1203"/>
</filter>
<linearGradient id="paint0_linear_463_1203" x1="336.589" y1="215.103" x2="239.827" y2="340.247" gradientUnits="userSpaceOnUse">
<stop stop-color="#81BE65"/>
<stop offset="1" stop-color="#638BC7"/>
</linearGradient>
<linearGradient id="paint1_linear_463_1203" x1="298.006" y1="152.363" x2="224.702" y2="349.234" gradientUnits="userSpaceOnUse">
<stop stop-color="#FFAD61"/>
<stop offset="1" stop-color="#04B05E"/>
</linearGradient>
<linearGradient id="paint2_linear_463_1203" x1="139.328" y1="138.298" x2="139.328" y2="355.836" gradientUnits="userSpaceOnUse">
<stop stop-color="#EEA5F9"/>
<stop offset="1" stop-color="#6A67FC"/>
</linearGradient>
<linearGradient id="paint3_linear_463_1203" x1="64.9796" y1="275" x2="64.9796" y2="407.772" gradientUnits="userSpaceOnUse">
<stop stop-color="#EEA5F9"/>
<stop offset="1" stop-color="#9795FF"/>
</linearGradient>
<linearGradient id="paint4_linear_463_1203" x1="76" y1="360" x2="76" y2="376" gradientUnits="userSpaceOnUse">
<stop stop-color="#EEA5F9"/>
<stop offset="1" stop-color="#9795FF"/>
</linearGradient>
<linearGradient id="paint5_linear_463_1203" x1="174.265" y1="263.486" x2="107.058" y2="367.826" gradientUnits="userSpaceOnUse">
<stop stop-color="#D9FFE8"/>
<stop offset="1" stop-color="#A4BDFF"/>
</linearGradient>
<linearGradient id="paint6_linear_463_1203" x1="204.092" y1="263.277" x2="136.885" y2="367.618" gradientUnits="userSpaceOnUse">
<stop stop-color="#D9FFE8"/>
<stop offset="1" stop-color="#A4BDFF"/>
</linearGradient>
<clipPath id="clip0_463_1203">
<rect width="340" height="489" fill="white"/>
</clipPath>
<clipPath id="clip1_463_1203">
<rect width="185" height="114" fill="white" transform="translate(91 364)"/>
</clipPath>
<clipPath id="clip2_463_1203">
<rect width="27.274" height="27.274" fill="white" transform="translate(183.058 101.477)"/>
</clipPath>
</defs>
</svg>
