<svg width="225" height="43" viewBox="0 0 225 43" fill="none" xmlns="http://www.w3.org/2000/svg">
<path d="M63.0996 42.7938H47.8996V19.3938H44.8996H44.6996L38.2997 42.5938H25.4997L19.2997 19.3938H19.0997H15.8997V42.5938H0.499756V-0.00610352H25.6997L30.6997 17.1939C31.4997 19.5938 31.8997 21.7938 31.8997 23.3938H32.0997C32.0997 21.5938 32.4997 19.5938 33.0997 17.1939L38.0997 -0.00610352H63.2996V42.7938H63.0996Z" fill="#9795FF"/>
<path d="M116.499 29.1938C116.499 33.3938 115.299 36.5938 113.299 39.1938C111.099 41.7938 107.899 42.9938 103.699 42.9938H83.8991C80.4991 42.9938 77.6991 41.3938 75.6991 38.5938C73.6991 35.9938 73.0991 32.7938 73.0991 29.1938V12.5939C73.0991 8.99387 74.0991 6.19388 75.6991 3.79389C77.6991 1.39389 80.4991 -0.00610352 83.8991 -0.00610352H104.699C108.499 -0.00610352 111.499 1.19389 113.699 3.39389C115.699 5.59388 116.699 8.79387 116.699 12.5939L116.499 29.1938ZM101.299 29.1938V13.7939H88.2991V29.1938H101.299Z" fill="#9795FF"/>
<path d="M171.3 42.7938H156.1V26.9938H141.9V42.7938H126.7V-0.00610352H141.9V14.9939H156.1V-0.00610352H171.3V42.7938Z" fill="#9795FF"/>
<path d="M224.5 29.1938C224.5 33.3938 223.3 36.5938 221.3 39.1938C219.1 41.7938 215.9 42.9938 211.7 42.9938H192.1C188.7 42.9938 185.9 41.3938 183.9 38.5938C181.9 35.9938 181.3 32.7938 181.3 29.1938V12.5939C181.3 8.99387 182.3 6.19388 183.9 3.79389C185.9 1.39389 188.7 -0.00610352 192.1 -0.00610352H212.5C216.3 -0.00610352 219.3 1.19389 221.5 3.39389C223.5 5.59388 224.5 8.79387 224.5 12.5939V29.1938ZM209.3 29.1938V13.7939H196.3V29.1938H209.3Z" fill="#9795FF"/>
</svg>
