<svg width="17" height="21" viewBox="0 0 17 21" fill="none" xmlns="http://www.w3.org/2000/svg">
<path d="M4.5 20.1045C3.4 20.1045 2.45833 19.7128 1.675 18.9295C0.891667 18.1462 0.5 17.2045 0.5 16.1045V6.10449C0.5 5.00449 0.891667 4.06283 1.675 3.27949C2.45833 2.49616 3.4 2.10449 4.5 2.10449H5.5V0.104492H7.5V2.10449H9.5V0.104492H11.5V2.10449H12.5C13.6 2.10449 14.5417 2.49616 15.325 3.27949C16.1083 4.06283 16.5 5.00449 16.5 6.10449V16.1045C16.5 17.2045 16.1083 18.1462 15.325 18.9295C14.5417 19.7128 13.6 20.1045 12.5 20.1045H4.5ZM4.5 18.1045H12.5C13.05 18.1045 13.5208 17.9087 13.9125 17.517C14.3042 17.1253 14.5 16.6545 14.5 16.1045V6.10449C14.5 5.55449 14.3042 5.08366 13.9125 4.69199C13.5208 4.30033 13.05 4.10449 12.5 4.10449H4.5C3.95 4.10449 3.47917 4.30033 3.0875 4.69199C2.69583 5.08366 2.5 5.55449 2.5 6.10449V16.1045C2.5 16.6545 2.69583 17.1253 3.0875 17.517C3.47917 17.9087 3.95 18.1045 4.5 18.1045ZM4.5 8.10449H12.5V6.10449H4.5V8.10449ZM8.5 16.1045C9.2 16.1045 9.79167 15.867 10.275 15.392C10.7583 14.917 11 14.3378 11 13.6545C11 13.1045 10.8417 12.6337 10.525 12.242C10.2083 11.8503 9.53333 11.0545 8.5 9.85449C7.45 11.0545 6.77083 11.8545 6.4625 12.2545C6.15417 12.6545 6 13.1212 6 13.6545C6 14.3378 6.24167 14.917 6.725 15.392C7.20833 15.867 7.8 16.1045 8.5 16.1045Z" fill="#7D7BDD"/>
</svg>
