<svg width="137" height="46" viewBox="0 0 137 46" fill="none" xmlns="http://www.w3.org/2000/svg">
<path d="M0 7.10214L15.6247 0L136.689 7.10214V46H0V7.10214Z" fill="#9795FF"/>
<path d="M130.133 30.8124C130.133 33.1069 129.478 34.8551 128.385 36.2755C127.183 37.696 125.435 38.3515 123.14 38.3515H112.432C110.575 38.3515 109.045 37.4774 107.953 35.9478C106.86 34.5273 106.532 32.7791 106.532 30.8124V21.7435C106.532 19.7767 107.079 18.247 107.953 16.9359C109.045 15.6247 110.575 14.8599 112.432 14.8599H123.577C125.653 14.8599 127.292 15.5154 128.494 16.7173C129.587 17.9192 130.133 19.6675 130.133 21.7435V30.8124ZM121.829 30.8124V22.3991H114.727V30.8124H121.829Z" fill="white"/>
<path d="M101.069 38.2423H92.7646L85.0069 26.8789V38.2423H76.7029V14.8599H85.0069L92.7646 26.2233V14.8599H101.069V38.2423Z" fill="white"/>
<path d="M71.1304 30.8124C71.1304 33.1069 70.4748 34.8551 69.3822 36.2755C68.1803 37.696 66.432 38.3515 64.1375 38.3515H53.3204C51.4629 38.3515 49.9332 37.4774 48.8406 35.9478C47.748 34.5273 47.4202 32.7791 47.4202 30.8124V21.7435C47.4202 19.7767 47.9665 18.247 48.8406 16.9359C49.9332 15.6247 51.4629 14.8599 53.3204 14.8599H64.6838C66.7598 14.8599 68.3988 15.5154 69.6007 16.7173C70.6933 17.9192 71.2396 19.6675 71.2396 21.7435L71.1304 30.8124ZM62.8263 30.8124V22.3991H55.7242V30.8124H62.8263Z" fill="white"/>
<path d="M41.9573 38.2423H33.6533V25.4584H32.0143H31.9051L28.4086 38.133H21.4158L18.0286 25.4584H17.9193H16.1711V38.133H7.75781V14.8599H21.525L24.2566 24.2565C24.6937 25.5677 24.9122 26.7696 24.9122 27.6437H25.0215C25.0215 26.6603 25.24 25.5677 25.5678 24.2565L28.2994 14.8599H42.0666L41.9573 38.2423Z" fill="white"/>
</svg>
