<svg width="48" height="51" viewBox="0 0 48 51" fill="none" xmlns="http://www.w3.org/2000/svg">
<g filter="url(#filter0_ii_182_653)">
<path d="M0 16.6373C0 14.0161 1.46438 11.6146 3.79459 10.4143L20.6041 1.75583C22.6155 0.719782 25.0036 0.719783 27.0149 1.75583L43.8245 10.4143C46.1547 11.6146 47.619 14.0161 47.619 16.6373V43.1047C47.619 46.9707 44.485 50.1047 40.619 50.1047H7C3.13401 50.1047 0 46.9707 0 43.1047V16.6373Z" fill="url(#paint0_linear_182_653)"/>
</g>
<g filter="url(#filter1_di_182_653)">
<path d="M23.9541 41.1047C20.8561 41.1047 18.1605 40.0794 15.8675 38.0286C13.5745 35.9778 12.2854 33.4093 12 30.323H15.8828C16.1885 32.3332 17.1006 33.9931 18.6191 35.3027C20.1376 36.6124 21.9159 37.2672 23.9541 37.2672C26.2369 37.2672 28.1733 36.4753 29.7631 34.8915C31.3529 33.3078 32.1478 31.3788 32.1478 29.1047C32.1478 26.8306 31.3529 24.9017 29.7631 23.3179C28.1733 21.7342 26.2369 20.9423 23.9541 20.9423C22.7924 20.9423 21.6815 21.1809 20.6217 21.658C19.5618 22.1352 18.6446 22.8205 17.8701 23.7139H20.3771V26.6682H12.214V18.5971H15.1185V21.0032C16.2599 19.7443 17.5898 18.7799 19.1083 18.1098C20.6268 17.4398 22.242 17.1047 23.9541 17.1047C25.6051 17.1047 27.1643 17.4195 28.6318 18.0489C30.0994 18.6783 31.3783 19.5362 32.4688 20.6225C33.5592 21.7088 34.4204 22.9829 35.0522 24.4448C35.6841 25.9068 36 27.4601 36 29.1047C36 30.7494 35.6841 32.3027 35.0522 33.7646C34.4204 35.2266 33.5592 36.5007 32.4688 37.587C31.3783 38.6733 30.0994 39.5311 28.6318 40.1606C27.1643 40.79 25.6051 41.1047 23.9541 41.1047ZM27.2255 34.4651L22.5783 29.8357V23.0134H25.4828V28.6174L29.3045 32.3941L27.2255 34.4651Z" fill="#FCF0FF"/>
</g>
<defs>
<filter id="filter0_ii_182_653" x="0" y="0.97876" width="47.6191" height="51.126" filterUnits="userSpaceOnUse" color-interpolation-filters="sRGB">
<feFlood flood-opacity="0" result="BackgroundImageFix"/>
<feBlend mode="normal" in="SourceGraphic" in2="BackgroundImageFix" result="shape"/>
<feColorMatrix in="SourceAlpha" type="matrix" values="0 0 0 0 0 0 0 0 0 0 0 0 0 0 0 0 0 0 127 0" result="hardAlpha"/>
<feOffset dy="2"/>
<feGaussianBlur stdDeviation="2"/>
<feComposite in2="hardAlpha" operator="arithmetic" k2="-1" k3="1"/>
<feColorMatrix type="matrix" values="0 0 0 0 1 0 0 0 0 1 0 0 0 0 1 0 0 0 0.25 0"/>
<feBlend mode="normal" in2="shape" result="effect1_innerShadow_182_653"/>
<feColorMatrix in="SourceAlpha" type="matrix" values="0 0 0 0 0 0 0 0 0 0 0 0 0 0 0 0 0 0 127 0" result="hardAlpha"/>
<feOffset/>
<feGaussianBlur stdDeviation="2"/>
<feComposite in2="hardAlpha" operator="arithmetic" k2="-1" k3="1"/>
<feColorMatrix type="matrix" values="0 0 0 0 1 0 0 0 0 1 0 0 0 0 1 0 0 0 0.25 0"/>
<feBlend mode="normal" in2="effect1_innerShadow_182_653" result="effect2_innerShadow_182_653"/>
</filter>
<filter id="filter1_di_182_653" x="10" y="15.1047" width="28" height="28" filterUnits="userSpaceOnUse" color-interpolation-filters="sRGB">
<feFlood flood-opacity="0" result="BackgroundImageFix"/>
<feColorMatrix in="SourceAlpha" type="matrix" values="0 0 0 0 0 0 0 0 0 0 0 0 0 0 0 0 0 0 127 0" result="hardAlpha"/>
<feOffset/>
<feGaussianBlur stdDeviation="1"/>
<feComposite in2="hardAlpha" operator="out"/>
<feColorMatrix type="matrix" values="0 0 0 0 0.368333 0 0 0 0 0 0 0 0 0 0.541667 0 0 0 0.25 0"/>
<feBlend mode="normal" in2="BackgroundImageFix" result="effect1_dropShadow_182_653"/>
<feBlend mode="normal" in="SourceGraphic" in2="effect1_dropShadow_182_653" result="shape"/>
<feColorMatrix in="SourceAlpha" type="matrix" values="0 0 0 0 0 0 0 0 0 0 0 0 0 0 0 0 0 0 127 0" result="hardAlpha"/>
<feOffset/>
<feGaussianBlur stdDeviation="1"/>
<feComposite in2="hardAlpha" operator="arithmetic" k2="-1" k3="1"/>
<feColorMatrix type="matrix" values="0 0 0 0 0.73075 0 0 0 0 0 0 0 0 0 0.9875 0 0 0 0.25 0"/>
<feBlend mode="normal" in2="shape" result="effect2_innerShadow_182_653"/>
</filter>
<linearGradient id="paint0_linear_182_653" x1="23.8095" y1="0.104736" x2="23.8095" y2="50.1047" gradientUnits="userSpaceOnUse">
<stop stop-color="#EEA5F9"/>
<stop offset="1" stop-color="#9795FF"/>
</linearGradient>
</defs>
</svg>
