<svg width="102" height="31" viewBox="0 0 102 31" fill="none" xmlns="http://www.w3.org/2000/svg">
<path d="M31.5 20.261C31.5 23.0735 30.5312 25.4172 29.0781 27.2922C27.625 29.1672 25.2031 30.1047 22.2969 30.1047H8.25C5.82812 30.1047 3.89062 29.1672 2.43749 27.2922C0.984364 25.4172 0.5 23.5422 0.5 20.7297V9.01099C0.5 6.66724 0.984364 4.32348 2.43749 2.91723C3.89062 1.04223 5.82812 0.104736 8.25 0.104736H22.7813C25.6875 0.104736 27.625 1.04224 29.0781 2.44849C30.5312 3.85474 31.5 6.19848 31.5 9.01099V20.261Z" fill="#9795FF"/>
<path d="M66.5 29.1047H36.5V0.104736H66.5V29.1047Z" fill="#9795FF"/>
<path d="M101.5 20.7297C101.5 23.5422 100.563 25.886 99.1562 27.761C97.75 29.636 95.4063 30.1047 92.5938 30.1047H79C76.6562 30.1047 74.7812 29.1672 73.375 27.2922C71.9687 25.4172 71.5 23.5422 71.5 20.7297V9.01099C71.5 6.66724 71.9687 4.32349 73.375 2.91724C74.7812 1.04224 76.6562 0.104736 79 0.104736H93.0625C95.875 0.104736 97.75 1.04224 99.1562 2.44849C100.563 3.85474 101.5 6.19848 101.5 9.01099V20.7297Z" fill="#9795FF"/>
</svg>
