<svg width="246" height="197" viewBox="0 0 246 197" fill="none" xmlns="http://www.w3.org/2000/svg">
<g clip-path="url(#clip0_480_1521)">
<g filter="url(#filter0_i_480_1521)">
<path d="M64.1965 109.305C83.6345 132.454 87.0235 161.606 87.0235 161.606C87.0235 161.606 58.8971 153.225 39.4592 130.076C20.0212 106.926 16.6322 77.7741 16.6322 77.7741C16.6322 77.7741 44.7586 86.155 64.1965 109.305Z" fill="url(#paint0_linear_480_1521)"/>
</g>
<path d="M85.8461 159.895C85.8461 159.895 74.898 147.989 61.1041 132.114M19.4133 80.6957C25.0163 88.4981 31.8771 97.2483 39.0393 106.009M39.0393 106.009L37.0483 89.9645M39.0393 106.009C46.4234 115.042 54.1277 124.086 61.1041 132.114M61.1041 132.114L40.9754 128.094" stroke="white" stroke-opacity="0.3" stroke-linecap="round"/>
<g filter="url(#filter1_i_480_1521)">
<path d="M84.6317 90.9908C97.4845 126.199 89.0923 161.608 89.0923 161.608C89.0923 161.608 59.8615 139.933 47.0087 104.725C34.1558 69.517 42.548 34.1079 42.548 34.1079C42.548 34.1079 71.7788 55.7826 84.6317 90.9908Z" fill="url(#paint1_linear_480_1521)"/>
</g>
<path d="M88.4428 159.106C88.4428 159.106 80.724 140.596 71.3689 116.256M44.5502 38.6818C47.7768 50.1469 52.0681 63.2491 56.706 76.4915M56.706 76.4915L61.1784 56.9497M56.706 76.4915C61.4876 90.1442 66.6375 103.946 71.3689 116.256M71.3689 116.256L49.6128 103.049" stroke="white" stroke-opacity="0.3" stroke-linecap="round"/>
<g filter="url(#filter2_ii_480_1521)">
<path d="M71.5652 80.1094C71.5652 74.4926 74.7031 69.3464 79.6964 66.7744L122.41 44.7729C126.72 42.5528 131.837 42.5528 136.147 44.7729L178.861 66.7744C183.854 69.3464 186.992 74.4926 186.992 80.1094V147.433C186.992 155.718 180.277 162.433 171.992 162.433H86.5652C78.2809 162.433 71.5652 155.718 71.5652 147.433V80.1094Z" fill="url(#paint2_linear_480_1521)"/>
</g>
<g filter="url(#filter3_f_480_1521)">
<ellipse cx="130.241" cy="161.472" rx="85.6084" ry="4.80946" fill="#9795FF" fill-opacity="0.3"/>
</g>
<g filter="url(#filter4_di_480_1521)">
<circle cx="128.493" cy="91.0877" r="18.3026" fill="#FCF0FF"/>
</g>
<g filter="url(#filter5_di_480_1521)">
<path d="M96.1109 137.092C96.1109 123.348 107.252 112.207 120.996 112.207H135.988C149.732 112.207 160.874 123.348 160.874 137.092C160.874 137.344 160.669 137.549 160.417 137.549H96.5675C96.3153 137.549 96.1109 137.344 96.1109 137.092Z" fill="#FCF0FF"/>
</g>
<g filter="url(#filter6_di_480_1521)">
<rect x="32.2187" y="96.1597" width="43.7716" height="54.4476" rx="3" transform="rotate(-11.7296 32.2187 96.1597)" fill="#F0F9FF"/>
</g>
<rect x="38.348" y="111.919" width="38.453" height="35.3231" rx="2" transform="rotate(-11.7296 38.348 111.919)" fill="url(#paint3_linear_480_1521)"/>
<path d="M43.9258 107.905C42.912 108.115 41.979 107.958 41.1267 107.433C40.2743 106.908 39.748 106.163 39.5475 105.198C39.4514 104.735 39.4528 104.273 39.5517 103.811C39.6507 103.35 39.8381 102.922 40.1139 102.527L42.1895 99.5421L45.2817 101.454C45.6918 101.706 46.0342 102.024 46.3087 102.408C46.5832 102.792 46.7685 103.216 46.8647 103.679C47.0651 104.644 46.8788 105.537 46.3058 106.358C45.7328 107.179 44.9395 107.694 43.9258 107.905Z" fill="#FF4D00"/>
<rect x="49.2009" y="99.1763" width="22.4196" height="5.338" rx="2" transform="rotate(-11.7296 49.2009 99.1763)" fill="#FFD25F"/>
<path d="M52.4047 128.357L49.8973 128.877C49.6479 128.929 49.3882 128.88 49.1753 128.74C48.9623 128.6 48.8136 128.382 48.7618 128.132C48.7101 127.883 48.7595 127.623 48.8992 127.41C49.0389 127.197 49.2575 127.048 49.5069 126.997L52.0142 126.476C52.2636 126.424 52.5233 126.474 52.7363 126.613C52.9492 126.753 53.0979 126.972 53.1497 127.221C53.2015 127.47 53.1521 127.73 53.0124 127.943C52.8726 128.156 52.6541 128.305 52.4047 128.357Z" fill="#7D7BDD"/>
<path d="M53.6083 121.567C53.359 121.618 53.0994 121.569 52.8866 121.429L50.6454 119.893C50.4962 119.857 50.358 119.785 50.2424 119.684C50.1267 119.583 50.2986 119.827 50.2424 119.684C50.1861 119.541 50.203 119.154 50.2188 119.001C50.2346 118.848 50.2868 118.702 50.3711 118.573C50.4554 118.445 50.5693 118.338 50.7032 118.263C50.8371 118.188 51.1322 118.097 51.2858 118.092C51.1469 118.026 51.4393 118.087 51.2858 118.092C51.4246 118.158 51.5458 118.257 51.6388 118.379L53.9098 119.869C54.0546 119.976 54.1667 120.12 54.2335 120.287C54.3003 120.453 54.319 120.635 54.2876 120.812C54.2563 120.989 54.176 121.153 54.0559 121.287C53.9358 121.42 53.7808 121.517 53.6083 121.567Z" fill="#7D7BDD"/>
<path d="M59.3571 117.762C59.1077 117.814 58.848 117.764 58.635 117.625C58.4221 117.485 58.2734 117.266 58.2216 117.017L57.701 114.51C57.6492 114.26 57.6986 114 57.8383 113.788C57.9781 113.575 58.1966 113.426 58.446 113.374C58.6954 113.322 58.9551 113.372 59.1681 113.511C59.381 113.651 59.5297 113.87 59.5815 114.119L60.1021 116.627C60.1539 116.876 60.1045 117.136 59.9648 117.349C59.825 117.561 59.6064 117.71 59.3571 117.762Z" fill="#7D7BDD"/>
<path d="M66.1459 118.964C65.96 119.002 65.7669 118.985 65.591 118.914C65.415 118.842 65.2642 118.721 65.1574 118.564C65.0507 118.407 64.9928 118.222 64.9912 118.032C64.9896 117.842 65.0442 117.656 65.1482 117.497L66.6837 115.256C66.7204 115.107 66.8484 115.076 66.9495 114.96C67.0925 114.904 67.3564 114.827 67.5093 114.843C67.6621 114.859 67.8089 114.911 67.9373 114.995C68.0658 115.08 68.1721 115.194 68.2475 115.327C68.3228 115.461 68.4786 115.743 68.484 115.897C68.4893 116.05 68.5498 115.758 68.484 115.897C68.4182 116.035 68.32 116.156 68.1977 116.249L66.7076 118.52C66.5845 118.735 66.3833 118.894 66.1459 118.964Z" fill="#7D7BDD"/>
<path d="M72.4623 124.194L69.955 124.715C69.7056 124.766 69.4459 124.717 69.2329 124.577C69.02 124.438 68.8713 124.219 68.8195 123.97C68.7677 123.72 68.8171 123.46 68.9568 123.248C69.0966 123.035 69.3152 122.886 69.5645 122.834L72.0719 122.313C72.3213 122.262 72.581 122.311 72.7939 122.451C73.0069 122.591 73.1556 122.809 73.2074 123.059C73.2592 123.308 73.2097 123.568 73.07 123.781C72.9303 123.993 72.7117 124.142 72.4623 124.194Z" fill="#7D7BDD"/>
<path d="M61.505 128.105C62.8897 127.817 63.7793 126.462 63.4917 125.077C63.2042 123.692 61.8485 122.803 60.4638 123.09C59.079 123.378 58.1895 124.733 58.477 126.118C58.7645 127.503 60.1202 128.392 61.505 128.105Z" fill="#7D7BDD"/>
<path d="M61.1341 126.32C60.9482 126.359 60.7551 126.341 60.5792 126.27C60.4033 126.199 60.2524 126.077 60.1457 125.92C60.0389 125.763 59.9811 125.578 59.9794 125.388C59.9778 125.198 60.0324 125.012 60.1365 124.854L62.9477 120.569C63.0915 120.366 63.3085 120.226 63.5529 120.18C63.7974 120.134 64.0503 120.184 64.2584 120.321C64.4664 120.457 64.6134 120.669 64.6682 120.912C64.7231 121.155 64.6816 121.409 64.5526 121.622L61.7413 125.907C61.6017 126.119 61.3833 126.268 61.1341 126.32Z" fill="#7D7BDD"/>
<circle cx="60.985" cy="125.595" r="13.5524" transform="rotate(-11.7296 60.985 125.595)" stroke="#7D7BDD" stroke-width="1.5"/>
<g filter="url(#filter7_di_480_1521)">
<rect x="65.6169" y="127.022" width="30.0646" height="20.4986" rx="2" fill="#FFD25F"/>
</g>
<g filter="url(#filter8_di_480_1521)">
<path d="M65.6169 128.737C65.6169 127.79 66.3848 127.022 67.332 127.022H93.9665C94.9137 127.022 95.6815 127.79 95.6815 128.737C95.6815 129.365 95.3387 129.943 94.7877 130.243L81.6069 137.433C81.01 137.758 80.2885 137.758 79.6915 137.433L66.5107 130.243C65.9598 129.943 65.6169 129.365 65.6169 128.737Z" fill="#FFD25F"/>
</g>
<g filter="url(#filter9_f_480_1521)">
<ellipse cx="31.6204" cy="159.335" rx="15.904" ry="1.40726" fill="#9795FF" fill-opacity="0.5"/>
</g>
<path d="M39.9784 160.02H26.1588C23.4252 160.02 20.8436 158.198 19.9324 155.616L15.9839 144.682C15.2246 142.708 16.1358 140.43 18.11 139.67C19.173 139.215 20.2361 139.215 21.1473 139.67C22.0585 140.126 22.8178 140.885 23.2734 141.948L27.3737 152.579L25.3995 153.338L21.2992 142.708C21.1473 142.252 20.8436 141.948 20.388 141.645C19.9324 141.493 19.4768 141.493 19.0212 141.645C18.11 141.948 17.6544 143.011 17.9582 143.922L22.0585 154.857C22.6659 156.679 24.3364 157.742 26.1588 157.742H37.7004L35.7262 156.072L37.2448 154.401L40.8895 157.742C41.3451 158.046 41.3451 158.653 41.1933 159.109C41.0414 159.564 40.5858 160.02 39.9784 160.02Z" fill="#9795FF"/>
<path d="M32.5369 158.499C31.322 158.499 30.1071 158.195 28.8922 157.74C27.3736 157.132 26.0068 155.462 25.3993 153.639C24.9438 151.969 25.0956 150.298 26.0068 149.083C27.2217 147.565 29.0441 146.502 31.0183 146.654C32.5369 146.805 33.7518 147.565 34.5112 148.78C35.4224 150.45 35.4224 152.273 34.2074 153.487C33.1444 154.702 31.322 155.158 29.9553 154.551C28.5885 153.943 27.8292 152.728 27.9811 151.058L30.1071 151.21C30.1071 151.969 30.259 152.424 30.7146 152.728C31.322 152.88 32.0813 152.728 32.5369 152.273C33.1444 151.665 32.8407 150.754 32.5369 150.146C32.0813 149.387 31.322 149.235 30.8664 149.083C29.6515 148.932 28.4366 149.691 27.6773 150.602C27.0699 151.513 27.2217 152.576 27.3736 153.336C27.8292 154.702 28.7403 155.765 29.4997 156.069C31.7776 156.98 34.5112 156.828 35.7261 155.158C38.6115 150.754 36.1816 147.261 35.2705 146.198C32.9925 143.616 27.5255 143.313 23.577 145.742L22.6658 143.616C27.5255 140.731 34.2074 141.187 37.0928 144.528C38.1559 145.742 41.345 150.298 37.7003 156.069C36.6372 157.892 34.5112 158.499 32.5369 158.499Z" fill="#9795FF"/>
<path d="M21.6032 140.73L19.4771 140.427C19.7808 138.756 21.2994 135.719 24.9442 135.263L25.096 137.389C22.2106 137.693 21.6032 140.73 21.6032 140.73Z" fill="#9795FF"/>
<path d="M16.2886 142.854C15.3774 140.88 15.0737 136.476 19.4777 133.743L20.5407 135.565C16.5923 137.995 18.1109 141.64 18.2628 141.943L16.2886 142.854Z" fill="#9795FF"/>
<path d="M19.9326 135.72C20.5197 135.72 20.9956 135.244 20.9956 134.657C20.9956 134.07 20.5197 133.594 19.9326 133.594C19.3455 133.594 18.8696 134.07 18.8696 134.657C18.8696 135.244 19.3455 135.72 19.9326 135.72Z" fill="#9795FF"/>
<path d="M25.0957 137.389C25.6828 137.389 26.1588 136.913 26.1588 136.326C26.1588 135.739 25.6828 135.263 25.0957 135.263C24.5086 135.263 24.0327 135.739 24.0327 136.326C24.0327 136.913 24.5086 137.389 25.0957 137.389Z" fill="#9795FF"/>
<g filter="url(#filter10_f_480_1521)">
<ellipse cx="181.413" cy="185.095" rx="38.265" ry="3.99877" transform="rotate(7.21236 181.413 185.095)" fill="#9795FF" fill-opacity="0.3"/>
</g>
<g filter="url(#filter11_i_480_1521)">
<path d="M215.524 132.795C208.92 142.093 208.534 153.16 208.534 153.16C208.534 153.16 218.856 149.151 225.461 139.853C232.065 130.554 232.451 119.488 232.451 119.488C232.451 119.488 222.129 123.497 215.524 132.795Z" fill="url(#paint4_linear_480_1521)"/>
</g>
<path d="M208.924 152.477C208.924 152.477 212.678 147.666 217.382 141.276M231.494 120.668C229.624 123.773 227.311 127.273 224.884 130.786M224.884 130.786L225.144 124.692M224.884 130.786C222.383 134.408 219.761 138.044 217.382 141.276M217.382 141.276L224.829 139.151" stroke="white" stroke-opacity="0.3" stroke-width="0.4" stroke-linecap="round"/>
<g filter="url(#filter12_i_480_1521)">
<path d="M217.2 143.54C209.936 148.185 206.528 155.831 206.528 155.831C206.528 155.831 214.899 155.947 222.163 151.303C229.427 146.659 232.835 139.013 232.835 139.013C232.835 139.013 224.465 138.896 217.2 143.54Z" fill="url(#paint5_linear_480_1521)"/>
</g>
<path d="M206.997 155.466C206.997 155.466 210.992 153.158 216.1 150.013M231.831 139.571C229.641 141.217 227.028 143.014 224.331 144.788M224.331 144.788L226.241 140.591M224.331 144.788C221.552 146.618 218.684 148.423 216.1 150.013M216.1 150.013L221.922 150.635" stroke="white" stroke-opacity="0.3" stroke-width="0.4" stroke-linecap="round"/>
<g filter="url(#filter13_i_480_1521)">
<path d="M166.522 128.562C171.298 135.21 171.619 143.151 171.619 143.151C171.619 143.151 164.195 140.314 159.418 133.666C154.641 127.018 154.321 119.077 154.321 119.077C154.321 119.077 161.745 121.914 166.522 128.562Z" fill="url(#paint6_linear_480_1521)"/>
</g>
<path d="M171.336 142.663C171.336 142.663 168.622 139.225 165.221 134.656M155.012 119.921C156.366 122.142 158.04 124.645 159.795 127.157M159.795 127.157L159.585 122.783M159.795 127.157C161.605 129.746 163.501 132.346 165.221 134.656M165.221 134.656L159.868 133.16" stroke="white" stroke-opacity="0.3" stroke-width="0.4" stroke-linecap="round"/>
<g filter="url(#filter14_i_480_1521)">
<path d="M176.945 122.38C182.575 135.305 180.233 148.79 180.233 148.79C180.233 148.79 168.763 141.32 163.134 128.395C157.504 115.471 159.846 101.985 159.846 101.985C159.846 101.985 171.316 109.455 176.945 122.38Z" fill="url(#paint7_linear_480_1521)"/>
</g>
<path d="M179.927 147.868C179.927 147.868 176.607 141.095 172.539 132.17M160.698 103.659C162.172 107.89 164.082 112.711 166.126 117.576M166.126 117.576L167.358 110.138M166.126 117.576C168.233 122.593 170.481 127.657 172.539 132.17M172.539 132.17L164.069 127.709" stroke="white" stroke-opacity="0.3" stroke-width="0.4" stroke-linecap="round"/>
<g filter="url(#filter15_ii_480_1521)">
<path d="M217.445 130.343C217.903 128.527 217.308 126.608 215.903 125.37L202.091 113.196C200.879 112.127 199.224 111.71 197.651 112.077L179.718 116.253C177.895 116.678 176.461 118.086 176.004 119.901L169.696 144.937C169.021 147.614 170.645 150.332 173.323 151.007L205.067 159.005C207.745 159.68 210.463 158.056 211.137 155.378L217.445 130.343Z" fill="url(#paint8_linear_480_1521)"/>
</g>
<path d="M184.139 130.205C184.505 130.117 184.886 130.014 185.282 129.895C185.692 129.766 186.091 129.623 186.481 129.466C186.872 129.298 187.247 129.121 187.604 128.935C187.976 128.739 188.314 128.526 188.618 128.295L190.467 128.59L188.5 140.908L185.852 140.485L187.268 131.615C186.874 131.796 186.442 131.951 185.972 132.083C185.503 132.203 185.05 132.3 184.613 132.376L184.139 130.205ZM201.919 136.706C201.588 138.78 200.936 140.311 199.965 141.298C199.007 142.275 197.834 142.653 196.448 142.432C195.061 142.21 194.059 141.485 193.441 140.257C192.837 139.018 192.7 137.362 193.031 135.288C193.196 134.257 193.442 133.36 193.77 132.599C194.11 131.839 194.52 131.218 194.998 130.735C195.476 130.252 196.01 129.912 196.6 129.715C197.191 129.517 197.824 129.473 198.499 129.58C199.886 129.802 200.881 130.532 201.485 131.77C202.103 132.999 202.248 134.645 201.919 136.706ZM199.217 136.275C199.315 135.659 199.375 135.097 199.395 134.59C199.417 134.071 199.392 133.618 199.32 133.229C199.249 132.841 199.116 132.529 198.923 132.291C198.73 132.054 198.468 131.909 198.136 131.856C197.804 131.803 197.51 131.859 197.253 132.024C197.007 132.192 196.784 132.448 196.583 132.792C196.394 133.139 196.229 133.562 196.089 134.062C195.95 134.551 195.831 135.103 195.733 135.719C195.635 136.335 195.575 136.903 195.552 137.422C195.53 137.941 195.555 138.394 195.627 138.783C195.71 139.173 195.843 139.485 196.024 139.721C196.217 139.958 196.479 140.104 196.811 140.156C197.143 140.209 197.437 140.153 197.695 139.988C197.952 139.822 198.175 139.566 198.364 139.22C198.553 138.873 198.718 138.45 198.859 137.95C198.999 137.45 199.119 136.891 199.217 136.275Z" fill="white"/>
<g filter="url(#filter16_dii_480_1521)">
<rect x="156.319" y="135.685" width="66.392" height="43.5697" rx="2" transform="rotate(7.03434 156.319 135.685)" fill="#3E8AFC"/>
</g>
<g filter="url(#filter17_di_480_1521)">
<path d="M197.791 155.36C197.926 154.264 198.925 153.485 200.021 153.62L223.812 156.556C224.36 156.623 224.75 157.122 224.682 157.671L222.64 174.218C222.573 174.766 222.073 175.155 221.525 175.088L197.734 172.152C196.638 172.017 195.859 171.019 195.994 169.922L197.791 155.36Z" fill="#3E8AFC"/>
</g>
<g filter="url(#filter18_d_480_1521)">
<circle cx="204.099" cy="163.532" r="3.11212" transform="rotate(7.03434 204.099 163.532)" fill="url(#paint9_linear_480_1521)"/>
</g>
<g filter="url(#filter19_i_480_1521)">
<path d="M60.2479 2C60.2479 0.895431 61.1433 0 62.2479 0H104.399C105.504 0 106.399 0.895431 106.399 2V37.8582C106.399 38.9627 105.504 39.8582 104.399 39.8582H95.5119C95.0892 39.8582 94.6774 39.9921 94.3356 40.2407L84.5 47.3938C83.7987 47.9039 82.8486 47.9039 82.1473 47.3938L72.3117 40.2407C71.9699 39.9921 71.5581 39.8582 71.1354 39.8582H62.2479C61.1433 39.8582 60.2479 38.9627 60.2479 37.8582V2Z" fill="#FEFCFF"/>
</g>
<path d="M100.072 11.145C102.993 14.2367 103.166 19.0856 100.465 22.3387C98.0681 25.2704 94.231 26.1367 90.9339 24.9375L90.7378 24.8457L80.962 35.1767C80.8217 35.325 80.6067 35.4026 80.3888 35.3838L77.2866 35.0249C76.9956 34.9837 76.7468 34.7483 76.6896 34.46L76.1601 31.3824C76.1293 31.1658 76.195 30.9469 76.3353 30.7986L78.36 28.659C78.4535 28.5601 78.5719 28.4848 78.7401 28.4565L79.8925 28.2353C80.1805 28.1799 80.4144 27.9328 80.4538 27.6421L80.5643 26.5287C80.5599 26.384 80.6519 26.2368 80.7455 26.138L81.8112 25.0117C81.9282 24.8881 82.0949 24.8116 82.2397 24.8081L83.8542 24.6963C84.2154 24.6633 84.4961 24.3667 84.4842 23.9807L84.4381 22.4848C84.4321 22.2918 84.4993 22.1211 84.6163 21.9976L86.0863 20.4441L85.9838 20.2534C84.6587 17.2194 85.2228 13.5838 87.6084 11.0628C90.9762 7.50379 96.6989 7.48487 100.072 11.145ZM95.8383 14.8218C96.5348 15.4809 97.5966 15.4549 98.2514 14.7629C98.9063 14.0709 98.8736 13.0093 98.1771 12.3502C97.4806 11.6912 96.4188 11.7171 95.764 12.4091C95.1091 13.1011 95.1419 14.1627 95.8383 14.8218Z" fill="#FFC700"/>
<rect x="65.1195" y="15.6924" width="12.9873" height="4.3291" rx="0.5" fill="#9795FF"/>
<rect x="69.447" y="11.3613" width="4.3291" height="12.9873" rx="0.5" fill="#9795FF"/>
</g>
<defs>
<filter id="filter0_i_480_1521" x="15.6322" y="76.7739" width="71.3912" height="84.8325" filterUnits="userSpaceOnUse" color-interpolation-filters="sRGB">
<feFlood flood-opacity="0" result="BackgroundImageFix"/>
<feBlend mode="normal" in="SourceGraphic" in2="BackgroundImageFix" result="shape"/>
<feColorMatrix in="SourceAlpha" type="matrix" values="0 0 0 0 0 0 0 0 0 0 0 0 0 0 0 0 0 0 127 0" result="hardAlpha"/>
<feOffset dx="-1" dy="-1"/>
<feGaussianBlur stdDeviation="2"/>
<feComposite in2="hardAlpha" operator="arithmetic" k2="-1" k3="1"/>
<feColorMatrix type="matrix" values="0 0 0 0 1 0 0 0 0 1 0 0 0 0 1 0 0 0 0.4 0"/>
<feBlend mode="normal" in2="shape" result="effect1_innerShadow_480_1521"/>
</filter>
<filter id="filter1_i_480_1521" x="38.8564" y="33.1079" width="52.9275" height="128.5" filterUnits="userSpaceOnUse" color-interpolation-filters="sRGB">
<feFlood flood-opacity="0" result="BackgroundImageFix"/>
<feBlend mode="normal" in="SourceGraphic" in2="BackgroundImageFix" result="shape"/>
<feColorMatrix in="SourceAlpha" type="matrix" values="0 0 0 0 0 0 0 0 0 0 0 0 0 0 0 0 0 0 127 0" result="hardAlpha"/>
<feOffset dx="-1" dy="-1"/>
<feGaussianBlur stdDeviation="2"/>
<feComposite in2="hardAlpha" operator="arithmetic" k2="-1" k3="1"/>
<feColorMatrix type="matrix" values="0 0 0 0 1 0 0 0 0 1 0 0 0 0 1 0 0 0 0.4 0"/>
<feBlend mode="normal" in2="shape" result="effect1_innerShadow_480_1521"/>
</filter>
<filter id="filter2_ii_480_1521" x="71.5652" y="43.1079" width="115.427" height="121.325" filterUnits="userSpaceOnUse" color-interpolation-filters="sRGB">
<feFlood flood-opacity="0" result="BackgroundImageFix"/>
<feBlend mode="normal" in="SourceGraphic" in2="BackgroundImageFix" result="shape"/>
<feColorMatrix in="SourceAlpha" type="matrix" values="0 0 0 0 0 0 0 0 0 0 0 0 0 0 0 0 0 0 127 0" result="hardAlpha"/>
<feOffset dy="2"/>
<feGaussianBlur stdDeviation="2"/>
<feComposite in2="hardAlpha" operator="arithmetic" k2="-1" k3="1"/>
<feColorMatrix type="matrix" values="0 0 0 0 1 0 0 0 0 1 0 0 0 0 1 0 0 0 0.25 0"/>
<feBlend mode="normal" in2="shape" result="effect1_innerShadow_480_1521"/>
<feColorMatrix in="SourceAlpha" type="matrix" values="0 0 0 0 0 0 0 0 0 0 0 0 0 0 0 0 0 0 127 0" result="hardAlpha"/>
<feOffset/>
<feGaussianBlur stdDeviation="2"/>
<feComposite in2="hardAlpha" operator="arithmetic" k2="-1" k3="1"/>
<feColorMatrix type="matrix" values="0 0 0 0 1 0 0 0 0 1 0 0 0 0 1 0 0 0 0.25 0"/>
<feBlend mode="normal" in2="effect1_innerShadow_480_1521" result="effect2_innerShadow_480_1521"/>
</filter>
<filter id="filter3_f_480_1521" x="38.6326" y="150.663" width="183.217" height="21.6191" filterUnits="userSpaceOnUse" color-interpolation-filters="sRGB">
<feFlood flood-opacity="0" result="BackgroundImageFix"/>
<feBlend mode="normal" in="SourceGraphic" in2="BackgroundImageFix" result="shape"/>
<feGaussianBlur stdDeviation="3" result="effect1_foregroundBlur_480_1521"/>
</filter>
<filter id="filter4_di_480_1521" x="108.19" y="70.7852" width="40.6051" height="40.605" filterUnits="userSpaceOnUse" color-interpolation-filters="sRGB">
<feFlood flood-opacity="0" result="BackgroundImageFix"/>
<feColorMatrix in="SourceAlpha" type="matrix" values="0 0 0 0 0 0 0 0 0 0 0 0 0 0 0 0 0 0 127 0" result="hardAlpha"/>
<feOffset/>
<feGaussianBlur stdDeviation="1"/>
<feComposite in2="hardAlpha" operator="out"/>
<feColorMatrix type="matrix" values="0 0 0 0 0.368333 0 0 0 0 0 0 0 0 0 0.541667 0 0 0 0.25 0"/>
<feBlend mode="normal" in2="BackgroundImageFix" result="effect1_dropShadow_480_1521"/>
<feBlend mode="normal" in="SourceGraphic" in2="effect1_dropShadow_480_1521" result="shape"/>
<feColorMatrix in="SourceAlpha" type="matrix" values="0 0 0 0 0 0 0 0 0 0 0 0 0 0 0 0 0 0 127 0" result="hardAlpha"/>
<feOffset/>
<feGaussianBlur stdDeviation="1"/>
<feComposite in2="hardAlpha" operator="arithmetic" k2="-1" k3="1"/>
<feColorMatrix type="matrix" values="0 0 0 0 0.73075 0 0 0 0 0 0 0 0 0 0.9875 0 0 0 0.25 0"/>
<feBlend mode="normal" in2="shape" result="effect2_innerShadow_480_1521"/>
</filter>
<filter id="filter5_di_480_1521" x="94.1109" y="110.207" width="68.7629" height="29.3418" filterUnits="userSpaceOnUse" color-interpolation-filters="sRGB">
<feFlood flood-opacity="0" result="BackgroundImageFix"/>
<feColorMatrix in="SourceAlpha" type="matrix" values="0 0 0 0 0 0 0 0 0 0 0 0 0 0 0 0 0 0 127 0" result="hardAlpha"/>
<feOffset/>
<feGaussianBlur stdDeviation="1"/>
<feComposite in2="hardAlpha" operator="out"/>
<feColorMatrix type="matrix" values="0 0 0 0 0.368333 0 0 0 0 0 0 0 0 0 0.541667 0 0 0 0.25 0"/>
<feBlend mode="normal" in2="BackgroundImageFix" result="effect1_dropShadow_480_1521"/>
<feBlend mode="normal" in="SourceGraphic" in2="effect1_dropShadow_480_1521" result="shape"/>
<feColorMatrix in="SourceAlpha" type="matrix" values="0 0 0 0 0 0 0 0 0 0 0 0 0 0 0 0 0 0 127 0" result="hardAlpha"/>
<feOffset/>
<feGaussianBlur stdDeviation="1"/>
<feComposite in2="hardAlpha" operator="arithmetic" k2="-1" k3="1"/>
<feColorMatrix type="matrix" values="0 0 0 0 0.73075 0 0 0 0 0 0 0 0 0 0.9875 0 0 0 0.25 0"/>
<feBlend mode="normal" in2="shape" result="effect2_innerShadow_480_1521"/>
</filter>
<filter id="filter6_di_480_1521" x="29.7654" y="83.8076" width="60.8332" height="69.1162" filterUnits="userSpaceOnUse" color-interpolation-filters="sRGB">
<feFlood flood-opacity="0" result="BackgroundImageFix"/>
<feColorMatrix in="SourceAlpha" type="matrix" values="0 0 0 0 0 0 0 0 0 0 0 0 0 0 0 0 0 0 127 0" result="hardAlpha"/>
<feOffset dx="1"/>
<feGaussianBlur stdDeviation="2"/>
<feComposite in2="hardAlpha" operator="out"/>
<feColorMatrix type="matrix" values="0 0 0 0 0.165208 0 0 0 0 0.0494792 0 0 0 0 0.3125 0 0 0 0.15 0"/>
<feBlend mode="normal" in2="BackgroundImageFix" result="effect1_dropShadow_480_1521"/>
<feBlend mode="normal" in="SourceGraphic" in2="effect1_dropShadow_480_1521" result="shape"/>
<feColorMatrix in="SourceAlpha" type="matrix" values="0 0 0 0 0 0 0 0 0 0 0 0 0 0 0 0 0 0 127 0" result="hardAlpha"/>
<feOffset/>
<feGaussianBlur stdDeviation="2"/>
<feComposite in2="hardAlpha" operator="arithmetic" k2="-1" k3="1"/>
<feColorMatrix type="matrix" values="0 0 0 0 1 0 0 0 0 1 0 0 0 0 1 0 0 0 0.25 0"/>
<feBlend mode="normal" in2="shape" result="effect2_innerShadow_480_1521"/>
</filter>
<filter id="filter7_di_480_1521" x="62.6169" y="126.022" width="38.0646" height="28.4985" filterUnits="userSpaceOnUse" color-interpolation-filters="sRGB">
<feFlood flood-opacity="0" result="BackgroundImageFix"/>
<feColorMatrix in="SourceAlpha" type="matrix" values="0 0 0 0 0 0 0 0 0 0 0 0 0 0 0 0 0 0 127 0" result="hardAlpha"/>
<feOffset dx="1" dy="3"/>
<feGaussianBlur stdDeviation="2"/>
<feComposite in2="hardAlpha" operator="out"/>
<feColorMatrix type="matrix" values="0 0 0 0 0.359333 0 0 0 0 0 0 0 0 0 0.641667 0 0 0 0.25 0"/>
<feBlend mode="normal" in2="BackgroundImageFix" result="effect1_dropShadow_480_1521"/>
<feBlend mode="normal" in="SourceGraphic" in2="effect1_dropShadow_480_1521" result="shape"/>
<feColorMatrix in="SourceAlpha" type="matrix" values="0 0 0 0 0 0 0 0 0 0 0 0 0 0 0 0 0 0 127 0" result="hardAlpha"/>
<feOffset dx="-1" dy="-1"/>
<feGaussianBlur stdDeviation="1"/>
<feComposite in2="hardAlpha" operator="arithmetic" k2="-1" k3="1"/>
<feColorMatrix type="matrix" values="0 0 0 0 0.779167 0 0 0 0 0.374 0 0 0 0 0 0 0 0 0.5 0"/>
<feBlend mode="normal" in2="shape" result="effect2_innerShadow_480_1521"/>
</filter>
<filter id="filter8_di_480_1521" x="64.6169" y="126.522" width="32.0646" height="12.6543" filterUnits="userSpaceOnUse" color-interpolation-filters="sRGB">
<feFlood flood-opacity="0" result="BackgroundImageFix"/>
<feColorMatrix in="SourceAlpha" type="matrix" values="0 0 0 0 0 0 0 0 0 0 0 0 0 0 0 0 0 0 127 0" result="hardAlpha"/>
<feOffset dy="0.5"/>
<feGaussianBlur stdDeviation="0.5"/>
<feComposite in2="hardAlpha" operator="out"/>
<feColorMatrix type="matrix" values="0 0 0 0 0.558333 0 0 0 0 0.3685 0 0 0 0 0 0 0 0 0.25 0"/>
<feBlend mode="normal" in2="BackgroundImageFix" result="effect1_dropShadow_480_1521"/>
<feBlend mode="normal" in="SourceGraphic" in2="effect1_dropShadow_480_1521" result="shape"/>
<feColorMatrix in="SourceAlpha" type="matrix" values="0 0 0 0 0 0 0 0 0 0 0 0 0 0 0 0 0 0 127 0" result="hardAlpha"/>
<feOffset dy="-0.5"/>
<feGaussianBlur stdDeviation="1"/>
<feComposite in2="hardAlpha" operator="arithmetic" k2="-1" k3="1"/>
<feColorMatrix type="matrix" values="0 0 0 0 1 0 0 0 0 1 0 0 0 0 1 0 0 0 0.3 0"/>
<feBlend mode="normal" in2="shape" result="effect2_innerShadow_480_1521"/>
</filter>
<filter id="filter9_f_480_1521" x="9.71645" y="151.928" width="43.8079" height="14.8145" filterUnits="userSpaceOnUse" color-interpolation-filters="sRGB">
<feFlood flood-opacity="0" result="BackgroundImageFix"/>
<feBlend mode="normal" in="SourceGraphic" in2="BackgroundImageFix" result="shape"/>
<feGaussianBlur stdDeviation="3" result="effect1_foregroundBlur_480_1521"/>
</filter>
<filter id="filter10_f_480_1521" x="137.447" y="172.864" width="87.9313" height="24.4609" filterUnits="userSpaceOnUse" color-interpolation-filters="sRGB">
<feFlood flood-opacity="0" result="BackgroundImageFix"/>
<feBlend mode="normal" in="SourceGraphic" in2="BackgroundImageFix" result="shape"/>
<feGaussianBlur stdDeviation="3" result="effect1_foregroundBlur_480_1521"/>
</filter>
<filter id="filter11_i_480_1521" x="207.534" y="118.488" width="24.9172" height="34.6724" filterUnits="userSpaceOnUse" color-interpolation-filters="sRGB">
<feFlood flood-opacity="0" result="BackgroundImageFix"/>
<feBlend mode="normal" in="SourceGraphic" in2="BackgroundImageFix" result="shape"/>
<feColorMatrix in="SourceAlpha" type="matrix" values="0 0 0 0 0 0 0 0 0 0 0 0 0 0 0 0 0 0 127 0" result="hardAlpha"/>
<feOffset dx="-1" dy="-1"/>
<feGaussianBlur stdDeviation="2"/>
<feComposite in2="hardAlpha" operator="arithmetic" k2="-1" k3="1"/>
<feColorMatrix type="matrix" values="0 0 0 0 1 0 0 0 0 1 0 0 0 0 1 0 0 0 0.4 0"/>
<feBlend mode="normal" in2="shape" result="effect1_innerShadow_480_1521"/>
</filter>
<filter id="filter12_i_480_1521" x="205.528" y="138.013" width="27.3065" height="17.8184" filterUnits="userSpaceOnUse" color-interpolation-filters="sRGB">
<feFlood flood-opacity="0" result="BackgroundImageFix"/>
<feBlend mode="normal" in="SourceGraphic" in2="BackgroundImageFix" result="shape"/>
<feColorMatrix in="SourceAlpha" type="matrix" values="0 0 0 0 0 0 0 0 0 0 0 0 0 0 0 0 0 0 127 0" result="hardAlpha"/>
<feOffset dx="-1" dy="-1"/>
<feGaussianBlur stdDeviation="2"/>
<feComposite in2="hardAlpha" operator="arithmetic" k2="-1" k3="1"/>
<feColorMatrix type="matrix" values="0 0 0 0 1 0 0 0 0 1 0 0 0 0 1 0 0 0 0.4 0"/>
<feBlend mode="normal" in2="shape" result="effect1_innerShadow_480_1521"/>
</filter>
<filter id="filter13_i_480_1521" x="153.321" y="118.077" width="18.2979" height="25.0742" filterUnits="userSpaceOnUse" color-interpolation-filters="sRGB">
<feFlood flood-opacity="0" result="BackgroundImageFix"/>
<feBlend mode="normal" in="SourceGraphic" in2="BackgroundImageFix" result="shape"/>
<feColorMatrix in="SourceAlpha" type="matrix" values="0 0 0 0 0 0 0 0 0 0 0 0 0 0 0 0 0 0 127 0" result="hardAlpha"/>
<feOffset dx="-1" dy="-1"/>
<feGaussianBlur stdDeviation="2"/>
<feComposite in2="hardAlpha" operator="arithmetic" k2="-1" k3="1"/>
<feColorMatrix type="matrix" values="0 0 0 0 1 0 0 0 0 1 0 0 0 0 1 0 0 0 0.4 0"/>
<feBlend mode="normal" in2="shape" result="effect1_innerShadow_480_1521"/>
</filter>
<filter id="filter14_i_480_1521" x="158.363" y="100.985" width="22.3523" height="47.8047" filterUnits="userSpaceOnUse" color-interpolation-filters="sRGB">
<feFlood flood-opacity="0" result="BackgroundImageFix"/>
<feBlend mode="normal" in="SourceGraphic" in2="BackgroundImageFix" result="shape"/>
<feColorMatrix in="SourceAlpha" type="matrix" values="0 0 0 0 0 0 0 0 0 0 0 0 0 0 0 0 0 0 127 0" result="hardAlpha"/>
<feOffset dx="-1" dy="-1"/>
<feGaussianBlur stdDeviation="2"/>
<feComposite in2="hardAlpha" operator="arithmetic" k2="-1" k3="1"/>
<feColorMatrix type="matrix" values="0 0 0 0 1 0 0 0 0 1 0 0 0 0 1 0 0 0 0.4 0"/>
<feBlend mode="normal" in2="shape" result="effect1_innerShadow_480_1521"/>
</filter>
<filter id="filter15_ii_480_1521" x="169.543" y="111.946" width="48.0538" height="49.2114" filterUnits="userSpaceOnUse" color-interpolation-filters="sRGB">
<feFlood flood-opacity="0" result="BackgroundImageFix"/>
<feBlend mode="normal" in="SourceGraphic" in2="BackgroundImageFix" result="shape"/>
<feColorMatrix in="SourceAlpha" type="matrix" values="0 0 0 0 0 0 0 0 0 0 0 0 0 0 0 0 0 0 127 0" result="hardAlpha"/>
<feOffset dy="2"/>
<feGaussianBlur stdDeviation="2"/>
<feComposite in2="hardAlpha" operator="arithmetic" k2="-1" k3="1"/>
<feColorMatrix type="matrix" values="0 0 0 0 1 0 0 0 0 1 0 0 0 0 1 0 0 0 0.25 0"/>
<feBlend mode="normal" in2="shape" result="effect1_innerShadow_480_1521"/>
<feColorMatrix in="SourceAlpha" type="matrix" values="0 0 0 0 0 0 0 0 0 0 0 0 0 0 0 0 0 0 127 0" result="hardAlpha"/>
<feOffset/>
<feGaussianBlur stdDeviation="2"/>
<feComposite in2="hardAlpha" operator="arithmetic" k2="-1" k3="1"/>
<feColorMatrix type="matrix" values="0 0 0 0 1 0 0 0 0 1 0 0 0 0 1 0 0 0 0.25 0"/>
<feBlend mode="normal" in2="effect1_innerShadow_480_1521" result="effect2_innerShadow_480_1521"/>
</filter>
<filter id="filter16_dii_480_1521" x="147.213" y="131.914" width="78.7686" height="58.9131" filterUnits="userSpaceOnUse" color-interpolation-filters="sRGB">
<feFlood flood-opacity="0" result="BackgroundImageFix"/>
<feColorMatrix in="SourceAlpha" type="matrix" values="0 0 0 0 0 0 0 0 0 0 0 0 0 0 0 0 0 0 127 0" result="hardAlpha"/>
<feOffset/>
<feGaussianBlur stdDeviation="2"/>
<feComposite in2="hardAlpha" operator="out"/>
<feColorMatrix type="matrix" values="0 0 0 0 0.371167 0 0 0 0 0 0 0 0 0 0.545833 0 0 0 0.25 0"/>
<feBlend mode="normal" in2="BackgroundImageFix" result="effect1_dropShadow_480_1521"/>
<feBlend mode="normal" in="SourceGraphic" in2="effect1_dropShadow_480_1521" result="shape"/>
<feColorMatrix in="SourceAlpha" type="matrix" values="0 0 0 0 0 0 0 0 0 0 0 0 0 0 0 0 0 0 127 0" result="hardAlpha"/>
<feOffset dx="1"/>
<feGaussianBlur stdDeviation="2"/>
<feComposite in2="hardAlpha" operator="arithmetic" k2="-1" k3="1"/>
<feColorMatrix type="matrix" values="0 0 0 0 0 0 0 0 0 0.0870833 0 0 0 0 0.395833 0 0 0 0.5 0"/>
<feBlend mode="normal" in2="shape" result="effect2_innerShadow_480_1521"/>
<feColorMatrix in="SourceAlpha" type="matrix" values="0 0 0 0 0 0 0 0 0 0 0 0 0 0 0 0 0 0 127 0" result="hardAlpha"/>
<feOffset dx="-4"/>
<feGaussianBlur stdDeviation="2"/>
<feComposite in2="hardAlpha" operator="arithmetic" k2="-1" k3="1"/>
<feColorMatrix type="matrix" values="0 0 0 0 1 0 0 0 0 1 0 0 0 0 1 0 0 0 0.25 0"/>
<feBlend mode="normal" in2="effect2_innerShadow_480_1521" result="effect3_innerShadow_480_1521"/>
</filter>
<filter id="filter17_di_480_1521" x="193.979" y="153.104" width="31.211" height="23.4907" filterUnits="userSpaceOnUse" color-interpolation-filters="sRGB">
<feFlood flood-opacity="0" result="BackgroundImageFix"/>
<feColorMatrix in="SourceAlpha" type="matrix" values="0 0 0 0 0 0 0 0 0 0 0 0 0 0 0 0 0 0 127 0" result="hardAlpha"/>
<feOffset dx="-0.5" dy="0.5"/>
<feGaussianBlur stdDeviation="0.5"/>
<feComposite in2="hardAlpha" operator="out"/>
<feColorMatrix type="matrix" values="0 0 0 0 0 0 0 0 0 0 0 0 0 0 0 0 0 0 0.3 0"/>
<feBlend mode="normal" in2="BackgroundImageFix" result="effect1_dropShadow_480_1521"/>
<feBlend mode="normal" in="SourceGraphic" in2="effect1_dropShadow_480_1521" result="shape"/>
<feColorMatrix in="SourceAlpha" type="matrix" values="0 0 0 0 0 0 0 0 0 0 0 0 0 0 0 0 0 0 127 0" result="hardAlpha"/>
<feOffset dx="-3"/>
<feGaussianBlur stdDeviation="1"/>
<feComposite in2="hardAlpha" operator="arithmetic" k2="-1" k3="1"/>
<feColorMatrix type="matrix" values="0 0 0 0 1 0 0 0 0 1 0 0 0 0 1 0 0 0 0.25 0"/>
<feBlend mode="normal" in2="shape" result="effect2_innerShadow_480_1521"/>
</filter>
<filter id="filter18_d_480_1521" x="199.986" y="159.419" width="8.22489" height="8.22461" filterUnits="userSpaceOnUse" color-interpolation-filters="sRGB">
<feFlood flood-opacity="0" result="BackgroundImageFix"/>
<feColorMatrix in="SourceAlpha" type="matrix" values="0 0 0 0 0 0 0 0 0 0 0 0 0 0 0 0 0 0 127 0" result="hardAlpha"/>
<feOffset/>
<feGaussianBlur stdDeviation="0.5"/>
<feComposite in2="hardAlpha" operator="out"/>
<feColorMatrix type="matrix" values="0 0 0 0 0 0 0 0 0 0 0 0 0 0 0 0 0 0 0.5 0"/>
<feBlend mode="normal" in2="BackgroundImageFix" result="effect1_dropShadow_480_1521"/>
<feBlend mode="normal" in="SourceGraphic" in2="effect1_dropShadow_480_1521" result="shape"/>
</filter>
<filter id="filter19_i_480_1521" x="59.2479" y="-1" width="47.1516" height="48.7764" filterUnits="userSpaceOnUse" color-interpolation-filters="sRGB">
<feFlood flood-opacity="0" result="BackgroundImageFix"/>
<feBlend mode="normal" in="SourceGraphic" in2="BackgroundImageFix" result="shape"/>
<feColorMatrix in="SourceAlpha" type="matrix" values="0 0 0 0 0 0 0 0 0 0 0 0 0 0 0 0 0 0 127 0" result="hardAlpha"/>
<feOffset dx="-1" dy="-1"/>
<feGaussianBlur stdDeviation="1"/>
<feComposite in2="hardAlpha" operator="arithmetic" k2="-1" k3="1"/>
<feColorMatrix type="matrix" values="0 0 0 0 0.932833 0 0 0 0 0.741667 0 0 0 0 1 0 0 0 0.25 0"/>
<feBlend mode="normal" in2="shape" result="effect1_innerShadow_480_1521"/>
</filter>
<linearGradient id="paint0_linear_480_1521" x1="16.6322" y1="77.7741" x2="87.0235" y2="161.606" gradientUnits="userSpaceOnUse">
<stop stop-color="#81BE65"/>
<stop offset="1" stop-color="#638BC7"/>
</linearGradient>
<linearGradient id="paint1_linear_480_1521" x1="42.548" y1="34.1079" x2="89.0923" y2="161.608" gradientUnits="userSpaceOnUse">
<stop stop-color="#FFAD61"/>
<stop offset="1" stop-color="#04B05E"/>
</linearGradient>
<linearGradient id="paint2_linear_480_1521" x1="129.279" y1="41.2349" x2="129.322" y2="121.345" gradientUnits="userSpaceOnUse">
<stop stop-color="#EEA5F9"/>
<stop offset="1" stop-color="#8482FF"/>
</linearGradient>
<linearGradient id="paint3_linear_480_1521" x1="66.8776" y1="118.395" x2="33.9985" y2="169.44" gradientUnits="userSpaceOnUse">
<stop stop-color="#D9FFE8"/>
<stop offset="1" stop-color="#A4BDFF"/>
</linearGradient>
<linearGradient id="paint4_linear_480_1521" x1="232.451" y1="119.488" x2="208.534" y2="153.16" gradientUnits="userSpaceOnUse">
<stop stop-color="#81BE65"/>
<stop offset="1" stop-color="#638BC7"/>
</linearGradient>
<linearGradient id="paint5_linear_480_1521" x1="232.835" y1="139.013" x2="206.528" y2="155.831" gradientUnits="userSpaceOnUse">
<stop stop-color="#FFAD61"/>
<stop offset="1" stop-color="#04B05E"/>
</linearGradient>
<linearGradient id="paint6_linear_480_1521" x1="154.321" y1="119.077" x2="171.619" y2="143.151" gradientUnits="userSpaceOnUse">
<stop stop-color="#81BE65"/>
<stop offset="1" stop-color="#638BC7"/>
</linearGradient>
<linearGradient id="paint7_linear_480_1521" x1="159.846" y1="101.985" x2="180.233" y2="148.79" gradientUnits="userSpaceOnUse">
<stop stop-color="#FFAD61"/>
<stop offset="1" stop-color="#04B05E"/>
</linearGradient>
<linearGradient id="paint8_linear_480_1521" x1="200.159" y1="111.493" x2="189.195" y2="155.006" gradientUnits="userSpaceOnUse">
<stop stop-color="#EEA5F9"/>
<stop offset="1" stop-color="#9795FF"/>
</linearGradient>
<linearGradient id="paint9_linear_480_1521" x1="199.545" y1="168.582" x2="208.248" y2="159.382" gradientUnits="userSpaceOnUse">
<stop stop-color="#C5B0FF"/>
<stop offset="1" stop-color="white"/>
</linearGradient>
<clipPath id="clip0_480_1521">
<rect width="246" height="197" fill="white"/>
</clipPath>
</defs>
</svg>
