<svg width="246" height="198" viewBox="0 0 246 198" fill="none" xmlns="http://www.w3.org/2000/svg">
<g clip-path="url(#clip0_490_3635)">
<g filter="url(#filter0_i_490_3635)">
<path d="M206.123 97.1076C191.763 115.68 190.045 138.408 190.045 138.408C190.045 138.408 211.609 131.025 225.969 112.452C240.329 93.8804 242.047 71.1523 242.047 71.1523C242.047 71.1523 220.483 78.5355 206.123 97.1076Z" fill="url(#paint0_linear_490_3635)"/>
</g>
<path d="M190.905 137.042C190.905 137.042 199.028 127.461 209.236 114.711M239.98 73.506C235.876 79.7359 230.826 86.7406 225.542 93.7632M225.542 93.7632L226.585 81.25M225.542 93.7632C220.094 101.003 214.398 108.262 209.236 114.711M209.236 114.711L224.73 110.961" stroke="white" stroke-opacity="0.3" stroke-linecap="round"/>
<g filter="url(#filter1_i_490_3635)">
<path d="M186.003 84.5234C175.124 113.74 181.916 143.238 181.916 143.238C181.916 143.238 206.345 125.365 217.224 96.1483C228.103 66.9313 221.311 37.4339 221.311 37.4339C221.311 37.4339 196.882 55.3065 186.003 84.5234Z" fill="url(#paint1_linear_490_3635)"/>
</g>
<path d="M182.469 141.158C182.469 141.158 188.989 125.803 196.9 105.607M219.621 41.2254C216.876 50.7446 213.237 61.6199 209.308 72.6099M209.308 72.6099L205.693 56.3315M209.308 72.6099C205.258 83.9405 200.901 95.393 196.9 105.607M196.9 105.607L215.067 94.7377" stroke="white" stroke-opacity="0.3" stroke-linecap="round"/>
<g filter="url(#filter2_ii_490_3635)">
<path d="M80.3625 67.6978C80.3625 62.081 83.5005 56.9349 88.4938 54.3628L129.166 33.4131C133.476 31.193 138.593 31.193 142.903 33.4131L183.575 54.3628C188.568 56.9348 191.706 62.081 191.706 67.6978V131.786C191.706 140.07 184.99 146.786 176.706 146.786H95.3625C87.0783 146.786 80.3625 140.07 80.3625 131.786V67.6978Z" fill="url(#paint2_linear_490_3635)"/>
</g>
<g filter="url(#filter3_f_490_3635)">
<ellipse cx="136.962" cy="145.86" rx="82.5798" ry="4.63931" fill="#9795FF" fill-opacity="0.3"/>
</g>
<g filter="url(#filter4_i_490_3635)">
<path d="M29.415 113.988C35.6238 131.274 31.421 148.605 31.421 148.605C31.421 148.605 17.1518 137.909 10.9431 120.622C4.73435 103.336 8.93714 86.0055 8.93714 86.0055C8.93714 86.0055 23.2063 96.7015 29.415 113.988Z" fill="url(#paint3_linear_490_3635)"/>
</g>
<path d="M31.111 147.379C31.111 147.379 27.3756 138.289 22.8532 126.337M9.90854 88.2538C11.4605 93.8804 13.5301 100.312 15.7691 106.813M15.7691 106.813L18.0105 97.2482M15.7691 106.813C18.0775 113.516 20.566 120.292 22.8532 126.337M22.8532 126.337L12.2254 119.809" stroke="white" stroke-opacity="0.3" stroke-linecap="round"/>
<g filter="url(#filter5_i_490_3635)">
<path d="M21.0136 130.525C29.1941 137.642 32.0229 147.783 32.0229 147.783C32.0229 147.783 21.5887 146.384 13.4082 139.266C5.22776 132.149 2.39891 122.009 2.39891 122.009C2.39891 122.009 12.8332 123.408 21.0136 130.525Z" fill="url(#paint4_linear_490_3635)"/>
</g>
<path d="M31.5094 147.24C31.5094 147.24 26.9652 143.633 21.1909 138.778M3.54673 122.886C5.96782 125.338 8.88754 128.056 11.9146 130.76M11.9146 130.76L10.3131 125.186M11.9146 130.76C15.0355 133.548 18.2705 136.323 21.1909 138.778M21.1909 138.778L13.834 138.477" stroke="white" stroke-opacity="0.3" stroke-linecap="round"/>
<g filter="url(#filter6_ii_490_3635)">
<path d="M28.0344 102.134C28.0344 98.3898 30.1264 94.9591 33.4553 93.2444L60.6631 79.2298C63.5364 77.7497 66.948 77.7497 69.8214 79.2298L97.0292 93.2444C100.358 94.9591 102.45 98.3898 102.45 102.134V145.007C102.45 150.53 97.9729 155.007 92.45 155.007H38.0344C32.5116 155.007 28.0344 150.53 28.0344 145.007V102.134Z" fill="url(#paint5_linear_490_3635)"/>
</g>
<rect x="43" y="101.605" width="20" height="20" rx="4" fill="#FCF0FF"/>
<rect x="67" y="101.605" width="20" height="20" rx="4" fill="#FCF0FF"/>
<rect x="43" y="125.605" width="20" height="20" rx="4" fill="#FCF0FF"/>
<rect x="67" y="125.605" width="20" height="20" rx="4" fill="#FCF0FF"/>
<g filter="url(#filter7_f_490_3635)">
<ellipse cx="65.8622" cy="154.387" rx="55.1916" ry="3.10065" fill="#9795FF" fill-opacity="0.3"/>
</g>
<g filter="url(#filter8_di_490_3635)">
<rect x="129" y="72.3066" width="47.8115" height="59.4728" rx="3" transform="rotate(-10.4864 129 72.3066)" fill="#F0F9FF"/>
</g>
<rect x="135.32" y="89.6611" width="42.0019" height="38.5832" rx="2" transform="rotate(-10.4864 135.32 89.6611)" fill="url(#paint6_linear_490_3635)"/>
<path d="M141.505 85.4089C140.393 85.6148 139.378 85.421 138.46 84.8278C137.541 84.2345 136.984 83.4085 136.788 82.3497C136.694 81.8416 136.707 81.3367 136.826 80.8351C136.945 80.3335 137.159 79.8704 137.47 79.4459L139.807 76.2357L143.139 78.3966C143.581 78.6819 143.947 79.0374 144.238 79.4632C144.528 79.889 144.721 80.3559 144.815 80.864C145.011 81.9228 144.786 82.8936 144.141 83.7762C143.496 84.6589 142.617 85.2031 141.505 85.4089Z" fill="#0067C6"/>
<rect x="147.473" y="76.002" width="24.4888" height="5.83067" rx="2" transform="rotate(-10.4864 147.473 76.002)" fill="#FFD25F"/>
<path d="M150.28 107.948L147.529 108.457C147.256 108.508 146.973 108.447 146.744 108.29C146.515 108.132 146.358 107.89 146.307 107.616C146.256 107.343 146.317 107.06 146.474 106.831C146.632 106.602 146.874 106.445 147.148 106.394L149.898 105.885C150.172 105.834 150.454 105.894 150.683 106.052C150.913 106.21 151.07 106.452 151.12 106.725C151.171 106.999 151.111 107.281 150.953 107.511C150.796 107.74 150.553 107.897 150.28 107.948Z" fill="#7D7BDD"/>
<path d="M151.755 100.563C151.482 100.613 151.2 100.553 150.97 100.395L148.559 98.665C148.397 98.6214 148.248 98.5396 148.124 98.4265C148 98.3133 148.182 98.5839 148.124 98.4265C148.066 98.269 148.094 97.8471 148.115 97.6806C148.136 97.5141 148.196 97.355 148.291 97.2168C148.386 97.0785 148.513 96.965 148.661 96.886C148.809 96.8069 149.134 96.715 149.301 96.7128C149.151 96.6376 149.469 96.7106 149.301 96.7128C149.451 96.788 149.581 96.8995 149.68 97.0352L152.125 98.7162C152.28 98.8355 152.399 98.996 152.468 99.1795C152.537 99.363 152.554 99.5622 152.515 99.7545C152.477 99.9467 152.385 100.124 152.251 100.267C152.116 100.41 151.945 100.512 151.755 100.563Z" fill="#7D7BDD"/>
<path d="M158.123 96.5438C157.85 96.5944 157.567 96.5343 157.338 96.3767C157.109 96.2191 156.952 95.9768 156.901 95.7033L156.392 92.9528C156.341 92.6793 156.401 92.3968 156.559 92.1676C156.717 91.9383 156.959 91.7811 157.232 91.7305C157.506 91.6798 157.788 91.74 158.018 91.8976C158.247 92.0552 158.404 92.2974 158.455 92.571L158.964 95.3215C159.014 95.595 158.954 95.8775 158.797 96.1067C158.639 96.3359 158.397 96.4932 158.123 96.5438Z" fill="#7D7BDD"/>
<path d="M165.509 98.0156C165.305 98.0532 165.094 98.0295 164.904 97.9475C164.713 97.8655 164.551 97.7289 164.439 97.555C164.326 97.3811 164.267 97.1776 164.27 96.9703C164.272 96.763 164.337 96.5612 164.454 96.3903L166.184 93.9792C166.227 93.8171 166.368 93.7865 166.481 93.6626C166.638 93.6046 166.929 93.5269 167.095 93.5478C167.262 93.5686 167.421 93.6291 167.559 93.7242C167.697 93.8193 167.811 93.9462 167.89 94.0942C167.969 94.2422 168.132 94.5536 168.135 94.7214C168.137 94.8892 168.21 94.5714 168.135 94.7214C168.059 94.8714 167.949 95.0012 167.814 95.0999L166.133 97.5446C165.993 97.7761 165.769 97.9449 165.509 98.0156Z" fill="#7D7BDD"/>
<path d="M172.282 103.876L169.532 104.385C169.258 104.436 168.976 104.376 168.746 104.218C168.517 104.06 168.36 103.818 168.309 103.545C168.259 103.271 168.319 102.989 168.476 102.759C168.634 102.53 168.876 102.373 169.15 102.322L171.9 101.813C172.174 101.763 172.456 101.823 172.686 101.98C172.915 102.138 173.072 102.38 173.123 102.654C173.173 102.927 173.113 103.21 172.956 103.439C172.798 103.668 172.556 103.825 172.282 103.876Z" fill="#7D7BDD"/>
<path d="M160.223 107.888C161.742 107.607 162.745 106.147 162.464 104.628C162.183 103.109 160.724 102.106 159.205 102.387C157.686 102.668 156.682 104.127 156.963 105.646C157.244 107.166 158.704 108.169 160.223 107.888Z" fill="#7D7BDD"/>
<path d="M159.862 105.932C159.658 105.97 159.447 105.946 159.257 105.864C159.066 105.782 158.905 105.645 158.792 105.472C158.679 105.298 158.62 105.094 158.623 104.887C158.625 104.68 158.69 104.478 158.807 104.307L161.978 99.6945C162.14 99.4761 162.38 99.329 162.649 99.2843C162.917 99.2395 163.192 99.3006 163.416 99.4546C163.64 99.6086 163.795 99.8435 163.849 100.11C163.903 100.376 163.852 100.653 163.706 100.882L160.534 105.495C160.377 105.724 160.135 105.881 159.862 105.932Z" fill="#7D7BDD"/>
<circle cx="159.715" cy="105.135" r="14.8724" transform="rotate(-10.4864 159.715 105.135)" stroke="#7D7BDD" stroke-width="1.5"/>
<g filter="url(#filter9_i_490_3635)">
<path d="M177.879 85.9308C178.139 84.8574 179.221 84.1986 180.294 84.4592L189.166 86.6137C189.517 86.6988 189.883 86.6876 190.228 86.5813L195.672 84.9017C196.016 84.7955 196.383 84.7843 196.734 84.8693L207.014 87.3658C207.364 87.4509 207.685 87.629 207.943 87.8815L212.01 91.8709C212.267 92.1233 212.588 92.3014 212.939 92.3865L221.811 94.541C222.884 94.8017 223.543 95.8831 223.282 96.9565L216.876 123.339C216.615 124.412 215.534 125.071 214.46 124.81L172.944 114.728C171.87 114.468 171.211 113.386 171.472 112.313L177.879 85.9308Z" fill="#FFC09C"/>
</g>
<g filter="url(#filter10_i_490_3635)">
<path d="M177.879 85.9308C178.139 84.8574 179.221 84.1986 180.294 84.4592L189.166 86.6137C189.517 86.6988 189.883 86.6876 190.228 86.5813L195.672 84.9017C196.016 84.7955 196.383 84.7843 196.734 84.8693L207.014 87.3658C207.364 87.4509 207.685 87.629 207.943 87.8815L212.01 91.8709C212.267 92.1233 212.588 92.3014 212.939 92.3865L221.811 94.541C222.884 94.8017 223.543 95.8831 223.282 96.9565L221.804 103.043C221.544 104.117 220.462 104.776 219.389 104.515L177.872 94.4332C176.799 94.1725 176.14 93.0911 176.4 92.0177L177.879 85.9308Z" fill="#FF570F"/>
</g>
<g filter="url(#filter11_di_490_3635)">
<ellipse cx="197.691" cy="103.909" rx="9.57234" ry="9.57234" transform="rotate(13.6493 197.691 103.909)" fill="#3E8AFC"/>
</g>
<g filter="url(#filter12_d_490_3635)">
<path d="M206.507 106.049C205.325 110.918 200.419 113.907 195.55 112.725C190.681 111.542 187.692 106.637 188.875 101.768C190.057 96.8986 194.963 93.91 199.832 95.0924C204.701 96.2748 207.689 101.18 206.507 106.049Z" stroke="#FFE58A" shape-rendering="crispEdges"/>
</g>
<g filter="url(#filter13_i_490_3635)">
<path d="M77.5908 150.231C85.7795 166.672 83.6334 184.376 83.6334 184.376C83.6334 184.376 68.2108 175.423 60.0221 158.982C51.8333 142.541 53.9794 124.837 53.9794 124.837C53.9794 124.837 69.4021 133.79 77.5908 150.231Z" fill="url(#paint7_linear_490_3635)"/>
</g>
<path d="M83.1816 183.199C83.1816 183.199 78.4082 174.608 72.5185 163.267M55.2067 126.96C57.4064 132.367 60.2142 138.512 63.1986 144.707M63.1986 144.707L64.3055 134.945M63.1986 144.707C66.2754 151.093 69.5397 157.532 72.5185 163.267M72.5185 163.267L61.1999 158.028" stroke="white" stroke-opacity="0.3" stroke-linecap="round"/>
<g filter="url(#filter14_i_490_3635)">
<path d="M70.8075 164.105C80.9437 171.021 85.4656 182.043 85.4656 182.043C85.4656 182.043 73.5536 181.852 63.4174 174.937C53.2812 168.021 48.7592 156.999 48.7592 156.999C48.7592 156.999 60.6713 157.189 70.8075 164.105Z" fill="url(#paint8_linear_490_3635)"/>
</g>
<path d="M84.816 181.503C84.816 181.503 79.2312 178.051 72.0989 173.359M50.1649 157.836C53.2105 160.271 56.8518 162.938 60.6119 165.577M60.6119 165.577L58.0739 159.524M60.6119 165.577C64.4886 168.297 68.4917 170.987 72.0989 173.359M72.0989 173.359L63.7909 173.996" stroke="white" stroke-opacity="0.3" stroke-linecap="round"/>
<g filter="url(#filter15_ii_490_3635)">
<path d="M78.7292 135.29C78.7292 131.545 80.8212 128.114 84.1501 126.4L111.358 112.385C114.231 110.905 117.643 110.905 120.516 112.385L147.724 126.4C151.053 128.114 153.145 131.545 153.145 135.29V178.163C153.145 183.686 148.668 188.163 143.145 188.163H88.7293C83.2064 188.163 78.7292 183.686 78.7292 178.163V135.29Z" fill="url(#paint9_linear_490_3635)"/>
</g>
<path d="M102 146.605C102 143.844 104.239 141.605 107 141.605H126C128.761 141.605 131 143.844 131 146.605V187.605H102V146.605Z" fill="#FCF0FF"/>
<circle cx="123" cy="164.605" r="5" fill="url(#paint10_linear_490_3635)"/>
<g filter="url(#filter16_f_490_3635)">
<ellipse cx="116.557" cy="187.543" rx="55.1916" ry="3.10065" fill="#9795FF" fill-opacity="0.3"/>
</g>
<g filter="url(#filter17_i_490_3635)">
<path d="M45.0796 2.60474C45.0796 1.50017 45.975 0.604736 47.0796 0.604736H91.1906C92.2952 0.604736 93.1906 1.50017 93.1906 2.60474V40.1552C93.1906 41.2598 92.2952 42.1552 91.1906 42.1552H81.8132C81.3906 42.1552 80.9787 42.2891 80.6369 42.5377L70.3115 50.0471C69.6102 50.5572 68.6601 50.5572 67.9588 50.0471L57.6333 42.5377C57.2915 42.2891 56.8797 42.1552 56.457 42.1552H47.0796C45.975 42.1552 45.0796 41.2598 45.0796 40.1552V2.60474Z" fill="#FEFCFF"/>
</g>
<path d="M86.5949 12.2234C89.6397 15.4464 89.8206 20.5012 87.0049 23.8923C84.5061 26.9485 80.506 27.8516 77.0689 26.6015L76.8646 26.5058L66.6737 37.2754C66.5274 37.43 66.3033 37.5109 66.0761 37.4913L62.8423 37.1172C62.5388 37.0742 62.2795 36.8289 62.2199 36.5283L61.6679 33.32C61.6358 33.0942 61.7043 32.866 61.8506 32.7114L63.9612 30.481C64.0587 30.3779 64.1821 30.2994 64.3575 30.2699L65.5587 30.0393C65.859 29.9816 66.1028 29.7239 66.1439 29.4209L66.2591 28.2603C66.2545 28.1094 66.3505 27.956 66.448 27.8529L67.559 26.6788C67.6809 26.55 67.8547 26.4703 68.0056 26.4666L69.6887 26.35C70.0652 26.3156 70.3578 26.0065 70.3454 25.604L70.2974 24.0447C70.2912 23.8435 70.3612 23.6656 70.4831 23.5367L72.0155 21.9173L71.9087 21.7185C70.5273 18.5556 71.1154 14.7658 73.6022 12.1377C77.113 8.42757 83.0788 8.40785 86.5949 12.2234ZM82.1816 16.0563C82.9077 16.7433 84.0145 16.7163 84.6972 15.9949C85.3799 15.2735 85.3458 14.1668 84.6197 13.4798C83.8936 12.7927 82.7868 12.8197 82.1041 13.5412C81.4215 14.2626 81.4556 15.3692 82.1816 16.0563Z" fill="#FFC700"/>
<rect x="50.1584" y="16.9619" width="13.5387" height="4.51291" rx="0.5" fill="#9795FF"/>
<rect x="54.6699" y="12.4478" width="4.51291" height="13.5387" rx="0.5" fill="#9795FF"/>
<g filter="url(#filter18_f_490_3635)">
<ellipse cx="16.5792" cy="1.46701" rx="16.5792" ry="1.46701" transform="matrix(-1 0 0 1 205.035 175.187)" fill="#9795FF" fill-opacity="0.5"/>
</g>
<path d="M179.743 177.364H194.15C196.999 177.364 199.69 175.465 200.64 172.773L204.756 161.375C205.548 159.317 204.598 156.942 202.54 156.151C201.432 155.676 200.324 155.676 199.374 156.151C198.424 156.626 197.632 157.417 197.157 158.525L192.883 169.607L194.941 170.399L199.216 159.317C199.374 158.842 199.69 158.525 200.165 158.209C200.64 158.05 201.115 158.05 201.59 158.209C202.54 158.525 203.015 159.633 202.698 160.583L198.424 171.982C197.791 173.881 196.049 174.99 194.15 174.99H182.118L184.176 173.248L182.593 171.507L178.793 174.99C178.318 175.306 178.318 175.94 178.477 176.414C178.635 176.889 179.11 177.364 179.743 177.364Z" fill="#9795FF"/>
<path d="M187.501 175.78C188.768 175.78 190.034 175.464 191.301 174.989C192.884 174.355 194.309 172.614 194.942 170.714C195.417 168.973 195.258 167.231 194.309 165.965C193.042 164.382 191.142 163.274 189.084 163.432C187.501 163.59 186.235 164.382 185.443 165.648C184.493 167.39 184.493 169.289 185.76 170.556C186.868 171.822 188.768 172.297 190.192 171.664C191.617 171.031 192.409 169.764 192.251 168.023L190.034 168.181C190.034 168.973 189.876 169.448 189.401 169.764C188.768 169.923 187.976 169.764 187.501 169.289C186.868 168.656 187.185 167.706 187.501 167.073C187.976 166.282 188.768 166.123 189.243 165.965C190.509 165.807 191.776 166.598 192.567 167.548C193.2 168.498 193.042 169.606 192.884 170.398C192.409 171.822 191.459 172.931 190.667 173.247C188.293 174.197 185.443 174.039 184.177 172.297C181.169 167.706 183.702 164.065 184.652 162.957C187.026 160.266 192.725 159.949 196.842 162.482L197.791 160.266C192.725 157.258 185.76 157.733 182.752 161.216C181.644 162.482 178.319 167.231 182.119 173.247C183.227 175.147 185.443 175.78 187.501 175.78Z" fill="#9795FF"/>
<path d="M198.898 157.258L201.115 156.942C200.798 155.2 199.215 152.034 195.416 151.559L195.257 153.775C198.265 154.092 198.898 157.258 198.898 157.258Z" fill="#9795FF"/>
<path d="M204.439 159.471C205.388 157.413 205.705 152.822 201.114 149.973L200.006 151.872C204.122 154.405 202.539 158.205 202.381 158.521L204.439 159.471Z" fill="#9795FF"/>
<path d="M200.64 152.033C200.028 152.033 199.532 151.537 199.532 150.925C199.532 150.313 200.028 149.817 200.64 149.817C201.252 149.817 201.748 150.313 201.748 150.925C201.748 151.537 201.252 152.033 200.64 152.033Z" fill="#9795FF"/>
<path d="M195.257 153.775C194.645 153.775 194.149 153.279 194.149 152.667C194.149 152.055 194.645 151.559 195.257 151.559C195.869 151.559 196.365 152.055 196.365 152.667C196.365 153.279 195.869 153.775 195.257 153.775Z" fill="#9795FF"/>
</g>
<defs>
<filter id="filter0_i_490_3635" x="189.045" y="70.1523" width="53.0022" height="68.2554" filterUnits="userSpaceOnUse" color-interpolation-filters="sRGB">
<feFlood flood-opacity="0" result="BackgroundImageFix"/>
<feBlend mode="normal" in="SourceGraphic" in2="BackgroundImageFix" result="shape"/>
<feColorMatrix in="SourceAlpha" type="matrix" values="0 0 0 0 0 0 0 0 0 0 0 0 0 0 0 0 0 0 127 0" result="hardAlpha"/>
<feOffset dx="-1" dy="-1"/>
<feGaussianBlur stdDeviation="2"/>
<feComposite in2="hardAlpha" operator="arithmetic" k2="-1" k3="1"/>
<feColorMatrix type="matrix" values="0 0 0 0 1 0 0 0 0 1 0 0 0 0 1 0 0 0 0.4 0"/>
<feBlend mode="normal" in2="shape" result="effect1_innerShadow_490_3635"/>
</filter>
<filter id="filter1_i_490_3635" x="178.822" y="36.4338" width="44.5835" height="106.804" filterUnits="userSpaceOnUse" color-interpolation-filters="sRGB">
<feFlood flood-opacity="0" result="BackgroundImageFix"/>
<feBlend mode="normal" in="SourceGraphic" in2="BackgroundImageFix" result="shape"/>
<feColorMatrix in="SourceAlpha" type="matrix" values="0 0 0 0 0 0 0 0 0 0 0 0 0 0 0 0 0 0 127 0" result="hardAlpha"/>
<feOffset dx="-1" dy="-1"/>
<feGaussianBlur stdDeviation="2"/>
<feComposite in2="hardAlpha" operator="arithmetic" k2="-1" k3="1"/>
<feColorMatrix type="matrix" values="0 0 0 0 1 0 0 0 0 1 0 0 0 0 1 0 0 0 0.4 0"/>
<feBlend mode="normal" in2="shape" result="effect1_innerShadow_490_3635"/>
</filter>
<filter id="filter2_ii_490_3635" x="80.3625" y="31.748" width="111.344" height="117.038" filterUnits="userSpaceOnUse" color-interpolation-filters="sRGB">
<feFlood flood-opacity="0" result="BackgroundImageFix"/>
<feBlend mode="normal" in="SourceGraphic" in2="BackgroundImageFix" result="shape"/>
<feColorMatrix in="SourceAlpha" type="matrix" values="0 0 0 0 0 0 0 0 0 0 0 0 0 0 0 0 0 0 127 0" result="hardAlpha"/>
<feOffset dy="2"/>
<feGaussianBlur stdDeviation="2"/>
<feComposite in2="hardAlpha" operator="arithmetic" k2="-1" k3="1"/>
<feColorMatrix type="matrix" values="0 0 0 0 1 0 0 0 0 1 0 0 0 0 1 0 0 0 0.25 0"/>
<feBlend mode="normal" in2="shape" result="effect1_innerShadow_490_3635"/>
<feColorMatrix in="SourceAlpha" type="matrix" values="0 0 0 0 0 0 0 0 0 0 0 0 0 0 0 0 0 0 127 0" result="hardAlpha"/>
<feOffset/>
<feGaussianBlur stdDeviation="2"/>
<feComposite in2="hardAlpha" operator="arithmetic" k2="-1" k3="1"/>
<feColorMatrix type="matrix" values="0 0 0 0 1 0 0 0 0 1 0 0 0 0 1 0 0 0 0.25 0"/>
<feBlend mode="normal" in2="effect1_innerShadow_490_3635" result="effect2_innerShadow_490_3635"/>
</filter>
<filter id="filter3_f_490_3635" x="48.3826" y="135.22" width="177.159" height="21.2788" filterUnits="userSpaceOnUse" color-interpolation-filters="sRGB">
<feFlood flood-opacity="0" result="BackgroundImageFix"/>
<feBlend mode="normal" in="SourceGraphic" in2="BackgroundImageFix" result="shape"/>
<feGaussianBlur stdDeviation="3" result="effect1_foregroundBlur_490_3635"/>
</filter>
<filter id="filter4_i_490_3635" x="6.54688" y="85.0054" width="26.2644" height="63.5996" filterUnits="userSpaceOnUse" color-interpolation-filters="sRGB">
<feFlood flood-opacity="0" result="BackgroundImageFix"/>
<feBlend mode="normal" in="SourceGraphic" in2="BackgroundImageFix" result="shape"/>
<feColorMatrix in="SourceAlpha" type="matrix" values="0 0 0 0 0 0 0 0 0 0 0 0 0 0 0 0 0 0 127 0" result="hardAlpha"/>
<feOffset dx="-1" dy="-1"/>
<feGaussianBlur stdDeviation="2"/>
<feComposite in2="hardAlpha" operator="arithmetic" k2="-1" k3="1"/>
<feColorMatrix type="matrix" values="0 0 0 0 1 0 0 0 0 1 0 0 0 0 1 0 0 0 0.4 0"/>
<feBlend mode="normal" in2="shape" result="effect1_innerShadow_490_3635"/>
</filter>
<filter id="filter5_i_490_3635" x="1.39893" y="121.009" width="30.624" height="26.7739" filterUnits="userSpaceOnUse" color-interpolation-filters="sRGB">
<feFlood flood-opacity="0" result="BackgroundImageFix"/>
<feBlend mode="normal" in="SourceGraphic" in2="BackgroundImageFix" result="shape"/>
<feColorMatrix in="SourceAlpha" type="matrix" values="0 0 0 0 0 0 0 0 0 0 0 0 0 0 0 0 0 0 127 0" result="hardAlpha"/>
<feOffset dx="-1" dy="-1"/>
<feGaussianBlur stdDeviation="2"/>
<feComposite in2="hardAlpha" operator="arithmetic" k2="-1" k3="1"/>
<feColorMatrix type="matrix" values="0 0 0 0 1 0 0 0 0 1 0 0 0 0 1 0 0 0 0.4 0"/>
<feBlend mode="normal" in2="shape" result="effect1_innerShadow_490_3635"/>
</filter>
<filter id="filter6_ii_490_3635" x="28.0344" y="78.1196" width="74.4155" height="78.8877" filterUnits="userSpaceOnUse" color-interpolation-filters="sRGB">
<feFlood flood-opacity="0" result="BackgroundImageFix"/>
<feBlend mode="normal" in="SourceGraphic" in2="BackgroundImageFix" result="shape"/>
<feColorMatrix in="SourceAlpha" type="matrix" values="0 0 0 0 0 0 0 0 0 0 0 0 0 0 0 0 0 0 127 0" result="hardAlpha"/>
<feOffset dy="2"/>
<feGaussianBlur stdDeviation="2"/>
<feComposite in2="hardAlpha" operator="arithmetic" k2="-1" k3="1"/>
<feColorMatrix type="matrix" values="0 0 0 0 1 0 0 0 0 1 0 0 0 0 1 0 0 0 0.25 0"/>
<feBlend mode="normal" in2="shape" result="effect1_innerShadow_490_3635"/>
<feColorMatrix in="SourceAlpha" type="matrix" values="0 0 0 0 0 0 0 0 0 0 0 0 0 0 0 0 0 0 127 0" result="hardAlpha"/>
<feOffset/>
<feGaussianBlur stdDeviation="2"/>
<feComposite in2="hardAlpha" operator="arithmetic" k2="-1" k3="1"/>
<feColorMatrix type="matrix" values="0 0 0 0 1 0 0 0 0 1 0 0 0 0 1 0 0 0 0.25 0"/>
<feBlend mode="normal" in2="effect1_innerShadow_490_3635" result="effect2_innerShadow_490_3635"/>
</filter>
<filter id="filter7_f_490_3635" x="4.67065" y="145.287" width="122.383" height="18.2012" filterUnits="userSpaceOnUse" color-interpolation-filters="sRGB">
<feFlood flood-opacity="0" result="BackgroundImageFix"/>
<feBlend mode="normal" in="SourceGraphic" in2="BackgroundImageFix" result="shape"/>
<feGaussianBlur stdDeviation="3" result="effect1_foregroundBlur_490_3635"/>
</filter>
<filter id="filter8_di_490_3635" x="127.495" y="59.1001" width="64.8464" height="74.1904" filterUnits="userSpaceOnUse" color-interpolation-filters="sRGB">
<feFlood flood-opacity="0" result="BackgroundImageFix"/>
<feColorMatrix in="SourceAlpha" type="matrix" values="0 0 0 0 0 0 0 0 0 0 0 0 0 0 0 0 0 0 127 0" result="hardAlpha"/>
<feOffset dx="2" dy="-1"/>
<feGaussianBlur stdDeviation="2"/>
<feComposite in2="hardAlpha" operator="out"/>
<feColorMatrix type="matrix" values="0 0 0 0 0.165208 0 0 0 0 0.0494792 0 0 0 0 0.3125 0 0 0 0.15 0"/>
<feBlend mode="normal" in2="BackgroundImageFix" result="effect1_dropShadow_490_3635"/>
<feBlend mode="normal" in="SourceGraphic" in2="effect1_dropShadow_490_3635" result="shape"/>
<feColorMatrix in="SourceAlpha" type="matrix" values="0 0 0 0 0 0 0 0 0 0 0 0 0 0 0 0 0 0 127 0" result="hardAlpha"/>
<feOffset/>
<feGaussianBlur stdDeviation="2"/>
<feComposite in2="hardAlpha" operator="arithmetic" k2="-1" k3="1"/>
<feColorMatrix type="matrix" values="0 0 0 0 1 0 0 0 0 1 0 0 0 0 1 0 0 0 0.25 0"/>
<feBlend mode="normal" in2="shape" result="effect2_innerShadow_490_3635"/>
</filter>
<filter id="filter9_i_490_3635" x="171.415" y="84.4023" width="51.9243" height="40.4648" filterUnits="userSpaceOnUse" color-interpolation-filters="sRGB">
<feFlood flood-opacity="0" result="BackgroundImageFix"/>
<feBlend mode="normal" in="SourceGraphic" in2="BackgroundImageFix" result="shape"/>
<feColorMatrix in="SourceAlpha" type="matrix" values="0 0 0 0 0 0 0 0 0 0 0 0 0 0 0 0 0 0 127 0" result="hardAlpha"/>
<feOffset/>
<feGaussianBlur stdDeviation="1.5"/>
<feComposite in2="hardAlpha" operator="arithmetic" k2="-1" k3="1"/>
<feColorMatrix type="matrix" values="0 0 0 0 0 0 0 0 0 0.541667 0 0 0 0 0.376812 0 0 0 0.25 0"/>
<feBlend mode="normal" in2="shape" result="effect1_innerShadow_490_3635"/>
</filter>
<filter id="filter10_i_490_3635" x="176.344" y="84.4023" width="46.9958" height="21.1694" filterUnits="userSpaceOnUse" color-interpolation-filters="sRGB">
<feFlood flood-opacity="0" result="BackgroundImageFix"/>
<feBlend mode="normal" in="SourceGraphic" in2="BackgroundImageFix" result="shape"/>
<feColorMatrix in="SourceAlpha" type="matrix" values="0 0 0 0 0 0 0 0 0 0 0 0 0 0 0 0 0 0 127 0" result="hardAlpha"/>
<feOffset dy="1"/>
<feGaussianBlur stdDeviation="1"/>
<feComposite in2="hardAlpha" operator="arithmetic" k2="-1" k3="1"/>
<feColorMatrix type="matrix" values="0 0 0 0 0.00583168 0 0 0 0 0 0 0 0 0 0.287695 0 0 0 0.25 0"/>
<feBlend mode="normal" in2="shape" result="effect1_innerShadow_490_3635"/>
</filter>
<filter id="filter11_di_490_3635" x="186.116" y="92.334" width="23.1492" height="23.1489" filterUnits="userSpaceOnUse" color-interpolation-filters="sRGB">
<feFlood flood-opacity="0" result="BackgroundImageFix"/>
<feColorMatrix in="SourceAlpha" type="matrix" values="0 0 0 0 0 0 0 0 0 0 0 0 0 0 0 0 0 0 127 0" result="hardAlpha"/>
<feOffset/>
<feGaussianBlur stdDeviation="1"/>
<feComposite in2="hardAlpha" operator="out"/>
<feColorMatrix type="matrix" values="0 0 0 0 0.279167 0 0 0 0 0.1675 0 0 0 0 0 0 0 0 0.15 0"/>
<feBlend mode="normal" in2="BackgroundImageFix" result="effect1_dropShadow_490_3635"/>
<feBlend mode="normal" in="SourceGraphic" in2="effect1_dropShadow_490_3635" result="shape"/>
<feColorMatrix in="SourceAlpha" type="matrix" values="0 0 0 0 0 0 0 0 0 0 0 0 0 0 0 0 0 0 127 0" result="hardAlpha"/>
<feOffset dx="1" dy="1"/>
<feGaussianBlur stdDeviation="1"/>
<feComposite in2="hardAlpha" operator="arithmetic" k2="-1" k3="1"/>
<feColorMatrix type="matrix" values="0 0 0 0 0 0 0 0 0 0.485167 0 0 0 0 0.591667 0 0 0 0.25 0"/>
<feBlend mode="normal" in2="shape" result="effect2_innerShadow_490_3635"/>
</filter>
<filter id="filter12_d_490_3635" x="186.116" y="92.334" width="23.1492" height="23.1489" filterUnits="userSpaceOnUse" color-interpolation-filters="sRGB">
<feFlood flood-opacity="0" result="BackgroundImageFix"/>
<feColorMatrix in="SourceAlpha" type="matrix" values="0 0 0 0 0 0 0 0 0 0 0 0 0 0 0 0 0 0 127 0" result="hardAlpha"/>
<feOffset/>
<feGaussianBlur stdDeviation="1"/>
<feComposite in2="hardAlpha" operator="out"/>
<feColorMatrix type="matrix" values="0 0 0 0 0.279167 0 0 0 0 0.1675 0 0 0 0 0 0 0 0 0.15 0"/>
<feBlend mode="normal" in2="BackgroundImageFix" result="effect1_dropShadow_490_3635"/>
<feBlend mode="normal" in="SourceGraphic" in2="effect1_dropShadow_490_3635" result="shape"/>
</filter>
<filter id="filter13_i_490_3635" x="52.7256" y="123.837" width="31.1616" height="60.5386" filterUnits="userSpaceOnUse" color-interpolation-filters="sRGB">
<feFlood flood-opacity="0" result="BackgroundImageFix"/>
<feBlend mode="normal" in="SourceGraphic" in2="BackgroundImageFix" result="shape"/>
<feColorMatrix in="SourceAlpha" type="matrix" values="0 0 0 0 0 0 0 0 0 0 0 0 0 0 0 0 0 0 127 0" result="hardAlpha"/>
<feOffset dx="-1" dy="-1"/>
<feGaussianBlur stdDeviation="2"/>
<feComposite in2="hardAlpha" operator="arithmetic" k2="-1" k3="1"/>
<feColorMatrix type="matrix" values="0 0 0 0 1 0 0 0 0 1 0 0 0 0 1 0 0 0 0.4 0"/>
<feBlend mode="normal" in2="shape" result="effect1_innerShadow_490_3635"/>
</filter>
<filter id="filter14_i_490_3635" x="47.7593" y="155.999" width="37.7063" height="26.0439" filterUnits="userSpaceOnUse" color-interpolation-filters="sRGB">
<feFlood flood-opacity="0" result="BackgroundImageFix"/>
<feBlend mode="normal" in="SourceGraphic" in2="BackgroundImageFix" result="shape"/>
<feColorMatrix in="SourceAlpha" type="matrix" values="0 0 0 0 0 0 0 0 0 0 0 0 0 0 0 0 0 0 127 0" result="hardAlpha"/>
<feOffset dx="-1" dy="-1"/>
<feGaussianBlur stdDeviation="2"/>
<feComposite in2="hardAlpha" operator="arithmetic" k2="-1" k3="1"/>
<feColorMatrix type="matrix" values="0 0 0 0 1 0 0 0 0 1 0 0 0 0 1 0 0 0 0.4 0"/>
<feBlend mode="normal" in2="shape" result="effect1_innerShadow_490_3635"/>
</filter>
<filter id="filter15_ii_490_3635" x="78.7292" y="111.275" width="74.4155" height="78.8877" filterUnits="userSpaceOnUse" color-interpolation-filters="sRGB">
<feFlood flood-opacity="0" result="BackgroundImageFix"/>
<feBlend mode="normal" in="SourceGraphic" in2="BackgroundImageFix" result="shape"/>
<feColorMatrix in="SourceAlpha" type="matrix" values="0 0 0 0 0 0 0 0 0 0 0 0 0 0 0 0 0 0 127 0" result="hardAlpha"/>
<feOffset dy="2"/>
<feGaussianBlur stdDeviation="2"/>
<feComposite in2="hardAlpha" operator="arithmetic" k2="-1" k3="1"/>
<feColorMatrix type="matrix" values="0 0 0 0 1 0 0 0 0 1 0 0 0 0 1 0 0 0 0.25 0"/>
<feBlend mode="normal" in2="shape" result="effect1_innerShadow_490_3635"/>
<feColorMatrix in="SourceAlpha" type="matrix" values="0 0 0 0 0 0 0 0 0 0 0 0 0 0 0 0 0 0 127 0" result="hardAlpha"/>
<feOffset/>
<feGaussianBlur stdDeviation="2"/>
<feComposite in2="hardAlpha" operator="arithmetic" k2="-1" k3="1"/>
<feColorMatrix type="matrix" values="0 0 0 0 1 0 0 0 0 1 0 0 0 0 1 0 0 0 0.25 0"/>
<feBlend mode="normal" in2="effect1_innerShadow_490_3635" result="effect2_innerShadow_490_3635"/>
</filter>
<filter id="filter16_f_490_3635" x="55.3655" y="178.442" width="122.383" height="18.2012" filterUnits="userSpaceOnUse" color-interpolation-filters="sRGB">
<feFlood flood-opacity="0" result="BackgroundImageFix"/>
<feBlend mode="normal" in="SourceGraphic" in2="BackgroundImageFix" result="shape"/>
<feGaussianBlur stdDeviation="3" result="effect1_foregroundBlur_490_3635"/>
</filter>
<filter id="filter17_i_490_3635" x="44.0796" y="-0.395264" width="49.1111" height="50.825" filterUnits="userSpaceOnUse" color-interpolation-filters="sRGB">
<feFlood flood-opacity="0" result="BackgroundImageFix"/>
<feBlend mode="normal" in="SourceGraphic" in2="BackgroundImageFix" result="shape"/>
<feColorMatrix in="SourceAlpha" type="matrix" values="0 0 0 0 0 0 0 0 0 0 0 0 0 0 0 0 0 0 127 0" result="hardAlpha"/>
<feOffset dx="-1" dy="-1"/>
<feGaussianBlur stdDeviation="1"/>
<feComposite in2="hardAlpha" operator="arithmetic" k2="-1" k3="1"/>
<feColorMatrix type="matrix" values="0 0 0 0 0.932833 0 0 0 0 0.741667 0 0 0 0 1 0 0 0 0.25 0"/>
<feBlend mode="normal" in2="shape" result="effect1_innerShadow_490_3635"/>
</filter>
<filter id="filter18_f_490_3635" x="165.877" y="169.187" width="45.1584" height="14.9341" filterUnits="userSpaceOnUse" color-interpolation-filters="sRGB">
<feFlood flood-opacity="0" result="BackgroundImageFix"/>
<feBlend mode="normal" in="SourceGraphic" in2="BackgroundImageFix" result="shape"/>
<feGaussianBlur stdDeviation="3" result="effect1_foregroundBlur_490_3635"/>
</filter>
<linearGradient id="paint0_linear_490_3635" x1="242.047" y1="71.1523" x2="190.045" y2="138.408" gradientUnits="userSpaceOnUse">
<stop stop-color="#81BE65"/>
<stop offset="1" stop-color="#638BC7"/>
</linearGradient>
<linearGradient id="paint1_linear_490_3635" x1="221.311" y1="37.4339" x2="181.916" y2="143.238" gradientUnits="userSpaceOnUse">
<stop stop-color="#FFAD61"/>
<stop offset="1" stop-color="#04B05E"/>
</linearGradient>
<linearGradient id="paint2_linear_490_3635" x1="136.034" y1="29.875" x2="136.034" y2="146.786" gradientUnits="userSpaceOnUse">
<stop stop-color="#EEA5F9"/>
<stop offset="1" stop-color="#6A67FC"/>
</linearGradient>
<linearGradient id="paint3_linear_490_3635" x1="8.93714" y1="86.0055" x2="31.421" y2="148.605" gradientUnits="userSpaceOnUse">
<stop stop-color="#81BE65"/>
<stop offset="1" stop-color="#638BC7"/>
</linearGradient>
<linearGradient id="paint4_linear_490_3635" x1="2.39891" y1="122.009" x2="32.0229" y2="147.783" gradientUnits="userSpaceOnUse">
<stop stop-color="#FFAD61"/>
<stop offset="1" stop-color="#04B05E"/>
</linearGradient>
<linearGradient id="paint5_linear_490_3635" x1="65.2422" y1="76.8711" x2="65.2422" y2="155.007" gradientUnits="userSpaceOnUse">
<stop stop-color="#EEA5F9"/>
<stop offset="1" stop-color="#9795FF"/>
</linearGradient>
<linearGradient id="paint6_linear_490_3635" x1="166.483" y1="96.7347" x2="130.569" y2="152.491" gradientUnits="userSpaceOnUse">
<stop stop-color="#D9FFE8"/>
<stop offset="1" stop-color="#A4BDFF"/>
</linearGradient>
<linearGradient id="paint7_linear_490_3635" x1="53.9794" y1="124.837" x2="83.6334" y2="184.376" gradientUnits="userSpaceOnUse">
<stop stop-color="#81BE65"/>
<stop offset="1" stop-color="#638BC7"/>
</linearGradient>
<linearGradient id="paint8_linear_490_3635" x1="48.7592" y1="156.999" x2="85.4656" y2="182.043" gradientUnits="userSpaceOnUse">
<stop stop-color="#FFAD61"/>
<stop offset="1" stop-color="#04B05E"/>
</linearGradient>
<linearGradient id="paint9_linear_490_3635" x1="115.937" y1="110.026" x2="115.937" y2="188.163" gradientUnits="userSpaceOnUse">
<stop stop-color="#EEA5F9"/>
<stop offset="1" stop-color="#9795FF"/>
</linearGradient>
<linearGradient id="paint10_linear_490_3635" x1="123" y1="159.605" x2="123" y2="169.605" gradientUnits="userSpaceOnUse">
<stop stop-color="#EEA5F9"/>
<stop offset="1" stop-color="#9795FF"/>
</linearGradient>
<clipPath id="clip0_490_3635">
<rect width="246" height="197" fill="white" transform="translate(0 0.604736)"/>
</clipPath>
</defs>
</svg>
