<svg width="246" height="197" viewBox="0 0 246 197" fill="none" xmlns="http://www.w3.org/2000/svg">
<g clip-path="url(#clip0_480_1672)">
<path d="M143.254 3C143.254 1.34314 144.597 0 146.254 0H190.563C192.22 0 193.563 1.34315 193.563 3V30.5395C193.563 32.1964 192.22 33.5395 190.563 33.5395H169.282C168.711 33.5395 168.153 33.7022 167.671 34.0085L160.796 38.384C159.813 39.0093 158.557 39.0093 157.574 38.384L150.699 34.0085C150.217 33.7022 149.659 33.5395 149.088 33.5395H146.254C144.597 33.5395 143.254 32.1964 143.254 30.5395V3Z" fill="#FFAD61"/>
<rect x="146.607" y="6.70947" width="18.4467" height="3.35395" rx="0.5" fill="white"/>
<rect x="146.607" y="13.416" width="36.8935" height="3.35395" rx="0.5" fill="white"/>
<rect x="146.607" y="20.1235" width="40.2474" height="3.35395" rx="0.5" fill="white"/>
<rect x="168.408" y="6.70947" width="6.7079" height="3.35395" rx="0.5" fill="white"/>
<g filter="url(#filter0_i_480_1672)">
<path d="M58.6625 91.6486C69.6974 122.417 62.2035 153.256 62.2035 153.256C62.2035 153.256 36.8186 134.209 25.7838 103.44C14.749 72.6718 22.2429 41.8332 22.2429 41.8332C22.2429 41.8332 47.6277 60.8801 58.6625 91.6486Z" fill="url(#paint0_linear_480_1672)"/>
</g>
<path d="M61.6511 151.075C61.6511 151.075 55.011 134.895 46.9729 113.622M23.9679 45.8366C26.7252 55.8512 30.4028 67.2989 34.382 78.8704M34.382 78.8704L38.379 61.8502M34.382 78.8704C38.4845 90.8005 42.9075 102.862 46.9729 113.622M46.9729 113.622L28.0648 101.996" stroke="white" stroke-opacity="0.3" stroke-linecap="round"/>
<g filter="url(#filter1_i_480_1672)">
<path d="M42.6049 118.415C56.0546 132.252 59.5644 150.656 59.5644 150.656C59.5644 150.656 41.268 146.625 27.8183 132.787C14.3686 118.949 10.8588 100.546 10.8588 100.546C10.8588 100.546 29.1552 104.577 42.6049 118.415Z" fill="url(#paint1_linear_480_1672)"/>
</g>
<path d="M58.734 149.62C58.734 149.62 51.2112 142.548 41.6925 133.081M12.7635 102.277C16.6927 106.984 21.4668 112.237 26.4333 117.483M26.4333 117.483L24.4214 107.36M26.4333 117.483C31.5536 122.892 36.8783 128.292 41.6925 133.081M41.6925 133.081L28.6903 131.454" stroke="white" stroke-opacity="0.3" stroke-linecap="round"/>
<g filter="url(#filter2_ii_480_1672)">
<path d="M52.7826 75.1247C52.7826 69.508 55.9206 64.3618 60.9138 61.7898L104.129 39.5297C108.439 37.3097 113.557 37.3097 117.867 39.5298L161.082 61.7898C166.076 64.3618 169.214 69.508 169.214 75.1247V143.244C169.214 151.529 162.498 158.244 154.214 158.244H67.7826C59.4983 158.244 52.7826 151.529 52.7826 143.244V75.1247Z" fill="url(#paint2_linear_480_1672)"/>
</g>
<path d="M89 92C89 89.2386 91.2386 87 94 87H126C128.761 87 131 89.2386 131 92V158H89V92Z" fill="#FCF0FF"/>
<circle cx="120" cy="123" r="6" fill="url(#paint3_linear_480_1672)"/>
<g filter="url(#filter3_f_480_1672)">
<ellipse cx="111.968" cy="157.275" rx="86.353" ry="4.85129" fill="#9795FF" fill-opacity="0.3"/>
</g>
<g filter="url(#filter4_di_480_1672)">
<rect x="142.155" y="72.0059" width="70.4268" height="70.4268" rx="5" transform="rotate(13.2613 142.155 72.0059)" fill="#F5F5F5"/>
</g>
<rect x="147.873" y="84.1406" width="12" height="12" rx="1" transform="rotate(13.3848 147.873 84.1406)" fill="#E5E5E5"/>
<rect x="161.492" y="87.3818" width="12" height="12" rx="1" transform="rotate(13.3848 161.492 87.3818)" fill="#E5E5E5"/>
<rect x="175.112" y="90.6226" width="12" height="12" rx="1" transform="rotate(13.3848 175.112 90.6226)" fill="#9795FF"/>
<rect x="188.732" y="93.8633" width="12" height="12" rx="1" transform="rotate(13.3848 188.732 93.8633)" fill="#9795FF"/>
<rect x="144.632" y="97.7603" width="12" height="12" rx="1" transform="rotate(13.3848 144.632 97.7603)" fill="#9795FF"/>
<rect x="158.251" y="101.001" width="12" height="12" rx="1" transform="rotate(13.3848 158.251 101.001)" fill="#9795FF"/>
<rect x="171.871" y="104.242" width="12" height="12" rx="1" transform="rotate(13.3848 171.871 104.242)" fill="#9795FF"/>
<rect x="185.491" y="107.483" width="12" height="12" rx="1" transform="rotate(13.3848 185.491 107.483)" fill="#9795FF"/>
<rect x="141.391" y="111.38" width="12" height="12" rx="1" transform="rotate(13.3848 141.391 111.38)" fill="#9795FF"/>
<rect x="155.011" y="114.621" width="12" height="12" rx="1" transform="rotate(13.3848 155.011 114.621)" fill="#9795FF"/>
<rect x="168.63" y="117.862" width="12" height="12" rx="1" transform="rotate(13.3848 168.63 117.862)" fill="#9795FF"/>
<rect x="182.25" y="121.103" width="12" height="12" rx="1" transform="rotate(13.3848 182.25 121.103)" fill="#9795FF"/>
<rect x="138.15" y="125" width="12" height="12" rx="1" transform="rotate(13.3848 138.15 125)" fill="#9795FF"/>
<rect x="151.77" y="128.241" width="12" height="12" rx="1" transform="rotate(13.3848 151.77 128.241)" fill="#9795FF"/>
<rect x="165.39" y="131.481" width="12" height="12" rx="1" transform="rotate(13.3848 165.39 131.481)" fill="#E5E5E5"/>
<rect x="179.009" y="134.723" width="12" height="12" rx="1" transform="rotate(13.3848 179.009 134.723)" fill="#E5E5E5"/>
<rect x="156.979" y="69.1611" width="5.82155" height="11.6431" rx="2.91078" transform="rotate(13.2613 156.979 69.1611)" fill="#6A49A0"/>
<rect x="183.422" y="75.3926" width="5.82155" height="11.6431" rx="2.91078" transform="rotate(13.2613 183.422 75.3926)" fill="#6A49A0"/>
<rect x="166.423" y="71.3862" width="5.82155" height="11.6431" rx="2.91078" transform="rotate(13.2613 166.423 71.3862)" fill="#6A49A0"/>
<rect x="192.866" y="77.6177" width="5.82155" height="11.6431" rx="2.91078" transform="rotate(13.2613 192.866 77.6177)" fill="#6A49A0"/>
<g filter="url(#filter5_f_480_1672)">
<path d="M229.378 181.114C229.659 183.778 206.64 186.105 173.36 189.617C140.08 193.129 124.628 200.746 121.936 194.468C119.025 187.678 139.11 191.19 172.389 187.678C205.669 184.166 229.097 178.449 229.378 181.114Z" fill="#9795FF" fill-opacity="0.3"/>
</g>
<g filter="url(#filter6_i_480_1672)">
<path d="M233.858 141.463C239.11 155.976 232.678 172.367 218.985 179.29C206.768 185.583 192.744 182.919 183.503 174.161L182.984 173.572L135.51 193.826C134.828 194.117 134.001 194.065 133.303 193.687L123.496 188.008C122.587 187.45 122.099 186.307 122.325 185.265L125.012 174.255C125.223 173.49 125.758 172.856 126.439 172.565L136.271 168.371C136.726 168.177 137.229 168.097 137.829 168.246L141.985 169.176C143.024 169.408 144.159 168.923 144.71 168.013L146.688 164.467C146.883 163.978 147.402 163.622 147.856 163.428L153.031 161.22C153.599 160.978 154.265 160.964 154.752 161.161L160.288 163.123C161.537 163.536 162.9 162.954 163.419 161.652L165.428 156.607C165.687 155.956 166.157 155.485 166.725 155.242L173.864 152.197L173.799 151.414C173.774 139.399 180.907 128.114 192.492 123.172C208.847 116.194 227.922 124.404 233.858 141.463ZM214.451 147.581C215.817 150.781 219.389 152.23 222.569 150.873C225.749 149.517 227.174 145.936 225.809 142.735C224.443 139.535 220.872 138.086 217.692 139.443C214.512 140.8 213.086 144.38 214.451 147.581Z" fill="#FFC700"/>
</g>
<g filter="url(#filter7_f_480_1672)">
<ellipse cx="37.4308" cy="172.069" rx="17.348" ry="1.53503" fill="#9795FF" fill-opacity="0.5"/>
</g>
<path d="M46.5475 172.811H31.4731C28.4914 172.811 25.6753 170.824 24.6814 168.007L20.3745 156.08C19.5462 153.927 20.5401 151.442 22.6936 150.614C23.8531 150.117 25.0127 150.117 26.0066 150.614C27.0005 151.111 27.8288 151.939 28.3258 153.099L32.7983 164.694L30.6449 165.523L26.1723 153.927C26.0066 153.43 25.6753 153.099 25.1784 152.767C24.6814 152.602 24.1844 152.602 23.6875 152.767C22.6936 153.099 22.1966 154.258 22.5279 155.252L27.0005 167.179C27.6631 169.167 29.4853 170.327 31.4731 170.327H44.0627L41.9092 168.504L43.5658 166.682L47.5414 170.327C48.0384 170.658 48.0384 171.32 47.8727 171.817C47.7071 172.314 47.2101 172.811 46.5475 172.811Z" fill="#9795FF"/>
<path d="M38.4307 171.154C37.1054 171.154 35.7803 170.823 34.455 170.326C32.7985 169.663 31.3076 167.841 30.645 165.853C30.1481 164.031 30.3137 162.209 31.3076 160.884C32.6329 159.227 34.6207 158.068 36.7741 158.233C38.4307 158.399 39.7559 159.227 40.5842 160.553C41.5781 162.375 41.5781 164.363 40.2528 165.688C39.0933 167.013 37.1054 167.51 35.6146 166.847C34.1237 166.185 33.2955 164.86 33.4611 163.037L35.7803 163.203C35.7803 164.031 35.9459 164.528 36.4428 164.86C37.1054 165.025 37.9337 164.86 38.4307 164.363C39.0933 163.7 38.762 162.706 38.4307 162.043C37.9337 161.215 37.1054 161.05 36.6085 160.884C35.2833 160.718 33.958 161.546 33.1298 162.54C32.4672 163.534 32.6329 164.694 32.7985 165.522C33.2955 167.013 34.2894 168.173 35.1176 168.504C37.6024 169.498 40.5842 169.332 41.9094 167.51C45.0568 162.706 42.4063 158.896 41.4124 157.736C38.9276 154.92 32.9642 154.589 28.6572 157.24L27.6633 154.92C32.9642 151.773 40.2528 152.27 43.4002 155.914C44.5598 157.24 48.0385 162.209 44.0629 168.504C42.9033 170.492 40.5842 171.154 38.4307 171.154Z" fill="#9795FF"/>
<path d="M26.5039 151.772L24.1848 151.441C24.5161 149.619 26.1726 146.306 30.1483 145.809L30.314 148.128C27.1666 148.459 26.5039 151.772 26.5039 151.772Z" fill="#9795FF"/>
<path d="M20.7066 154.091C19.7127 151.937 19.3814 147.133 24.1853 144.151L25.3448 146.139C21.0379 148.79 22.6944 152.765 22.8601 153.097L20.7066 154.091Z" fill="#9795FF"/>
<path d="M24.6817 146.306C25.3222 146.306 25.8413 145.787 25.8413 145.147C25.8413 144.506 25.3222 143.987 24.6817 143.987C24.0413 143.987 23.5222 144.506 23.5222 145.147C23.5222 145.787 24.0413 146.306 24.6817 146.306Z" fill="#9795FF"/>
<path d="M30.3148 148.128C30.9552 148.128 31.4744 147.609 31.4744 146.968C31.4744 146.328 30.9552 145.809 30.3148 145.809C29.6744 145.809 29.1552 146.328 29.1552 146.968C29.1552 147.609 29.6744 148.128 30.3148 148.128Z" fill="#9795FF"/>
</g>
<defs>
<filter id="filter0_i_480_1672" x="18.757" y="40.833" width="45.9324" height="112.423" filterUnits="userSpaceOnUse" color-interpolation-filters="sRGB">
<feFlood flood-opacity="0" result="BackgroundImageFix"/>
<feBlend mode="normal" in="SourceGraphic" in2="BackgroundImageFix" result="shape"/>
<feColorMatrix in="SourceAlpha" type="matrix" values="0 0 0 0 0 0 0 0 0 0 0 0 0 0 0 0 0 0 127 0" result="hardAlpha"/>
<feOffset dx="-1" dy="-1"/>
<feGaussianBlur stdDeviation="2"/>
<feComposite in2="hardAlpha" operator="arithmetic" k2="-1" k3="1"/>
<feColorMatrix type="matrix" values="0 0 0 0 1 0 0 0 0 1 0 0 0 0 1 0 0 0 0.4 0"/>
<feBlend mode="normal" in2="shape" result="effect1_innerShadow_480_1672"/>
</filter>
<filter id="filter1_i_480_1672" x="9.85876" y="99.5459" width="49.7057" height="51.1099" filterUnits="userSpaceOnUse" color-interpolation-filters="sRGB">
<feFlood flood-opacity="0" result="BackgroundImageFix"/>
<feBlend mode="normal" in="SourceGraphic" in2="BackgroundImageFix" result="shape"/>
<feColorMatrix in="SourceAlpha" type="matrix" values="0 0 0 0 0 0 0 0 0 0 0 0 0 0 0 0 0 0 127 0" result="hardAlpha"/>
<feOffset dx="-1" dy="-1"/>
<feGaussianBlur stdDeviation="2"/>
<feComposite in2="hardAlpha" operator="arithmetic" k2="-1" k3="1"/>
<feColorMatrix type="matrix" values="0 0 0 0 1 0 0 0 0 1 0 0 0 0 1 0 0 0 0.4 0"/>
<feBlend mode="normal" in2="shape" result="effect1_innerShadow_480_1672"/>
</filter>
<filter id="filter2_ii_480_1672" x="52.7826" y="37.8647" width="116.431" height="122.379" filterUnits="userSpaceOnUse" color-interpolation-filters="sRGB">
<feFlood flood-opacity="0" result="BackgroundImageFix"/>
<feBlend mode="normal" in="SourceGraphic" in2="BackgroundImageFix" result="shape"/>
<feColorMatrix in="SourceAlpha" type="matrix" values="0 0 0 0 0 0 0 0 0 0 0 0 0 0 0 0 0 0 127 0" result="hardAlpha"/>
<feOffset dy="2"/>
<feGaussianBlur stdDeviation="2"/>
<feComposite in2="hardAlpha" operator="arithmetic" k2="-1" k3="1"/>
<feColorMatrix type="matrix" values="0 0 0 0 1 0 0 0 0 1 0 0 0 0 1 0 0 0 0.25 0"/>
<feBlend mode="normal" in2="shape" result="effect1_innerShadow_480_1672"/>
<feColorMatrix in="SourceAlpha" type="matrix" values="0 0 0 0 0 0 0 0 0 0 0 0 0 0 0 0 0 0 127 0" result="hardAlpha"/>
<feOffset/>
<feGaussianBlur stdDeviation="2"/>
<feComposite in2="hardAlpha" operator="arithmetic" k2="-1" k3="1"/>
<feColorMatrix type="matrix" values="0 0 0 0 1 0 0 0 0 1 0 0 0 0 1 0 0 0 0.25 0"/>
<feBlend mode="normal" in2="effect1_innerShadow_480_1672" result="effect2_innerShadow_480_1672"/>
</filter>
<filter id="filter3_f_480_1672" x="19.6147" y="146.423" width="184.706" height="21.7026" filterUnits="userSpaceOnUse" color-interpolation-filters="sRGB">
<feFlood flood-opacity="0" result="BackgroundImageFix"/>
<feBlend mode="normal" in="SourceGraphic" in2="BackgroundImageFix" result="shape"/>
<feGaussianBlur stdDeviation="3" result="effect1_foregroundBlur_480_1672"/>
</filter>
<filter id="filter4_di_480_1672" x="121.012" y="70.0186" width="90.6792" height="90.6792" filterUnits="userSpaceOnUse" color-interpolation-filters="sRGB">
<feFlood flood-opacity="0" result="BackgroundImageFix"/>
<feColorMatrix in="SourceAlpha" type="matrix" values="0 0 0 0 0 0 0 0 0 0 0 0 0 0 0 0 0 0 127 0" result="hardAlpha"/>
<feOffset dx="-2" dy="1"/>
<feGaussianBlur stdDeviation="2"/>
<feComposite in2="hardAlpha" operator="out"/>
<feColorMatrix type="matrix" values="0 0 0 0 0.165208 0 0 0 0 0.0494792 0 0 0 0 0.3125 0 0 0 0.15 0"/>
<feBlend mode="normal" in2="BackgroundImageFix" result="effect1_dropShadow_480_1672"/>
<feBlend mode="normal" in="SourceGraphic" in2="effect1_dropShadow_480_1672" result="shape"/>
<feColorMatrix in="SourceAlpha" type="matrix" values="0 0 0 0 0 0 0 0 0 0 0 0 0 0 0 0 0 0 127 0" result="hardAlpha"/>
<feOffset/>
<feGaussianBlur stdDeviation="2"/>
<feComposite in2="hardAlpha" operator="arithmetic" k2="-1" k3="1"/>
<feColorMatrix type="matrix" values="0 0 0 0 1 0 0 0 0 1 0 0 0 0 1 0 0 0 0.25 0"/>
<feBlend mode="normal" in2="shape" result="effect2_innerShadow_480_1672"/>
</filter>
<filter id="filter5_f_480_1672" x="118.657" y="177.428" width="113.723" height="22.4419" filterUnits="userSpaceOnUse" color-interpolation-filters="sRGB">
<feFlood flood-opacity="0" result="BackgroundImageFix"/>
<feBlend mode="normal" in="SourceGraphic" in2="BackgroundImageFix" result="shape"/>
<feGaussianBlur stdDeviation="1.5" result="effect1_foregroundBlur_480_1672"/>
</filter>
<filter id="filter6_i_480_1672" x="120.27" y="119.685" width="115.412" height="74.3276" filterUnits="userSpaceOnUse" color-interpolation-filters="sRGB">
<feFlood flood-opacity="0" result="BackgroundImageFix"/>
<feBlend mode="normal" in="SourceGraphic" in2="BackgroundImageFix" result="shape"/>
<feColorMatrix in="SourceAlpha" type="matrix" values="0 0 0 0 0 0 0 0 0 0 0 0 0 0 0 0 0 0 127 0" result="hardAlpha"/>
<feOffset dx="-2" dy="-1"/>
<feGaussianBlur stdDeviation="1"/>
<feComposite in2="hardAlpha" operator="arithmetic" k2="-1" k3="1"/>
<feColorMatrix type="matrix" values="0 0 0 0 1 0 0 0 0 1 0 0 0 0 1 0 0 0 0.5 0"/>
<feBlend mode="normal" in2="shape" result="effect1_innerShadow_480_1672"/>
</filter>
<filter id="filter7_f_480_1672" x="14.0828" y="164.534" width="46.696" height="15.0703" filterUnits="userSpaceOnUse" color-interpolation-filters="sRGB">
<feFlood flood-opacity="0" result="BackgroundImageFix"/>
<feBlend mode="normal" in="SourceGraphic" in2="BackgroundImageFix" result="shape"/>
<feGaussianBlur stdDeviation="3" result="effect1_foregroundBlur_480_1672"/>
</filter>
<linearGradient id="paint0_linear_480_1672" x1="22.2429" y1="41.8332" x2="62.2035" y2="153.256" gradientUnits="userSpaceOnUse">
<stop stop-color="#81BE65"/>
<stop offset="1" stop-color="#638BC7"/>
</linearGradient>
<linearGradient id="paint1_linear_480_1672" x1="10.8588" y1="100.546" x2="59.5644" y2="150.656" gradientUnits="userSpaceOnUse">
<stop stop-color="#FFAD61"/>
<stop offset="1" stop-color="#04B05E"/>
</linearGradient>
<linearGradient id="paint2_linear_480_1672" x1="110.998" y1="35.9917" x2="110.998" y2="158.244" gradientUnits="userSpaceOnUse">
<stop stop-color="#EEA5F9"/>
<stop offset="1" stop-color="#9795FF"/>
</linearGradient>
<linearGradient id="paint3_linear_480_1672" x1="120" y1="117" x2="120" y2="129" gradientUnits="userSpaceOnUse">
<stop stop-color="#EEA5F9"/>
<stop offset="1" stop-color="#9795FF"/>
</linearGradient>
<clipPath id="clip0_480_1672">
<rect width="246" height="197" fill="white"/>
</clipPath>
</defs>
</svg>
