<svg width="246" height="197" viewBox="0 0 246 197" fill="none" xmlns="http://www.w3.org/2000/svg">
<g clip-path="url(#clip0_480_810)">
<g filter="url(#filter0_i_480_810)">
<path d="M206.123 96.5031C191.763 115.075 190.045 137.803 190.045 137.803C190.045 137.803 211.609 130.42 225.969 111.848C240.329 93.2759 242.047 70.5478 242.047 70.5478C242.047 70.5478 220.483 77.931 206.123 96.5031Z" fill="url(#paint0_linear_480_810)"/>
</g>
<path d="M190.905 136.437C190.905 136.437 199.028 126.856 209.236 114.106M239.98 72.901C235.876 79.1309 230.826 86.1356 225.542 93.1582M225.542 93.1582L226.585 80.6451M225.542 93.1582C220.094 100.398 214.398 107.657 209.236 114.106M209.236 114.106L224.73 110.356" stroke="white" stroke-opacity="0.3" stroke-linecap="round"/>
<g filter="url(#filter1_i_480_810)">
<path d="M186.003 83.9187C175.124 113.136 181.916 142.633 181.916 142.633C181.916 142.633 206.345 124.76 217.224 95.5436C228.103 66.3266 221.311 36.8292 221.311 36.8292C221.311 36.8292 196.882 54.7018 186.003 83.9187Z" fill="url(#paint1_linear_480_810)"/>
</g>
<path d="M182.469 140.554C182.469 140.554 188.988 125.199 196.9 105.003M219.621 40.6209C216.876 50.1401 213.237 61.0154 209.308 72.0055M209.308 72.0055L205.693 55.727M209.308 72.0055C205.258 83.336 200.901 94.7885 196.9 105.003M196.9 105.003L215.066 94.1332" stroke="white" stroke-opacity="0.3" stroke-linecap="round"/>
<g filter="url(#filter2_ii_480_810)">
<path d="M80.3624 67.0933C80.3624 61.4765 83.5004 56.3304 88.4937 53.7583L129.165 32.8086C133.475 30.5885 138.593 30.5885 142.903 32.8086L183.575 53.7583C188.568 56.3304 191.706 61.4765 191.706 67.0933V131.181C191.706 139.465 184.99 146.181 176.706 146.181H95.3624C87.0782 146.181 80.3624 139.465 80.3624 131.181V67.0933Z" fill="url(#paint2_linear_480_810)"/>
</g>
<g filter="url(#filter3_f_480_810)">
<ellipse cx="136.962" cy="145.255" rx="82.5798" ry="4.63931" fill="#9795FF" fill-opacity="0.3"/>
</g>
<g filter="url(#filter4_i_480_810)">
<path d="M29.415 113.383C35.6238 130.67 31.421 148 31.421 148C31.421 148 17.1518 137.304 10.9431 120.018C4.73435 102.732 8.93714 85.401 8.93714 85.401C8.93714 85.401 23.2063 96.097 29.415 113.383Z" fill="url(#paint3_linear_480_810)"/>
</g>
<path d="M31.111 146.774C31.111 146.774 27.3756 137.684 22.8532 125.732M9.90854 87.6488C11.4605 93.2755 13.5301 99.7071 15.7691 106.208M15.7691 106.208L18.0105 96.6433M15.7691 106.208C18.0775 112.911 20.566 119.687 22.8532 125.732M22.8532 125.732L12.2254 119.204" stroke="white" stroke-opacity="0.3" stroke-linecap="round"/>
<g filter="url(#filter5_i_480_810)">
<path d="M21.0138 129.92C29.1942 137.037 32.0231 147.178 32.0231 147.178C32.0231 147.178 21.5888 145.779 13.4083 138.661C5.22788 131.544 2.39903 121.404 2.39903 121.404C2.39903 121.404 12.8333 122.803 21.0138 129.92Z" fill="url(#paint4_linear_480_810)"/>
</g>
<path d="M31.5094 146.635C31.5094 146.635 26.9652 143.028 21.1909 138.173M3.54673 122.281C5.96782 124.733 8.88754 127.451 11.9146 130.155M11.9146 130.155L10.3131 124.581M11.9146 130.155C15.0355 132.943 18.2705 135.718 21.1909 138.173M21.1909 138.173L13.834 137.872" stroke="white" stroke-opacity="0.3" stroke-linecap="round"/>
<g filter="url(#filter6_ii_480_810)">
<path d="M28.0345 101.529C28.0345 97.7843 30.1265 94.3536 33.4553 92.6389L60.6631 78.6243C63.5365 77.1443 66.9481 77.1443 69.8215 78.6243L97.0293 92.6389C100.358 94.3536 102.45 97.7843 102.45 101.529V144.402C102.45 149.925 97.9729 154.402 92.4501 154.402H38.0345C32.5117 154.402 28.0345 149.925 28.0345 144.402V101.529Z" fill="url(#paint5_linear_480_810)"/>
</g>
<rect x="43" y="101" width="20" height="20" rx="4" fill="#FCF0FF"/>
<rect x="67" y="101" width="20" height="20" rx="4" fill="#FCF0FF"/>
<rect x="43" y="125" width="20" height="20" rx="4" fill="#FCF0FF"/>
<rect x="67" y="125" width="20" height="20" rx="4" fill="#FCF0FF"/>
<g filter="url(#filter7_f_480_810)">
<ellipse cx="65.8622" cy="153.782" rx="55.1916" ry="3.10065" fill="#9795FF" fill-opacity="0.3"/>
</g>
<g filter="url(#filter8_di_480_810)">
<rect x="129" y="71.7017" width="47.8115" height="59.4728" rx="3" transform="rotate(-10.4864 129 71.7017)" fill="#F0F9FF"/>
</g>
<rect x="135.32" y="89.0562" width="42.0019" height="38.5832" rx="2" transform="rotate(-10.4864 135.32 89.0562)" fill="url(#paint6_linear_480_810)"/>
<path d="M141.505 84.804C140.393 85.0098 139.378 84.8161 138.46 84.2228C137.541 83.6295 136.984 82.8035 136.788 81.7447C136.694 81.2366 136.707 80.7318 136.826 80.2301C136.945 79.7285 137.159 79.2654 137.47 78.8409L139.807 75.6307L143.139 77.7917C143.581 78.0769 143.947 78.4324 144.238 78.8582C144.528 79.284 144.721 79.751 144.815 80.259C145.011 81.3178 144.786 82.2886 144.141 83.1712C143.496 84.0539 142.617 84.5981 141.505 84.804Z" fill="#0067C6"/>
<rect x="147.473" y="75.397" width="24.4888" height="5.83067" rx="2" transform="rotate(-10.4864 147.473 75.397)" fill="#FFD25F"/>
<path d="M150.28 107.343L147.529 107.852C147.256 107.903 146.973 107.842 146.744 107.685C146.515 107.527 146.358 107.285 146.307 107.011C146.256 106.738 146.317 106.455 146.474 106.226C146.632 105.997 146.874 105.84 147.148 105.789L149.898 105.28C150.172 105.229 150.454 105.289 150.683 105.447C150.913 105.605 151.07 105.847 151.12 106.12C151.171 106.394 151.111 106.677 150.953 106.906C150.796 107.135 150.553 107.292 150.28 107.343Z" fill="#7D7BDD"/>
<path d="M151.755 99.9576C151.482 100.008 151.2 99.9477 150.971 99.7899L148.559 98.06C148.397 98.0165 148.248 97.9347 148.124 97.8215C148 97.7083 148.182 97.9789 148.124 97.8215C148.066 97.664 148.094 97.2421 148.115 97.0756C148.136 96.9091 148.196 96.7501 148.291 96.6118C148.386 96.4735 148.513 96.3601 148.661 96.281C148.809 96.2019 149.134 96.11 149.301 96.1078C149.151 96.0327 149.469 96.1056 149.301 96.1078C149.451 96.183 149.582 96.2945 149.68 96.4302L152.125 98.1113C152.28 98.2306 152.399 98.3911 152.468 98.5746C152.537 98.7581 152.554 98.9572 152.515 99.1495C152.477 99.3417 152.385 99.5193 152.251 99.6622C152.117 99.805 151.945 99.9073 151.755 99.9576Z" fill="#7D7BDD"/>
<path d="M158.123 95.9388C157.85 95.9894 157.567 95.9293 157.338 95.7717C157.109 95.6141 156.952 95.3719 156.901 95.0983L156.392 92.3478C156.341 92.0743 156.401 91.7918 156.559 91.5626C156.717 91.3334 156.959 91.1761 157.232 91.1255C157.506 91.0749 157.788 91.135 158.018 91.2926C158.247 91.4502 158.404 91.6925 158.455 91.966L158.964 94.7165C159.014 94.99 158.954 95.2725 158.797 95.5017C158.639 95.731 158.397 95.8882 158.123 95.9388Z" fill="#7D7BDD"/>
<path d="M165.509 97.4107C165.305 97.4482 165.094 97.4245 164.904 97.3425C164.713 97.2605 164.552 97.124 164.439 96.95C164.326 96.7761 164.267 96.5727 164.27 96.3653C164.273 96.158 164.337 95.9562 164.454 95.7853L166.184 93.3742C166.227 93.2122 166.368 93.1815 166.481 93.0576C166.639 92.9996 166.929 92.9219 167.095 92.9428C167.262 92.9636 167.421 93.0242 167.559 93.1192C167.697 93.2143 167.811 93.3412 167.89 93.4892C167.969 93.6372 168.132 93.9486 168.135 94.1164C168.137 94.2842 168.21 93.9664 168.135 94.1164C168.06 94.2664 167.949 94.3962 167.814 94.4949L166.133 96.9396C165.993 97.1712 165.77 97.3399 165.509 97.4107Z" fill="#7D7BDD"/>
<path d="M172.282 103.271L169.532 103.78C169.258 103.831 168.976 103.771 168.746 103.613C168.517 103.455 168.36 103.213 168.309 102.94C168.259 102.666 168.319 102.384 168.476 102.154C168.634 101.925 168.876 101.768 169.15 101.717L171.9 101.208C172.174 101.158 172.456 101.218 172.686 101.375C172.915 101.533 173.072 101.775 173.123 102.049C173.173 102.322 173.113 102.605 172.956 102.834C172.798 103.063 172.556 103.22 172.282 103.271Z" fill="#7D7BDD"/>
<path d="M160.223 107.283C161.742 107.002 162.745 105.542 162.464 104.023C162.183 102.504 160.724 101.501 159.205 101.782C157.686 102.063 156.682 103.522 156.963 105.041C157.244 106.561 158.704 107.564 160.223 107.283Z" fill="#7D7BDD"/>
<path d="M159.862 105.327C159.658 105.365 159.447 105.341 159.257 105.259C159.067 105.177 158.905 105.04 158.792 104.867C158.679 104.693 158.62 104.489 158.623 104.282C158.626 104.075 158.69 103.873 158.807 103.702L161.979 99.0895C162.14 98.8711 162.381 98.7241 162.649 98.6793C162.917 98.6346 163.192 98.6956 163.416 98.8496C163.64 99.0036 163.795 99.2385 163.849 99.5049C163.903 99.7712 163.852 100.048 163.706 100.277L160.535 104.89C160.377 105.119 160.135 105.276 159.862 105.327Z" fill="#7D7BDD"/>
<circle cx="159.715" cy="104.53" r="14.8724" transform="rotate(-10.4864 159.715 104.53)" stroke="#7D7BDD" stroke-width="1.5"/>
<path d="M177.406 87.2693C177.927 85.1226 180.09 83.8049 182.237 84.3262L188.094 85.7486C189.145 86.0038 190.246 85.9702 191.279 85.6514L194.618 84.6214C195.651 84.3026 196.751 84.2691 197.802 84.5243L205.941 86.5006C206.992 86.7558 207.954 87.2903 208.726 88.0476L211.221 90.4939C211.993 91.2512 212.955 91.7857 214.006 92.0409L219.863 93.4633C222.01 93.9846 223.328 96.1475 222.807 98.2942L217.344 120.787C216.823 122.934 214.66 124.252 212.514 123.73L174.887 114.593C172.74 114.072 171.423 111.909 171.944 109.762L177.406 87.2693Z" fill="url(#paint7_linear_480_810)"/>
<path d="M177.878 85.3258C178.139 84.2524 179.22 83.5936 180.293 83.8543L188.094 85.7486C189.145 86.0038 190.246 85.9702 191.279 85.6514L194.618 84.6214C195.651 84.3026 196.751 84.2691 197.802 84.5243L205.941 86.5006C206.992 86.7558 207.954 87.2903 208.726 88.0476L211.221 90.4939C211.993 91.2512 212.955 91.7857 214.006 92.0409L221.807 93.9352C222.88 94.1959 223.539 95.2773 223.279 96.3507L221.801 102.437C221.54 103.51 220.458 104.169 219.385 103.908L177.872 93.8275C176.798 93.5668 176.139 92.4854 176.4 91.412L177.878 85.3258Z" fill="url(#paint8_linear_480_810)"/>
<g filter="url(#filter9_f_480_810)">
<circle cx="197.689" cy="103.302" r="9.5655" transform="rotate(13.6493 197.689 103.302)" fill="#391800" fill-opacity="0.5"/>
</g>
<ellipse cx="197.689" cy="103.302" rx="8.75019" ry="8.75018" transform="rotate(13.6493 197.689 103.302)" fill="#3E8AFC"/>
<g filter="url(#filter10_f_480_810)">
<circle cx="197.689" cy="103.302" r="7.25017" transform="rotate(13.6493 197.689 103.302)" stroke="#003078" stroke-opacity="0.4" stroke-width="3"/>
</g>
<circle cx="197.689" cy="103.302" r="8.57165" transform="rotate(13.6493 197.689 103.302)" stroke="#FFE58A" stroke-width="2"/>
<g filter="url(#filter11_i_480_810)">
<path d="M77.5909 149.626C85.7796 166.067 83.6335 183.771 83.6335 183.771C83.6335 183.771 68.2108 174.818 60.0221 158.377C51.8334 141.936 53.9795 124.232 53.9795 124.232C53.9795 124.232 69.4022 133.185 77.5909 149.626Z" fill="url(#paint9_linear_480_810)"/>
</g>
<path d="M83.1817 182.594C83.1817 182.594 78.4083 174.003 72.5186 162.662M55.2068 126.355C57.4065 131.762 60.2144 137.907 63.1987 144.102M63.1987 144.102L64.3056 134.34M63.1987 144.102C66.2755 150.488 69.5398 156.927 72.5186 162.662M72.5186 162.662L61.2 157.423" stroke="white" stroke-opacity="0.3" stroke-linecap="round"/>
<g filter="url(#filter12_i_480_810)">
<path d="M70.8075 163.5C80.9437 170.416 85.4657 181.438 85.4657 181.438C85.4657 181.438 73.5536 181.247 63.4175 174.332C53.2813 167.416 48.7593 156.394 48.7593 156.394C48.7593 156.394 60.6713 156.584 70.8075 163.5Z" fill="url(#paint10_linear_480_810)"/>
</g>
<path d="M84.816 180.898C84.816 180.898 79.2312 177.446 72.0989 172.754M50.1649 157.231C53.2105 159.666 56.8518 162.333 60.6119 164.972M60.6119 164.972L58.0739 158.919M60.6119 164.972C64.4886 167.692 68.4917 170.382 72.0989 172.754M72.0989 172.754L63.7909 173.391" stroke="white" stroke-opacity="0.3" stroke-linecap="round"/>
<g filter="url(#filter13_ii_480_810)">
<path d="M78.7294 134.685C78.7294 130.94 80.8213 127.509 84.1502 125.795L111.358 111.78C114.231 110.3 117.643 110.3 120.516 111.78L147.724 125.795C151.053 127.509 153.145 130.94 153.145 134.685V177.558C153.145 183.081 148.668 187.558 143.145 187.558H88.7294C83.2065 187.558 78.7294 183.081 78.7294 177.558V134.685Z" fill="url(#paint11_linear_480_810)"/>
</g>
<path d="M102 146C102 143.239 104.239 141 107 141H126C128.761 141 131 143.239 131 146V187H102V146Z" fill="#FCF0FF"/>
<circle cx="123" cy="164" r="5" fill="url(#paint12_linear_480_810)"/>
<g filter="url(#filter14_f_480_810)">
<ellipse cx="116.557" cy="186.938" rx="55.1916" ry="3.10065" fill="#9795FF" fill-opacity="0.3"/>
</g>
<g filter="url(#filter15_i_480_810)">
<path d="M45.0796 2C45.0796 0.895431 45.975 0 47.0796 0H91.1906C92.2952 0 93.1906 0.895431 93.1906 2V39.5505C93.1906 40.655 92.2952 41.5505 91.1906 41.5505H81.8132C81.3906 41.5505 80.9787 41.6844 80.6369 41.933L70.3115 49.4424C69.6102 49.9524 68.6601 49.9524 67.9588 49.4424L57.6333 41.933C57.2915 41.6844 56.8797 41.5505 56.457 41.5505H47.0796C45.975 41.5505 45.0796 40.655 45.0796 39.5505V2Z" fill="#FEFCFF"/>
</g>
<path d="M86.5949 11.6187C89.6396 14.8417 89.8206 19.8964 87.0048 23.2876C84.506 26.3438 80.5059 27.2469 77.0689 25.9967L76.8645 25.901L66.6736 36.6706C66.5273 36.8252 66.3032 36.9062 66.0761 36.8866L62.8422 36.5124C62.5388 36.4695 62.2795 36.2241 62.2199 35.9235L61.6679 32.7152C61.6357 32.4895 61.7042 32.2613 61.8505 32.1067L63.9611 29.8762C64.0586 29.7732 64.1821 29.6946 64.3574 29.6652L65.5587 29.4345C65.859 29.3769 66.1028 29.1192 66.1438 28.8162L66.2591 27.6555C66.2544 27.5046 66.3504 27.3513 66.4479 27.2482L67.5589 26.0741C67.6808 25.9453 67.8546 25.8655 68.0055 25.8618L69.6886 25.7453C70.0652 25.7109 70.3578 25.4017 70.3454 24.9993L70.2973 23.4399C70.2911 23.2387 70.3611 23.0608 70.483 22.932L72.0155 21.3125L71.9086 21.1138C70.5273 17.9509 71.1154 14.161 73.6022 11.533C77.113 7.82284 83.0787 7.80311 86.5949 11.6187ZM82.1816 15.4515C82.9076 16.1386 84.0145 16.1116 84.6971 15.3902C85.3798 14.6687 85.3457 13.5621 84.6196 12.875C83.8936 12.188 82.7867 12.215 82.1041 12.9364C81.4214 13.6578 81.4555 14.7645 82.1816 15.4515Z" fill="#FFC700"/>
<rect x="50.1584" y="16.3569" width="13.5387" height="4.51291" rx="0.5" fill="#9795FF"/>
<rect x="54.6699" y="11.8428" width="4.51291" height="13.5387" rx="0.5" fill="#9795FF"/>
<g filter="url(#filter16_f_480_810)">
<ellipse cx="16.5792" cy="1.46701" rx="16.5792" ry="1.46701" transform="matrix(-1 0 0 1 205.035 174.582)" fill="#9795FF" fill-opacity="0.5"/>
</g>
<path d="M179.743 176.759H194.15C196.999 176.759 199.691 174.86 200.64 172.168L204.756 160.77C205.548 158.712 204.598 156.337 202.54 155.546C201.432 155.071 200.324 155.071 199.374 155.546C198.424 156.021 197.632 156.812 197.158 157.92L192.883 169.002L194.941 169.794L199.216 158.712C199.374 158.237 199.691 157.92 200.165 157.604C200.64 157.445 201.115 157.445 201.59 157.604C202.54 157.92 203.015 159.028 202.698 159.978L198.424 171.377C197.791 173.276 196.049 174.385 194.15 174.385H182.118L184.176 172.643L182.593 170.902L178.793 174.385C178.319 174.701 178.319 175.335 178.477 175.809C178.635 176.284 179.11 176.759 179.743 176.759Z" fill="#9795FF"/>
<path d="M187.501 175.175C188.768 175.175 190.034 174.859 191.301 174.384C192.884 173.75 194.309 172.009 194.942 170.109C195.417 168.368 195.259 166.626 194.309 165.36C193.042 163.777 191.142 162.669 189.084 162.827C187.501 162.985 186.235 163.777 185.443 165.043C184.493 166.785 184.493 168.684 185.76 169.951C186.868 171.217 188.768 171.692 190.193 171.059C191.617 170.426 192.409 169.159 192.251 167.418L190.034 167.576C190.034 168.368 189.876 168.843 189.401 169.159C188.768 169.318 187.976 169.159 187.501 168.684C186.868 168.051 187.185 167.101 187.501 166.468C187.976 165.677 188.768 165.518 189.243 165.36C190.509 165.202 191.776 165.993 192.567 166.943C193.2 167.893 193.042 169.001 192.884 169.793C192.409 171.217 191.459 172.326 190.667 172.642C188.293 173.592 185.443 173.434 184.177 171.692C181.169 167.101 183.702 163.46 184.652 162.352C187.026 159.661 192.726 159.344 196.842 161.877L197.792 159.661C192.726 156.653 185.76 157.128 182.752 160.611C181.644 161.877 178.319 166.626 182.119 172.642C183.227 174.542 185.443 175.175 187.501 175.175Z" fill="#9795FF"/>
<path d="M198.899 156.653L201.115 156.337C200.798 154.595 199.215 151.429 195.416 150.954L195.257 153.17C198.265 153.487 198.899 156.653 198.899 156.653Z" fill="#9795FF"/>
<path d="M204.439 158.866C205.388 156.808 205.705 152.217 201.114 149.368L200.006 151.267C204.122 153.8 202.539 157.6 202.381 157.916L204.439 158.866Z" fill="#9795FF"/>
<path d="M200.64 151.428C200.028 151.428 199.532 150.932 199.532 150.32C199.532 149.708 200.028 149.212 200.64 149.212C201.252 149.212 201.748 149.708 201.748 150.32C201.748 150.932 201.252 151.428 200.64 151.428Z" fill="#9795FF"/>
<path d="M195.257 153.17C194.645 153.17 194.149 152.674 194.149 152.062C194.149 151.45 194.645 150.954 195.257 150.954C195.869 150.954 196.365 151.45 196.365 152.062C196.365 152.674 195.869 153.17 195.257 153.17Z" fill="#9795FF"/>
</g>
<defs>
<filter id="filter0_i_480_810" x="189.045" y="69.5479" width="53.0021" height="68.2554" filterUnits="userSpaceOnUse" color-interpolation-filters="sRGB">
<feFlood flood-opacity="0" result="BackgroundImageFix"/>
<feBlend mode="normal" in="SourceGraphic" in2="BackgroundImageFix" result="shape"/>
<feColorMatrix in="SourceAlpha" type="matrix" values="0 0 0 0 0 0 0 0 0 0 0 0 0 0 0 0 0 0 127 0" result="hardAlpha"/>
<feOffset dx="-1" dy="-1"/>
<feGaussianBlur stdDeviation="2"/>
<feComposite in2="hardAlpha" operator="arithmetic" k2="-1" k3="1"/>
<feColorMatrix type="matrix" values="0 0 0 0 1 0 0 0 0 1 0 0 0 0 1 0 0 0 0.4 0"/>
<feBlend mode="normal" in2="shape" result="effect1_innerShadow_480_810"/>
</filter>
<filter id="filter1_i_480_810" x="178.822" y="35.8291" width="44.5833" height="106.804" filterUnits="userSpaceOnUse" color-interpolation-filters="sRGB">
<feFlood flood-opacity="0" result="BackgroundImageFix"/>
<feBlend mode="normal" in="SourceGraphic" in2="BackgroundImageFix" result="shape"/>
<feColorMatrix in="SourceAlpha" type="matrix" values="0 0 0 0 0 0 0 0 0 0 0 0 0 0 0 0 0 0 127 0" result="hardAlpha"/>
<feOffset dx="-1" dy="-1"/>
<feGaussianBlur stdDeviation="2"/>
<feComposite in2="hardAlpha" operator="arithmetic" k2="-1" k3="1"/>
<feColorMatrix type="matrix" values="0 0 0 0 1 0 0 0 0 1 0 0 0 0 1 0 0 0 0.4 0"/>
<feBlend mode="normal" in2="shape" result="effect1_innerShadow_480_810"/>
</filter>
<filter id="filter2_ii_480_810" x="80.3624" y="31.1436" width="111.344" height="117.038" filterUnits="userSpaceOnUse" color-interpolation-filters="sRGB">
<feFlood flood-opacity="0" result="BackgroundImageFix"/>
<feBlend mode="normal" in="SourceGraphic" in2="BackgroundImageFix" result="shape"/>
<feColorMatrix in="SourceAlpha" type="matrix" values="0 0 0 0 0 0 0 0 0 0 0 0 0 0 0 0 0 0 127 0" result="hardAlpha"/>
<feOffset dy="2"/>
<feGaussianBlur stdDeviation="2"/>
<feComposite in2="hardAlpha" operator="arithmetic" k2="-1" k3="1"/>
<feColorMatrix type="matrix" values="0 0 0 0 1 0 0 0 0 1 0 0 0 0 1 0 0 0 0.25 0"/>
<feBlend mode="normal" in2="shape" result="effect1_innerShadow_480_810"/>
<feColorMatrix in="SourceAlpha" type="matrix" values="0 0 0 0 0 0 0 0 0 0 0 0 0 0 0 0 0 0 127 0" result="hardAlpha"/>
<feOffset/>
<feGaussianBlur stdDeviation="2"/>
<feComposite in2="hardAlpha" operator="arithmetic" k2="-1" k3="1"/>
<feColorMatrix type="matrix" values="0 0 0 0 1 0 0 0 0 1 0 0 0 0 1 0 0 0 0.25 0"/>
<feBlend mode="normal" in2="effect1_innerShadow_480_810" result="effect2_innerShadow_480_810"/>
</filter>
<filter id="filter3_f_480_810" x="48.3824" y="134.616" width="177.16" height="21.2788" filterUnits="userSpaceOnUse" color-interpolation-filters="sRGB">
<feFlood flood-opacity="0" result="BackgroundImageFix"/>
<feBlend mode="normal" in="SourceGraphic" in2="BackgroundImageFix" result="shape"/>
<feGaussianBlur stdDeviation="3" result="effect1_foregroundBlur_480_810"/>
</filter>
<filter id="filter4_i_480_810" x="6.54681" y="84.4009" width="26.2645" height="63.5996" filterUnits="userSpaceOnUse" color-interpolation-filters="sRGB">
<feFlood flood-opacity="0" result="BackgroundImageFix"/>
<feBlend mode="normal" in="SourceGraphic" in2="BackgroundImageFix" result="shape"/>
<feColorMatrix in="SourceAlpha" type="matrix" values="0 0 0 0 0 0 0 0 0 0 0 0 0 0 0 0 0 0 127 0" result="hardAlpha"/>
<feOffset dx="-1" dy="-1"/>
<feGaussianBlur stdDeviation="2"/>
<feComposite in2="hardAlpha" operator="arithmetic" k2="-1" k3="1"/>
<feColorMatrix type="matrix" values="0 0 0 0 1 0 0 0 0 1 0 0 0 0 1 0 0 0 0.4 0"/>
<feBlend mode="normal" in2="shape" result="effect1_innerShadow_480_810"/>
</filter>
<filter id="filter5_i_480_810" x="1.39905" y="120.404" width="30.624" height="26.7739" filterUnits="userSpaceOnUse" color-interpolation-filters="sRGB">
<feFlood flood-opacity="0" result="BackgroundImageFix"/>
<feBlend mode="normal" in="SourceGraphic" in2="BackgroundImageFix" result="shape"/>
<feColorMatrix in="SourceAlpha" type="matrix" values="0 0 0 0 0 0 0 0 0 0 0 0 0 0 0 0 0 0 127 0" result="hardAlpha"/>
<feOffset dx="-1" dy="-1"/>
<feGaussianBlur stdDeviation="2"/>
<feComposite in2="hardAlpha" operator="arithmetic" k2="-1" k3="1"/>
<feColorMatrix type="matrix" values="0 0 0 0 1 0 0 0 0 1 0 0 0 0 1 0 0 0 0.4 0"/>
<feBlend mode="normal" in2="shape" result="effect1_innerShadow_480_810"/>
</filter>
<filter id="filter6_ii_480_810" x="28.0345" y="77.5142" width="74.4156" height="78.8877" filterUnits="userSpaceOnUse" color-interpolation-filters="sRGB">
<feFlood flood-opacity="0" result="BackgroundImageFix"/>
<feBlend mode="normal" in="SourceGraphic" in2="BackgroundImageFix" result="shape"/>
<feColorMatrix in="SourceAlpha" type="matrix" values="0 0 0 0 0 0 0 0 0 0 0 0 0 0 0 0 0 0 127 0" result="hardAlpha"/>
<feOffset dy="2"/>
<feGaussianBlur stdDeviation="2"/>
<feComposite in2="hardAlpha" operator="arithmetic" k2="-1" k3="1"/>
<feColorMatrix type="matrix" values="0 0 0 0 1 0 0 0 0 1 0 0 0 0 1 0 0 0 0.25 0"/>
<feBlend mode="normal" in2="shape" result="effect1_innerShadow_480_810"/>
<feColorMatrix in="SourceAlpha" type="matrix" values="0 0 0 0 0 0 0 0 0 0 0 0 0 0 0 0 0 0 127 0" result="hardAlpha"/>
<feOffset/>
<feGaussianBlur stdDeviation="2"/>
<feComposite in2="hardAlpha" operator="arithmetic" k2="-1" k3="1"/>
<feColorMatrix type="matrix" values="0 0 0 0 1 0 0 0 0 1 0 0 0 0 1 0 0 0 0.25 0"/>
<feBlend mode="normal" in2="effect1_innerShadow_480_810" result="effect2_innerShadow_480_810"/>
</filter>
<filter id="filter7_f_480_810" x="4.67065" y="144.682" width="122.383" height="18.2012" filterUnits="userSpaceOnUse" color-interpolation-filters="sRGB">
<feFlood flood-opacity="0" result="BackgroundImageFix"/>
<feBlend mode="normal" in="SourceGraphic" in2="BackgroundImageFix" result="shape"/>
<feGaussianBlur stdDeviation="3" result="effect1_foregroundBlur_480_810"/>
</filter>
<filter id="filter8_di_480_810" x="127.495" y="58.4951" width="64.8464" height="74.1904" filterUnits="userSpaceOnUse" color-interpolation-filters="sRGB">
<feFlood flood-opacity="0" result="BackgroundImageFix"/>
<feColorMatrix in="SourceAlpha" type="matrix" values="0 0 0 0 0 0 0 0 0 0 0 0 0 0 0 0 0 0 127 0" result="hardAlpha"/>
<feOffset dx="2" dy="-1"/>
<feGaussianBlur stdDeviation="2"/>
<feComposite in2="hardAlpha" operator="out"/>
<feColorMatrix type="matrix" values="0 0 0 0 0.165208 0 0 0 0 0.0494792 0 0 0 0 0.3125 0 0 0 0.15 0"/>
<feBlend mode="normal" in2="BackgroundImageFix" result="effect1_dropShadow_480_810"/>
<feBlend mode="normal" in="SourceGraphic" in2="effect1_dropShadow_480_810" result="shape"/>
<feColorMatrix in="SourceAlpha" type="matrix" values="0 0 0 0 0 0 0 0 0 0 0 0 0 0 0 0 0 0 127 0" result="hardAlpha"/>
<feOffset/>
<feGaussianBlur stdDeviation="2"/>
<feComposite in2="hardAlpha" operator="arithmetic" k2="-1" k3="1"/>
<feColorMatrix type="matrix" values="0 0 0 0 1 0 0 0 0 1 0 0 0 0 1 0 0 0 0.25 0"/>
<feBlend mode="normal" in2="shape" result="effect2_innerShadow_480_810"/>
</filter>
<filter id="filter9_f_480_810" x="184.121" y="89.7344" width="27.1354" height="27.1353" filterUnits="userSpaceOnUse" color-interpolation-filters="sRGB">
<feFlood flood-opacity="0" result="BackgroundImageFix"/>
<feBlend mode="normal" in="SourceGraphic" in2="BackgroundImageFix" result="shape"/>
<feGaussianBlur stdDeviation="2" result="effect1_foregroundBlur_480_810"/>
</filter>
<filter id="filter10_f_480_810" x="185.937" y="91.5503" width="23.5043" height="23.5044" filterUnits="userSpaceOnUse" color-interpolation-filters="sRGB">
<feFlood flood-opacity="0" result="BackgroundImageFix"/>
<feBlend mode="normal" in="SourceGraphic" in2="BackgroundImageFix" result="shape"/>
<feGaussianBlur stdDeviation="1.5" result="effect1_foregroundBlur_480_810"/>
</filter>
<filter id="filter11_i_480_810" x="52.7257" y="123.232" width="31.1616" height="60.5386" filterUnits="userSpaceOnUse" color-interpolation-filters="sRGB">
<feFlood flood-opacity="0" result="BackgroundImageFix"/>
<feBlend mode="normal" in="SourceGraphic" in2="BackgroundImageFix" result="shape"/>
<feColorMatrix in="SourceAlpha" type="matrix" values="0 0 0 0 0 0 0 0 0 0 0 0 0 0 0 0 0 0 127 0" result="hardAlpha"/>
<feOffset dx="-1" dy="-1"/>
<feGaussianBlur stdDeviation="2"/>
<feComposite in2="hardAlpha" operator="arithmetic" k2="-1" k3="1"/>
<feColorMatrix type="matrix" values="0 0 0 0 1 0 0 0 0 1 0 0 0 0 1 0 0 0 0.4 0"/>
<feBlend mode="normal" in2="shape" result="effect1_innerShadow_480_810"/>
</filter>
<filter id="filter12_i_480_810" x="47.7593" y="155.394" width="37.7064" height="26.0439" filterUnits="userSpaceOnUse" color-interpolation-filters="sRGB">
<feFlood flood-opacity="0" result="BackgroundImageFix"/>
<feBlend mode="normal" in="SourceGraphic" in2="BackgroundImageFix" result="shape"/>
<feColorMatrix in="SourceAlpha" type="matrix" values="0 0 0 0 0 0 0 0 0 0 0 0 0 0 0 0 0 0 127 0" result="hardAlpha"/>
<feOffset dx="-1" dy="-1"/>
<feGaussianBlur stdDeviation="2"/>
<feComposite in2="hardAlpha" operator="arithmetic" k2="-1" k3="1"/>
<feColorMatrix type="matrix" values="0 0 0 0 1 0 0 0 0 1 0 0 0 0 1 0 0 0 0.4 0"/>
<feBlend mode="normal" in2="shape" result="effect1_innerShadow_480_810"/>
</filter>
<filter id="filter13_ii_480_810" x="78.7294" y="110.67" width="74.4156" height="78.8877" filterUnits="userSpaceOnUse" color-interpolation-filters="sRGB">
<feFlood flood-opacity="0" result="BackgroundImageFix"/>
<feBlend mode="normal" in="SourceGraphic" in2="BackgroundImageFix" result="shape"/>
<feColorMatrix in="SourceAlpha" type="matrix" values="0 0 0 0 0 0 0 0 0 0 0 0 0 0 0 0 0 0 127 0" result="hardAlpha"/>
<feOffset dy="2"/>
<feGaussianBlur stdDeviation="2"/>
<feComposite in2="hardAlpha" operator="arithmetic" k2="-1" k3="1"/>
<feColorMatrix type="matrix" values="0 0 0 0 1 0 0 0 0 1 0 0 0 0 1 0 0 0 0.25 0"/>
<feBlend mode="normal" in2="shape" result="effect1_innerShadow_480_810"/>
<feColorMatrix in="SourceAlpha" type="matrix" values="0 0 0 0 0 0 0 0 0 0 0 0 0 0 0 0 0 0 127 0" result="hardAlpha"/>
<feOffset/>
<feGaussianBlur stdDeviation="2"/>
<feComposite in2="hardAlpha" operator="arithmetic" k2="-1" k3="1"/>
<feColorMatrix type="matrix" values="0 0 0 0 1 0 0 0 0 1 0 0 0 0 1 0 0 0 0.25 0"/>
<feBlend mode="normal" in2="effect1_innerShadow_480_810" result="effect2_innerShadow_480_810"/>
</filter>
<filter id="filter14_f_480_810" x="55.3655" y="177.837" width="122.383" height="18.2012" filterUnits="userSpaceOnUse" color-interpolation-filters="sRGB">
<feFlood flood-opacity="0" result="BackgroundImageFix"/>
<feBlend mode="normal" in="SourceGraphic" in2="BackgroundImageFix" result="shape"/>
<feGaussianBlur stdDeviation="3" result="effect1_foregroundBlur_480_810"/>
</filter>
<filter id="filter15_i_480_810" x="44.0796" y="-1" width="49.1111" height="50.8247" filterUnits="userSpaceOnUse" color-interpolation-filters="sRGB">
<feFlood flood-opacity="0" result="BackgroundImageFix"/>
<feBlend mode="normal" in="SourceGraphic" in2="BackgroundImageFix" result="shape"/>
<feColorMatrix in="SourceAlpha" type="matrix" values="0 0 0 0 0 0 0 0 0 0 0 0 0 0 0 0 0 0 127 0" result="hardAlpha"/>
<feOffset dx="-1" dy="-1"/>
<feGaussianBlur stdDeviation="1"/>
<feComposite in2="hardAlpha" operator="arithmetic" k2="-1" k3="1"/>
<feColorMatrix type="matrix" values="0 0 0 0 0.932833 0 0 0 0 0.741667 0 0 0 0 1 0 0 0 0.25 0"/>
<feBlend mode="normal" in2="shape" result="effect1_innerShadow_480_810"/>
</filter>
<filter id="filter16_f_480_810" x="165.877" y="168.582" width="45.1584" height="14.9341" filterUnits="userSpaceOnUse" color-interpolation-filters="sRGB">
<feFlood flood-opacity="0" result="BackgroundImageFix"/>
<feBlend mode="normal" in="SourceGraphic" in2="BackgroundImageFix" result="shape"/>
<feGaussianBlur stdDeviation="3" result="effect1_foregroundBlur_480_810"/>
</filter>
<linearGradient id="paint0_linear_480_810" x1="242.047" y1="70.5478" x2="190.045" y2="137.803" gradientUnits="userSpaceOnUse">
<stop stop-color="#81BE65"/>
<stop offset="1" stop-color="#638BC7"/>
</linearGradient>
<linearGradient id="paint1_linear_480_810" x1="221.311" y1="36.8292" x2="181.916" y2="142.633" gradientUnits="userSpaceOnUse">
<stop stop-color="#FFAD61"/>
<stop offset="1" stop-color="#04B05E"/>
</linearGradient>
<linearGradient id="paint2_linear_480_810" x1="136.034" y1="29.2705" x2="136.034" y2="146.181" gradientUnits="userSpaceOnUse">
<stop stop-color="#EEA5F9"/>
<stop offset="1" stop-color="#6A67FC"/>
</linearGradient>
<linearGradient id="paint3_linear_480_810" x1="8.93714" y1="85.401" x2="31.421" y2="148" gradientUnits="userSpaceOnUse">
<stop stop-color="#81BE65"/>
<stop offset="1" stop-color="#638BC7"/>
</linearGradient>
<linearGradient id="paint4_linear_480_810" x1="2.39903" y1="121.404" x2="32.0231" y2="147.178" gradientUnits="userSpaceOnUse">
<stop stop-color="#FFAD61"/>
<stop offset="1" stop-color="#04B05E"/>
</linearGradient>
<linearGradient id="paint5_linear_480_810" x1="65.2423" y1="76.2656" x2="65.2423" y2="154.402" gradientUnits="userSpaceOnUse">
<stop stop-color="#EEA5F9"/>
<stop offset="1" stop-color="#9795FF"/>
</linearGradient>
<linearGradient id="paint6_linear_480_810" x1="166.483" y1="96.1297" x2="130.569" y2="151.886" gradientUnits="userSpaceOnUse">
<stop stop-color="#D9FFE8"/>
<stop offset="1" stop-color="#A4BDFF"/>
</linearGradient>
<linearGradient id="paint7_linear_480_810" x1="199.165" y1="98.9654" x2="192.824" y2="124.328" gradientUnits="userSpaceOnUse">
<stop offset="0.671399" stop-color="#FFC09C"/>
<stop offset="1" stop-color="#B68A72"/>
</linearGradient>
<linearGradient id="paint8_linear_480_810" x1="200.04" y1="101.808" x2="204.85" y2="80.162" gradientUnits="userSpaceOnUse">
<stop offset="0.372193" stop-color="#FF570F"/>
<stop offset="0.717647" stop-color="#D7490D"/>
<stop offset="1" stop-color="#993409"/>
</linearGradient>
<linearGradient id="paint9_linear_480_810" x1="53.9795" y1="124.232" x2="83.6335" y2="183.771" gradientUnits="userSpaceOnUse">
<stop stop-color="#81BE65"/>
<stop offset="1" stop-color="#638BC7"/>
</linearGradient>
<linearGradient id="paint10_linear_480_810" x1="48.7593" y1="156.394" x2="85.4657" y2="181.438" gradientUnits="userSpaceOnUse">
<stop stop-color="#FFAD61"/>
<stop offset="1" stop-color="#04B05E"/>
</linearGradient>
<linearGradient id="paint11_linear_480_810" x1="115.937" y1="109.421" x2="115.937" y2="187.558" gradientUnits="userSpaceOnUse">
<stop stop-color="#EEA5F9"/>
<stop offset="1" stop-color="#9795FF"/>
</linearGradient>
<linearGradient id="paint12_linear_480_810" x1="123" y1="159" x2="123" y2="169" gradientUnits="userSpaceOnUse">
<stop stop-color="#EEA5F9"/>
<stop offset="1" stop-color="#9795FF"/>
</linearGradient>
<clipPath id="clip0_480_810">
<rect width="246" height="197" fill="white"/>
</clipPath>
</defs>
</svg>
